<?xml version='1.0' encoding='ASCII' standalone='yes'?>
<svg xmlns="http://www.w3.org/2000/svg" xmlns:xlink="http://www.w3.org/1999/xlink" version="1.1" width="72.0mm" viewBox="0 0 72.0 72.0" height="72.0mm">
  <g transform="translate(0.0, 0.0) scale(1 1) ">
    <sodipodi:namedview xmlns:sodipodi="http://sodipodi.sourceforge.net/DTD/sodipodi-0.dtd" xmlns:inkscape="http://www.inkscape.org/namespaces/inkscape" id="namedview1" pagecolor="#ffffff" bordercolor="#000000" borderopacity="0.25" inkscape:showpageshadow="2" inkscape:pageopacity="0.0" inkscape:pagecheckerboard="0" inkscape:deskcolor="#d1d1d1" inkscape:document-units="mm" inkscape:zoom="0.62317561" inkscape:cx="54.55926" inkscape:cy="421.22958" inkscape:window-width="1920" inkscape:window-height="1009" inkscape:window-x="-8" inkscape:window-y="-8" inkscape:window-maximized="1" inkscape:current-layer="svg1"/>
    <defs id="defs1"/>
    <g id="layer1" transform="translate(799.61738,1032.2898)">
      <path id="path38" style="color:#000000;fill:#000000;stroke:none;stroke-width:1;stroke-linecap:round;stroke-linejoin:round;-inkscape-stroke:none" d="m -753.97916,-1026.7876 c -3.46208,0.9643 -6.25936,3.3674 -9.38192,5.0644 -4.36808,2.6782 -8.82384,5.2271 -13.13584,7.9881 -2.4048,1.5933 -1.49264,5.271 1.01144,6.2012 2.55736,1.4442 4.71072,-0.8741 6.79032,-2.0317 5.77904,-3.4854 11.60224,-6.8985 17.32456,-10.477 2.73344,-2.1332 0.87912,-7.0292 -2.60856,-6.745 z m -21.43128,23.113 c -7.47488,-0.1207 -14.14072,5.95745 -15.31992,13.23505 -1.8744,8.508 1.33144,18.62816 9.29008,22.92096 5.67832,3.02376 12.79216,1.89896 17.88272,-1.79808 4.61432,-2.95104 8.46992,-6.89848 12.168,-10.89792 3.17696,3.61208 6.15632,7.41224 9.32264,11.01904 3.06672,2.46248 7.7444,-2.17792 5.48944,-5.31576 -3.21448,-3.84112 -6.362,-7.7504 -9.6924,-11.49768 3.22696,-4.20072 6.8312,-8.17368 9.63072,-12.66512 1.314,-3.36779 -3.28864,-6.09059 -6.0156,-4.27919 -1.79872,1.6649 -2.91448,3.99399 -4.60032,5.82551 -1.47504,1.88768 -2.95768,3.76944 -4.452,5.64192 -6.50512,-6.09824 -14.30528,-12.31903 -23.70336,-12.18873 z m 0.6648,7.67953 c 6.7224,0.69264 11.97984,5.37464 17.09416,9.31896 1.18224,3.13008 -3.64912,4.77152 -5.18312,7.1316 -3.31576,2.92616 -7.21344,5.88608 -11.78472,6.156 -4.84696,-0.21864 -8.04776,-4.96208 -8.67072,-9.40416 -0.86448,-4.51728 0.21792,-10.28984 4.65952,-12.55016 1.218,-0.52864 2.56624,-0.69568 3.88488,-0.65224 z"/>
    </g>
  </g>
</svg>
