<?xml version='1.0' encoding='ASCII' standalone='yes'?>
<svg xmlns="http://www.w3.org/2000/svg" xmlns:xlink="http://www.w3.org/1999/xlink" version="1.1" width="72.0mm" viewBox="0 0 72.0 72.0" height="72.0mm">
  <g transform="translate(4.392402499999999, 7.176195) scale(1 1) ">
    <defs id="defs1"/>
    <g id="layer1" transform="translate(701.54521,1022.9722)">
      <path id="path3" style="color:#000000;fill:#000000;stroke:none;stroke-width:1;stroke-linecap:round;stroke-linejoin:round;-inkscape-stroke:none" d="m -689.3828,-1022.9478 c -3.00724,-0.3594 -4.60932,3.3312 -3.29352,5.7121 1.34448,3.4253 7.11831,2.1459 7.055,-1.5136 0.27081,-2.1905 -1.50077,-4.3518 -3.76148,-4.1985 z m 42.61943,0 c -3.00726,-0.3594 -4.60932,3.3312 -3.29352,5.7121 1.34448,3.4253 7.11829,2.1459 7.05498,-1.5136 0.27082,-2.1905 -1.50077,-4.3518 -3.76146,-4.1985 z m -22.03152,2.4259 c -7.85063,0.056 -14.2977,6.0368 -17.74434,12.6647 -0.51302,3.115 -2.98085,3.7076 -5.66145,3.0214 -2.81681,0.1812 -6.413,-1.3297 -8.58333,1.1133 -1.9653,2.8014 0.98721,7.21215 4.35472,6.35495 1.93088,0.69472 6.98244,-1.10928 5.89536,1.97928 -0.94924,2.50824 1.37393,8.65896 -3.05671,6.88024 -2.6714,-0.44984 -6.70781,-1.1728 -7.84917,2.10448 -0.75995,3.20104 2.74,5.68752 5.66424,5.35016 2.10829,0.8332 6.06448,-0.54616 6.64891,2.10184 2.19143,6.65016 7.69097,12.96888 15.0359,13.572 7.51584,0.65056 14.24608,-4.56808 17.93611,-10.73704 3.65912,0.16752 7.40145,1.55392 11.01785,0.80928 3.45345,-1.4328 2.00361,-6.97352 -1.38089,-7.46008 -2.07958,-0.0461 -4.14622,-0.42328 -6.21886,-0.65176 1.23834,-3.7164 1.91098,-7.61872 2.00922,-11.53416 3.52701,-0.096 7.22656,1.00184 10.6431,-0.01 3.49183,-1.78344 1.27947,-7.52619 -2.34612,-7.37229 -2.89514,-0.096 -6.57345,0.1685 -8.9939,-0.6912 -1.40511,-7.2047 -5.82324,-14.6182 -13.19067,-16.8785 -1.35264,-0.4098 -2.7672,-0.6136 -4.17997,-0.6167 z m -0.0394,7.6696 c 5.02128,0.092 8.13115,4.9876 9.37048,9.3314 -2.67099,0.8299 -7.76491,-0.2739 -11.36604,-0.1862 -2.68647,-0.4099 -7.12533,0.1568 -8.72092,-0.8609 2.23497,-3.9926 5.77837,-8.1291 10.71648,-8.2842 z m -13.64753,16.22227 c 8.03009,0.42336 16.0602,0.84664 24.0903,1.27 -0.0586,3.74712 -0.78853,7.48656 -2.17789,10.96864 -7.49103,-0.93424 -14.98203,-1.86864 -22.47305,-2.80296 -0.30307,-3.14888 -0.11544,-6.34512 0.56064,-9.43568 z m 1.58253,17.43272 c 5.33631,0.6648 10.67264,1.32952 16.00893,1.99432 -2.69166,3.3568 -7.88553,5.71872 -11.82054,3.03416 -1.87426,-1.1964 -3.21154,-3.064 -4.18839,-5.02848 z"/>
    </g>
  </g>
</svg>
