<?xml version='1.0' encoding='ASCII' standalone='yes'?>
<svg xmlns="http://www.w3.org/2000/svg" xmlns:xlink="http://www.w3.org/1999/xlink" version="1.1" width="72.0mm" viewBox="0 0 72.0 72.0" height="72.0mm">
  <g transform="translate(10.095972, 9.612886499999998) scale(1 1) ">
    <defs id="defs1"/>
    <g id="layer1" transform="translate(604.99524,1020.7943)">
      <path id="path6" style="color:#000000;fill:#000000;stroke:none;stroke-width:1;stroke-linecap:round;stroke-linejoin:round;-inkscape-stroke:none" d="m -594.90173,-1020.7551 c -2.3802,-0.372 -4.33263,1.9673 -3.87298,4.2459 0.19368,2.5061 2.45496,3.9099 3.81658,5.7887 4.12478,4.8358 8.24957,9.6714 12.37437,14.50719 -7.15255,7.414 -14.37895,14.76456 -21.4854,22.21816 -1.97073,2.03696 -0.58377,5.51632 2.16293,5.82416 2.28015,0.65376 4.15818,-0.92624 5.39179,-2.63544 6.31368,-6.51104 12.62736,-13.022 18.94104,-19.53296 5.98476,6.98968 11.92404,14.02 17.93732,20.98432 1.95988,2.21248 5.55715,0.62944 6.21712,-1.9564 0.82667,-1.98592 -0.72949,-3.54184 -1.97172,-4.85448 -5.60335,-6.5716 -11.20669,-13.1432 -16.81003,-19.7148 5.19495,-5.36855 10.41315,-10.71505 15.59347,-16.09735 2.43317,-2.7543 -1.18134,-7.0332 -4.38312,-6.0303 -1.63597,0.5978 -2.45125,2.2899 -3.74101,3.3795 -4.15992,4.2914 -8.3198,8.5829 -12.4797,12.8744 -5.0676,-5.9121 -10.08117,-11.8803 -15.18246,-17.7573 -0.72308,-0.7272 -1.5135,-1.0465 -2.5082,-1.2433 z"/>
    </g>
  </g>
</svg>
