<?xml version='1.0' encoding='ASCII' standalone='yes'?>
<svg xmlns="http://www.w3.org/2000/svg" xmlns:xlink="http://www.w3.org/1999/xlink" version="1.1" width="72.0mm" viewBox="0 0 72.0 72.0" height="72.0mm">
  <g transform="translate(5.229149, 6.256342) scale(1 1) ">
    <defs id="defs1"/>
    <g id="layer1" transform="translate(519.7883,1026.6242)">
      <path id="path8" style="color:#000000;fill:#000000;stroke:none;stroke-width:1;stroke-linecap:round;stroke-linejoin:round;-inkscape-stroke:none" d="m -501.88416,-1026.6239 c -3.93926,0.4986 -3.38925,5.3075 -3.53025,8.2122 -0.24701,5.9012 -0.49412,11.8025 -0.74103,17.7038 -3.50847,0.041 -7.02636,-0.084 -10.52883,0.064 -2.89625,0.1368 -3.99842,3.78227 -2.30282,5.86651 1.17045,2.08168 3.59103,1.90672 5.61317,1.75368 2.29867,0 4.59735,0 6.89601,0 -0.30594,7.31904 -0.61181,14.63808 -0.91776,21.95712 -0.0192,2.96224 3.12159,4.5276 5.71635,3.71728 9.58557,-2.12744 18.75036,-8.08216 22.92117,-17.21352 1.31859,-2.5284 1.6425,-5.39352 2.37682,-8.08096 1.19016,-0.90072 2.89913,-0.1488 4.3529,-0.37992 1.14243,0 2.28487,0 3.4273,0 -2.38819,4.29008 -4.92708,8.5056 -7.21894,12.84344 -1.31034,2.58968 1.32151,5.34752 3.97267,4.89992 2.39007,0.007 3.43172,-2.18576 4.2948,-4.02248 3.00749,-5.33584 6.05348,-10.65064 9.03648,-15.99984 1.15109,-3.02376 -1.68297,-5.45713 -2.89464,-7.96503 -2.29387,-3.7055 -4.44693,-7.5077 -6.82993,-11.152 -1.61754,-2.4007 -5.30022,-1.4549 -6.20136,1.0726 -1.17096,2.0777 0.23136,4.0545 1.40788,5.7033 1.39994,2.3119 2.79992,4.6237 4.19985,6.9356 -2.58631,0 -5.1726,0 -7.75891,0 -1.24025,-11.0554 -9.4629,-20.58 -19.74722,-24.4441 -1.75644,-0.7624 -3.60556,-1.4421 -5.54367,-1.4719 z m 4.0878,9.6937 c 6.86343,2.1067 11.85583,8.4783 13.3464,15.3446 -0.26697,1.73173 -2.59385,0.5537 -3.83897,0.8776 -3.39571,0 -6.7914,0 -10.18708,0 0.22656,-5.4074 0.45312,-10.8147 0.67968,-16.2222 z m -0.99713,23.90673 c 4.86171,0 9.72344,0 14.58513,0 -0.79075,7.7848 -7.15752,14.36144 -14.54757,16.36568 -1.63761,-1.76368 -0.01,-5.32336 -0.39591,-7.80264 0.11952,-2.85432 0.2388,-5.70864 0.35828,-8.56304 z"/>
    </g>
  </g>
</svg>
