<?xml version='1.0' encoding='ASCII' standalone='yes'?>
<svg xmlns="http://www.w3.org/2000/svg" xmlns:xlink="http://www.w3.org/1999/xlink" version="1.1" width="72.0mm" viewBox="0 0 72.0 72.0" height="72.0mm">
  <g transform="translate(8.955517, 15.9296015) scale(1 1) ">
    <defs id="defs1"/>
    <g id="layer1" transform="translate(421.27767,1015.4772)">
      <path id="path11" style="color:#000000;fill:#000000;stroke:none;stroke-width:1;stroke-linecap:round;stroke-linejoin:round;-inkscape-stroke:none" d="m -406.76313,-1015.4766 c -6.06776,-0.019 -11.04845,4.9212 -12.96054,10.3788 -3.2819,8.96489 -1.38846,20.10673 5.89878,26.58817 4.06401,3.50872 10.45764,4.3864 14.97157,1.2144 2.23443,-1.44976 4.01348,-3.53576 5.27139,-5.8708 3.20535,4.84296 9.04288,8.61328 15.0266,7.47544 6.02849,-1.1272 10.01641,-6.95152 10.98408,-12.70344 1.60317,-9.1852 -1.86175,-19.59757 -9.84432,-24.82837 -4.52003,-2.8741 -10.94928,-2.8289 -14.96375,0.9383 -1.24722,0.6242 -2.22288,3.2733 -3.10881,3.0528 -2.61208,-3.5572 -6.7438,-6.2884 -11.275,-6.2454 z m 0.35221,7.6745 c 3.88892,0.5818 6.0182,4.5168 7.06311,7.93495 1.54899,5.33296 0.99783,11.91312 -3.23283,15.8888 -2.60532,2.10496 -6.18129,0.5004 -7.79409,-2.03872 -3.67732,-4.95784 -4.15723,-12.00096 -1.6447,-17.57983 1.0467,-2.1229 3.02683,-4.354 5.60851,-4.2052 z m 22.24484,0.1985 c 4.4498,0.6683 7.07394,5.0413 8.38048,8.96445 1.49592,4.6888 1.48339,10.48488 -1.99536,14.312 -2.21199,1.9988 -5.65245,1.13704 -7.48629,-0.94056 -4.69125,-4.46936 -6.29712,-11.804 -4.24804,-17.89839 0.79698,-2.2752 2.67921,-4.659 5.34921,-4.4375 z"/>
    </g>
  </g>
</svg>
