<?xml version='1.0' encoding='ASCII' standalone='yes'?>
<svg xmlns="http://www.w3.org/2000/svg" xmlns:xlink="http://www.w3.org/1999/xlink" version="1.1" width="72.0mm" viewBox="0 0 72.0 72.0" height="72.0mm">
  <g transform="translate(10.6606615, 11.539566) scale(1 1) ">
    <defs id="defs1"/>
    <g id="layer1" transform="translate(329.21609,1020.6203)">
      <path id="path5-6-5" style="color:#000000;fill:#000000;stroke:none;stroke-width:1;stroke-linecap:round;stroke-linejoin:round;-inkscape-stroke:none" d="m -325.61709,-1020.6063 c -3.49659,0.062 -3.93204,4.2692 -3.4223,6.9185 0.40252,6.3621 0.75466,12.7289 1.18875,19.08785 0.50582,2.87648 3.90448,3.2176 6.28043,3.26368 13.12757,1.03168 26.25169,2.12144 39.38143,3.11672 3.39426,-0.17136 4.00198,-4.13968 3.49365,-6.81064 -0.30816,-7.42241 -0.46176,-14.85911 -0.86775,-22.27251 -0.74726,-3.7466 -7.03942,-3.3884 -7.59,0.2927 0.20382,6.9174 0.50304,13.8559 0.742,20.78173 -11.34236,-0.90624 -22.68472,-1.81232 -34.02708,-2.71856 -0.42565,-6.26757 -0.68514,-12.55547 -1.21634,-18.81007 -0.44563,-1.7092 -2.18424,-3.0144 -3.96283,-2.8493 z m 18.8466,40.47139 c -3.15977,-0.32448 -4.66041,3.53464 -3.42349,6.0268 0.82349,2.78368 4.77302,3.20304 6.44666,1.00472 1.9276,-2.46024 0.43728,-7.1396 -3.02317,-7.03152 z"/>
    </g>
  </g>
</svg>
