<?xml version='1.0' encoding='ASCII' standalone='yes'?>
<svg xmlns="http://www.w3.org/2000/svg" xmlns:xlink="http://www.w3.org/1999/xlink" version="1.1" width="72.0mm" viewBox="0 0 72.0 72.0" height="72.0mm">
  <g transform="translate(7.702030000000001, 9.54854) scale(1 1) ">
    <defs id="defs1"/>
    <g id="layer1" transform="translate(240.16408,1021.7737)">
      <path id="path13" style="color:#000000;fill:#000000;stroke:none;stroke-width:1;stroke-linecap:round;stroke-linejoin:round;-inkscape-stroke:none" d="m -183.57085,-1014.2747 c 0.1133,-2.9168 -3.3561,-4.2657 -5.706,-3.0809 -1.8428,0.8538 -3.2094,2.4398 -4.8874,3.5715 -4.1866,3.238 -8.3728,6.476 -12.5594,9.7141 -7.49915,-5.6258 -14.99843,-11.2514 -22.49771,-16.8772 -2.18008,-1.9214 -5.64152,-0.252 -5.82824,2.5364 -0.72768,3.1816 2.57888,4.5448 4.59856,6.1278 7.44888,5.522 14.76184,11.2508 22.32016,16.61075 2.79303,1.08276 4.90993,-1.55234 6.97653,-3.00669 5.3919,-4.19596 10.8533,-8.32146 16.2019,-12.56136 0.7156,-0.7498 1.2559,-1.5819 1.3018,-2.6455 0.027,-0.1296 0.054,-0.2593 0.08,-0.3889 z m -2.6441,41.9398 c 0.2061,-3.28315 -3.3653,-4.53912 -5.4603,-6.30859 -5.1847,-3.74444 -10.3695,-7.48886 -15.55427,-11.23329 -2.84352,-1.75535 -5.7688,0.69293 -8.45512,1.58589 -7.53552,3.21772 -15.09848,6.37488 -22.6168,9.63056 -2.70816,1.21692 -2.25816,5.14061 0.0326,6.53313 1.68488,1.39595 3.64472,0.3096 5.2952,-0.47913 7.66848,-3.25652 15.33688,-6.51303 23.00528,-9.76955 6.09751,4.35558 12.10631,8.83556 18.26021,13.11203 2.2528,1.20107 5.362,-0.50044 5.4929,-3.07109 z"/>
    </g>
  </g>
</svg>
