<?xml version='1.0' encoding='ASCII' standalone='yes'?>
<svg xmlns="http://www.w3.org/2000/svg" xmlns:xlink="http://www.w3.org/1999/xlink" version="1.1" width="72.0mm" viewBox="0 0 72.0 72.0" height="72.0mm">
  <g transform="translate(12.206662999999999, 5.8292329999999986) scale(1 1) ">
    <defs id="defs1"/>
    <g id="layer1" transform="translate(142.28984,1021.4321)">
      <path id="path15" style="color:#000000;fill:#000000;stroke:none;stroke-width:1;stroke-linecap:round;stroke-linejoin:round;-inkscape-stroke:none" d="m -98.401188,-1021.4298 c -3.085022,0.3101 -4.781332,3.2521 -7.033052,5.0313 -4.78783,4.4794 -9.57565,8.9589 -14.36348,13.4383 -5.41239,-5.0122 -10.82476,-10.0244 -16.23716,-15.0366 -1.97056,-2.1302 -5.57853,-0.825 -6.05195,1.9245 -0.78057,2.2366 0.82368,4.0989 2.53143,5.2711 5.28283,4.8973 10.56565,9.7947 15.84849,14.69205 -0.48452,10.38496 -0.96904,20.76984 -1.45356,31.15472 -0.35903,2.8832 2.96926,4.80136 5.37882,3.38912 3.03369,-1.18384 2.31018,-4.67544 2.48654,-7.23112 0.42259,-9.06456 0.8451,-18.12904 1.26774,-27.1936 6.83798,-6.41657 13.72796,-12.77997 20.533294,-19.22977 1.90932,-2.2633 0.135648,-6.3239 -2.907112,-6.21 z"/>
    </g>
  </g>
</svg>
