<?xml version="1.0" encoding="UTF-8" standalone="no"?>
<svg
   version="1.1"
   width="72.0mm"
   viewBox="0 0 72.0 72.0"
   height="72.0mm"
   id="svg1"
   sodipodi:docname="apeja.svg"
   inkscape:version="1.3.2 (091e20e, 2023-11-25, custom)"
   xmlns:inkscape="http://www.inkscape.org/namespaces/inkscape"
   xmlns:sodipodi="http://sodipodi.sourceforge.net/DTD/sodipodi-0.dtd"
   xmlns="http://www.w3.org/2000/svg"
   xmlns:svg="http://www.w3.org/2000/svg">
  <defs
     id="defs2" />
  <sodipodi:namedview
     id="namedview1"
     pagecolor="#ffffff"
     bordercolor="#000000"
     borderopacity="0.25"
     inkscape:showpageshadow="2"
     inkscape:pageopacity="0.0"
     inkscape:pagecheckerboard="0"
     inkscape:deskcolor="#d1d1d1"
     inkscape:document-units="mm"
     inkscape:zoom="1.0562714"
     inkscape:cx="71.004476"
     inkscape:cy="269.34364"
     inkscape:window-width="1920"
     inkscape:window-height="1009"
     inkscape:window-x="-8"
     inkscape:window-y="-8"
     inkscape:window-maximized="1"
     inkscape:current-layer="svg1" />
  <path
     id="path2"
     style="color:#000000;fill:#000000;stroke-linecap:round;stroke-linejoin:round;-inkscape-stroke:none"
     d="m 52.748771,5.920948 c -1.434869,-0.028639 -2.89584,0.1843864 -4.322733,0.6650761 -6.522941,2.1974386 -10.228809,9.2800349 -8.038269,15.7824989 2.190541,6.502465 9.42699,9.899294 15.949931,7.701856 6.522941,-2.197439 10.22881,-9.280035 8.03827,-15.7825 C 62.66461,9.2078287 57.873308,6.0232299 52.748771,5.920948 Z M 20.749691,6.0971648 C 19.314821,6.0685252 17.853851,6.2815503 16.426957,6.76224 9.9040172,8.9596783 6.1981481,16.042275 8.3886886,22.544739 10.579229,29.047204 17.815679,32.444033 24.33862,30.246595 30.861561,28.049156 34.567429,20.966044 32.376889,14.463579 30.665529,9.3835288 25.874227,6.199447 20.749691,6.0971648 Z m 31.634246,7.4036822 c 2.174754,-0.08818 4.108429,1.190377 4.789888,3.213241 0.838719,2.489678 -0.51554,5.227086 -3.262851,6.152595 -2.747311,0.92551 -5.482341,-0.43469 -6.32106,-2.924368 -0.83872,-2.48968 0.515021,-5.229154 3.262332,-6.154664 0.515122,-0.173533 1.029824,-0.266454 1.531691,-0.286804 z m -31.998564,0.177767 c 2.1746,-0.08864 4.107912,1.18831 4.789371,3.211174 0.838719,2.489678 -0.515022,5.229152 -3.262333,6.154662 -2.74731,0.92551 -5.482859,-0.43624 -6.321578,-2.925919 -0.838719,-2.489679 0.51554,-5.227086 3.26285,-6.152596 0.515121,-0.173533 1.029859,-0.266866 1.53169,-0.287321 z m 15.898771,14.973763 a 3.80038,3.80038 0 0 0 -1.086756,0.331246 L 7.2616257,42.345081 a 3.8,3.8 0 0 0 -1.7890381,5.067908 3.8,3.8 0 0 0 5.0663574,1.789555 L 36.818478,36.631735 61.431446,48.655291 a 3.8,3.8 0 0 0 5.082377,-1.746147 3.8,3.8 0 0 0 -1.746147,-5.081861 L 38.504163,28.997058 a 3.80038,3.80038 0 0 0 -2.220019,-0.344681 z m 0.919323,12.61215 c -1.43487,-0.02864 -2.89584,0.184386 -4.322733,0.665076 -6.522941,2.197439 -10.22881,9.280551 -8.038269,15.783016 2.19054,6.502465 9.426473,9.898777 15.949414,7.701339 6.52294,-2.197439 10.22881,-9.280035 8.038269,-15.7825 -1.71136,-5.08005 -6.502144,-8.264648 -11.626681,-8.366931 z m -0.364835,7.579899 c 2.174754,-0.08818 4.107912,1.190377 4.789372,3.213241 0.838719,2.489678 -0.51554,5.227086 -3.26285,6.152596 -2.747312,0.92551 -5.482343,-0.434174 -6.321062,-2.923852 -0.838719,-2.48968 0.515539,-5.229153 3.26285,-6.154664 0.515121,-0.173533 1.029823,-0.266971 1.53169,-0.287321 z" />
</svg>
