<?xml version='1.0' encoding='ASCII' standalone='yes'?>
<svg xmlns="http://www.w3.org/2000/svg" xmlns:xlink="http://www.w3.org/1999/xlink" version="1.1" width="72.0mm" viewBox="0 0 72.0 72.0" height="72.0mm">
  <g transform="translate(3.820152499999999, 10.3765335) scale(1 1) ">
    <defs id="defs1"/>
    <g id="layer1" transform="translate(60.530189,1021.337)">
      <path id="path17" style="color:#000000;fill:#000000;stroke:none;stroke-width:1;stroke-linecap:round;stroke-linejoin:round;-inkscape-stroke:none" d="m -28.858772,-1021.3355 c -3.422488,-0.09 -4.0484,3.8756 -4.76776,6.416 -3.528784,12.1621 -7.057568,24.32419 -10.586344,36.48619 -4.585664,0.15744 -9.205856,-0.0538 -13.768848,0.34712 -2.933224,0.55168 -3.271432,4.51992 -1.338672,6.342 2.035344,2.21768 5.217152,0.75032 7.812344,1.09424 3.78596,-0.13728 7.607416,0.0826 11.369832,-0.29488 2.887504,-1.12944 2.918192,-4.66824 3.837192,-7.2076 2.449336,-8.43128 4.898656,-16.86264 7.347992,-25.29387 2.901448,10.35627 5.71152,20.74091 8.67032,31.07947 1.591072,3.19888 5.721048,2.0216 8.598176,2.23032 4.2932,-0.047 8.604816,0.15456 12.886104,-0.12528 3.874984,-0.78016 3.283336,-7.33032 -0.585024,-7.5792 -4.821552,0.0518 -9.6494,0.01 -14.473472,0.024 -3.775272,-13.56816 -7.550544,-27.13631 -11.325816,-40.70451 -0.416352,-1.6153 -2.008352,-2.8331 -3.676056,-2.8129 z"/>
    </g>
  </g>
</svg>
