<?xml version='1.0' encoding='ASCII' standalone='yes'?>
<svg xmlns="http://www.w3.org/2000/svg" xmlns:xlink="http://www.w3.org/1999/xlink" version="1.1" width="72.0mm" viewBox="0 0 72.0 72.0" height="72.0mm">
  <g transform="translate(20.054612, -10.729965) scale(1 1) ">
    <defs id="defs1"/>
    <g id="layer1" transform="translate(686.63942,-667.98021)">
      <path id="path277-1" style="color:#000000;fill:#000000;stroke:none;stroke-width:1;stroke-linecap:round;stroke-linejoin:round;-inkscape-stroke:none" d="m -677.86845,761.43688 c 9.25998,-0.048 15.23284,-8.74656 18.06276,-16.60915 5.80312,-16.31597 6.30445,-34.29581 3.06585,-51.21178 -2.10284,-9.27418 -5.7102,-19.94314 -14.98203,-24.264 -4.74765,-1.88851 -9.8913,-1.27613 -14.91753,-1.27987 v 7.67952 c 3.2014,0.007 6.40312,9.6e-4 9.60439,0.0192 6.53264,1.10985 9.37017,8.24237 11.29109,13.81622 4.58755,16.05811 4.33305,33.49181 -0.21336,49.52995 -1.94585,5.55975 -4.35201,12.47396 -10.47255,14.5058 l -0.70445,0.10944 -0.7342,0.0384 c -2.92371,-0.002 -5.84717,0 -8.77094,0 v 7.66953 z"/>
    </g>
  </g>
</svg>
