<?xml version='1.0' encoding='ASCII' standalone='yes'?>
<svg xmlns="http://www.w3.org/2000/svg" xmlns:xlink="http://www.w3.org/1999/xlink" version="1.1" width="72.0mm" viewBox="0 0 72.0 72.0" height="72.0mm">
  <g transform="translate(12.423008, 3.820281999999999) scale(1 1) ">
    <defs id="defs1"/>
    <g id="layer1" transform="translate(-34.305647,1026.3942)">
      <path id="path74-2" style="color:#000000;fill:#000000;stroke:none;stroke-width:1;stroke-linecap:round;stroke-linejoin:round;-inkscape-stroke:none" d="m 55.605904,-1026.3923 c -1.002334,-0.031 -2.015822,0.3088 -2.743502,1.0288 -2.545157,2.2954 -0.59144,5.2897 1.348239,7.058 6.150613,6.5661 12.300973,13.132 18.451586,19.69803 -6.987543,9.79368 -13.974991,19.58792 -20.962544,29.38168 -3.302297,5.32104 5.078422,8.07936 7.059,3.31968 7.328153,-10.26912 14.656552,-20.53832 21.984705,-30.80744 1.472928,-1.90576 0.473125,-4.39065 -1.182874,-5.77795 -7.093233,-7.5678 -14.186595,-15.1357 -21.279838,-22.7035 -0.681599,-0.764 -1.672438,-1.1661 -2.674772,-1.1973 z m -16.63206,1.4231 c -1.002334,-0.031 -2.015822,0.3084 -2.743501,1.0284 -2.545158,2.2954 -0.59144,5.2897 1.348238,7.058 6.150614,6.5661 12.300973,13.1324 18.451587,19.69853 -6.987543,9.79368 -13.974992,19.58736 -20.962545,29.38112 -3.302297,5.32104 5.078423,8.07936 7.059001,3.31968 7.328152,-10.26904 14.656552,-20.53776 21.984704,-30.80688 1.472929,-1.90576 0.473125,-4.39112 -1.182873,-5.77845 -7.093233,-7.5678 -14.186595,-15.1353 -21.279838,-22.703 -0.6816,-0.764 -1.672439,-1.1661 -2.674773,-1.1974 z"/>
    </g>
  </g>
</svg>
