<?xml version="1.0" encoding="UTF-8" standalone="no"?>
<svg
   version="1.1"
   width="72.0mm"
   viewBox="0 0 72.0 72.0"
   height="72.0mm"
   id="svg1"
   sodipodi:docname="e.svg"
   inkscape:version="1.3.2 (091e20e, 2023-11-25, custom)"
   xmlns:inkscape="http://www.inkscape.org/namespaces/inkscape"
   xmlns:sodipodi="http://sodipodi.sourceforge.net/DTD/sodipodi-0.dtd"
   xmlns="http://www.w3.org/2000/svg"
   xmlns:svg="http://www.w3.org/2000/svg">
  <defs
     id="defs2" />
  <sodipodi:namedview
     id="namedview1"
     pagecolor="#ffffff"
     bordercolor="#000000"
     borderopacity="0.25"
     inkscape:showpageshadow="2"
     inkscape:pageopacity="0.0"
     inkscape:pagecheckerboard="0"
     inkscape:deskcolor="#d1d1d1"
     inkscape:document-units="mm"
     inkscape:zoom="0.26406786"
     inkscape:cx="-90.885729"
     inkscape:cy="569.92926"
     inkscape:window-width="1920"
     inkscape:window-height="1009"
     inkscape:window-x="-8"
     inkscape:window-y="-8"
     inkscape:window-maximized="1"
     inkscape:current-layer="svg1" />
  <path
     id="path2"
     style="color:#000000;fill:#000000;stroke-linecap:round;stroke-linejoin:round;-inkscape-stroke:none"
     d="m 15.557907,-2.2262207 a 3.8500049,3.8500049 0 0 0 -1.420585,0.4904093 3.8500049,3.8500049 0 0 0 -1.382344,5.2658285 L 31.71351,36.000387 12.754978,68.471273 a 3.8500049,3.8500049 0 0 0 1.382344,5.265828 3.8500049,3.8500049 0 0 0 5.265829,-1.382861 L 39.497015,37.94187 a 3.8503899,3.8503899 0 0 0 0,-3.882967 L 19.405218,-0.35295003 a 3.8500049,3.8500049 0 0 0 -2.347661,-1.78335367 3.8500049,3.8500049 0 0 0 -1.49965,-0.089917 z m 19.748149,0 a 3.8500049,3.8500049 0 0 0 -1.420068,0.4904093 3.8500049,3.8500049 0 0 0 -1.382862,5.2658285 l 18.95905,32.4703699 -18.95905,32.470886 a 3.8500049,3.8500049 0 0 0 1.382862,5.265828 3.8500049,3.8500049 0 0 0 5.265311,-1.382861 L 59.245163,37.94187 a 3.8503899,3.8503899 0 0 0 0,-3.882967 L 39.153366,-0.35295003 a 3.8500049,3.8500049 0 0 0 -2.34766,-1.78335367 3.8500049,3.8500049 0 0 0 -1.49965,-0.089917 z" />
</svg>
