<?xml version='1.0' encoding='ASCII' standalone='yes'?>
<svg xmlns="http://www.w3.org/2000/svg" xmlns:xlink="http://www.w3.org/1999/xlink" version="1.1" width="72.0mm" viewBox="0 0 72.0 72.0" height="72.0mm">
  <g transform="translate(18.117216, 13.355093) scale(1 1) ">
    <defs id="defs1"/>
    <g id="layer1" transform="translate(-137.74836,1017.5029)">
      <path id="path19" style="color:#000000;fill:#000000;stroke:none;stroke-width:1;stroke-linecap:round;stroke-linejoin:round;-inkscape-stroke:none" d="m 155.79226,-1017.4908 c -3.10339,-0.2311 -4.21959,2.8897 -4.08864,5.4112 -0.16704,3.8385 -0.33312,7.677 -0.50016,11.5155 -3.14525,-0.2299 -6.2905,-0.4597 -9.43575,-0.6895 -4.94774,-0.6012 -5.54793,7.51685 -0.56544,7.64973 3.22292,0.23472 6.44592,0.46968 9.66884,0.70448 -0.24192,5.59592 -0.48288,11.19184 -0.7248,16.78784 -0.44448,4.95664 7.67731,5.31464 7.66963,0.33728 0.24192,-5.52152 0.48288,-11.04304 0.7248,-16.56456 3.64627,0.26624 7.29264,0.53256 10.93891,0.79872 4.70371,0.57744 5.55898,-6.784 1.15517,-7.55856 -3.90855,-0.3936 -7.83936,-0.5896 -11.75674,-0.90483 0.17568,-4.6927 0.47136,-9.3847 0.57024,-14.0778 -0.17568,-1.8413 -1.80768,-3.3633 -3.65673,-3.4095 z"/>
    </g>
  </g>
</svg>
