<?xml version='1.0' encoding='ASCII' standalone='yes'?>
<svg xmlns="http://www.w3.org/2000/svg" xmlns:xlink="http://www.w3.org/1999/xlink" version="1.1" width="72.0mm" viewBox="0 0 72.0 72.0" height="72.0mm">
  <g transform="translate(8.6456545, 7.532547000000001) scale(1 1) ">
    <defs id="defs1"/>
    <g id="layer1" transform="translate(786.09377,-1254.7102)">
      <path id="path23-4-2" style="color:#000000;fill:#000000;stroke:none;stroke-width:1;stroke-linecap:round;stroke-linejoin:round;-inkscape-stroke:none" d="m -758.01236,1254.7228 c -3.17952,0.1353 -3.64992,3.3948 -3.86624,5.8483 -0.44104,3.4084 -0.88192,6.8167 -1.32296,10.2251 -0.4268,6.2179 8.35512,4.7955 7.79312,-0.4311 0.48224,-3.9936 1.11064,-7.9745 1.49824,-11.9764 -0.0402,-2.1069 -2.0228,-3.8476 -4.10216,-3.6654 z m -22.77568,1.0418 c -4.46216,0.048 -4.43384,5.2344 -2.09016,7.7781 1.87744,2.9239 3.7548,5.8478 5.63224,8.7717 3.16312,4.886 9.6828,-1.1301 6.04176,-4.8257 -2.1396,-3.3226 -4.2792,-6.6452 -6.4188,-9.9678 -0.66944,-1.0726 -1.92248,-1.7349 -3.16504,-1.7563 z m 45.89856,2.8723 c -2.9388,-0.038 -4.34832,2.7471 -6.26464,4.4929 -2.62464,2.7688 -5.24936,5.5376 -7.874,8.3064 -4.03192,4.7808 3.93416,8.8294 6.5628,4.2521 3.46792,-3.7174 7.0524,-7.3337 10.44544,-11.1158 1.60856,-2.2859 -0.0192,-5.7863 -2.8696,-5.9356 z m -46.95032,21.1584 c -4.85272,0.01 -4.36416,5.4192 -4.10056,8.7756 0.77592,9.6647 6.89824,19.4202 16.53072,22.2324 8.18552,2.5662 17.36616,-0.9552 22.57264,-7.5712 3.86984,-4.7389 6.1988,-10.772 6.43216,-16.8895 -0.30824,-5.0269 -8.51464,-4.1228 -7.74736,1.0515 -0.78792,7.2905 -5.68408,14.7717 -13.20728,16.3232 -6.11168,1.3245 -12.17832,-2.7516 -14.77,-8.1494 -1.97832,-3.7624 -2.5008,-8.1078 -2.19168,-12.3007 -0.13776,-1.815 -1.70136,-3.3581 -3.51864,-3.4719 z"/>
    </g>
  </g>
</svg>
