<?xml version='1.0' encoding='ASCII' standalone='yes'?>
<svg xmlns="http://www.w3.org/2000/svg" xmlns:xlink="http://www.w3.org/1999/xlink" version="1.1" width="72.0mm" viewBox="0 0 72.0 72.0" height="72.0mm">
  <g transform="translate(11.336364499999998, 12.384874499999999) scale(1 1) ">
    <defs id="defs1"/>
    <g id="layer1" transform="translate(-220.67283,1017.9411)">
      <path style="color:#000000;fill:#000000;stroke:none;stroke-width:1;stroke-linecap:round;stroke-linejoin:round;-inkscape-stroke:none" d="m 256.81603,-1017.4914 c -4.97223,-0.038 -8.72313,4.0203 -10.73079,8.1939 -1.06386,1.5765 -1.22418,4.7191 -2.4264,5.4711 -2.51328,-0.907 -4.25337,-3.0873 -6.25746,-4.7634 -2.77633,-2.593 -5.42083,-5.3229 -8.01658,-8.0954 -3.21024,-3.7621 -9.14976,1.8002 -5.60592,5.25 4.32595,4.5721 8.69212,9.1732 13.68931,13.02077 1.61529,0.93376 5.13936,0.91696 3.22617,3.5128 -0.98947,1.60328 -1.00512,6.01232 -3.45417,3.60488 -5.1382,-3.14912 -12.62121,-0.84216 -15.25507,4.54744 -2.55207,4.54672 -1.34957,11.11672 3.32601,13.796 4.25329,2.44728 10.31011,2.26592 13.76947,-1.49768 1.63278,-1.19528 2.55072,-4.15472 3.89223,-4.79888 5.30381,3.54456 10.68624,7.77496 17.237,8.49504 3.2686,0.2544 6.96997,-0.56736 9.1368,-3.1848 2.62261,-3.85744 -3.28829,-8.10304 -6.4296,-4.60952 -2.76932,0.80584 -5.50427,-0.86656 -7.9104,-2.06416 -3.21984,-1.79464 -6.20487,-3.96952 -9.25239,-6.0344 1.02,-2.17904 1.70007,-5.36184 2.94327,-6.91056 1.79568,0.8868 3.50112,2.6212 5.68876,1.84032 7.1904,-1.23296 12.94032,-7.57584 14.26464,-14.62615 0.78336,-4.0284 -1.43097,-8.4087 -5.29824,-9.923 -2.04825,-0.9059 -4.31145,-1.2193 -6.53664,-1.2243 z m 0,7.6687 c 2.22653,-0.3691 5.57481,0.8806 3.88157,3.6375 -1.44797,3.0924 -4.2096,5.6439 -7.42244,6.80909 -1.87257,0.47504 -3.00796,-1.14269 -1.77493,-2.68449 0.94176,-2.8008 2.01273,-5.9521 4.61308,-7.6358 l 0.33792,-0.1001 0.3648,-0.026 z m -23.9062,24.88131 c 1.7829,0.67168 4.46784,1.55472 2.19523,3.482 -1.07367,2.25464 -4.15786,3.33184 -6.17031,1.67424 -1.80796,-2.30384 0.87168,-5.998 3.66585,-5.20336 l 0.30912,0.047 z" id="path21"/>
    </g>
  </g>
</svg>
