<?xml version="1.0" encoding="UTF-8" standalone="no"?>
<svg
   version="1.1"
   width="72.0mm"
   viewBox="0 0 72.0 72.0"
   height="72.0mm"
   id="svg1"
   sodipodi:docname="i.svg"
   inkscape:version="1.3.2 (091e20e, 2023-11-25, custom)"
   xmlns:inkscape="http://www.inkscape.org/namespaces/inkscape"
   xmlns:sodipodi="http://sodipodi.sourceforge.net/DTD/sodipodi-0.dtd"
   xmlns="http://www.w3.org/2000/svg"
   xmlns:svg="http://www.w3.org/2000/svg">
  <defs
     id="defs2" />
  <sodipodi:namedview
     id="namedview1"
     pagecolor="#ffffff"
     bordercolor="#000000"
     borderopacity="0.25"
     inkscape:showpageshadow="2"
     inkscape:pageopacity="0.0"
     inkscape:pagecheckerboard="0"
     inkscape:deskcolor="#d1d1d1"
     inkscape:document-units="mm"
     inkscape:zoom="1.4937934"
     inkscape:cx="120.49859"
     inkscape:cy="152.96627"
     inkscape:window-width="1920"
     inkscape:window-height="1009"
     inkscape:window-x="-8"
     inkscape:window-y="-8"
     inkscape:window-maximized="1"
     inkscape:current-layer="svg1" />
  <g
     transform="translate(31.986059,16.676535)"
     id="g1">
    <defs
       id="defs1" />
    <g
       id="layer1"
       transform="translate(398.23054,-705.34811)">
      <path
         id="path274-1"
         style="color:#000000;fill:#000000;stroke:none;stroke-width:1;stroke-linecap:round;stroke-linejoin:round;-inkscape-stroke:none"
         d="m -394.74278,705.35848 c -4.18114,0.14784 -4.49352,5.75961 -1.52338,7.76851 3.61647,2.76931 7.97926,-2.5273 5.16204,-5.64874 -0.72836,-1.29408 -2.1125,-2.24044 -3.63866,-2.11977 z m 0.42662,12.91334 c -2.94096,-0.0998 -4.08408,2.86455 -3.84473,5.30506 0,8.86291 0,17.72592 0,26.58883 -0.23616,4.7665 7.2636,5.02848 7.65092,0.5472 0.0883,-5.21242 0.0144,-10.43069 0.0384,-15.64541 0,-4.32365 0,-8.64739 0,-12.97104 0.0422,-2.05315 -1.79187,-3.87725 -3.84474,-3.82483 z" />
    </g>
  </g>
</svg>
