<?xml version='1.0' encoding='ASCII' standalone='yes'?>
<svg xmlns="http://www.w3.org/2000/svg" xmlns:xlink="http://www.w3.org/1999/xlink" version="1.1" width="72.0mm" viewBox="0 0 72.0 72.0" height="72.0mm">
  <g transform="translate(10.504771999999999, 8.759529) scale(1 1) ">
    <defs id="defs1"/>
    <g id="layer1" transform="translate(-313.59745,1023.2915)">
      <path style="color:#000000;fill:#000000;stroke:none;stroke-width:0.999336;stroke-linecap:round;stroke-linejoin:round;-inkscape-stroke:none" d="m 355.05139,-1018.1072 c -7.39315,-6.1075 -18.01843,-6.721 -26.19927,-2.3559 -10.08373,5.077 -16.47273,17.1253 -15.05952,28.90451 0.8832,9.18544 6.87908,17.70616 15.16224,21.00024 9.89693,4.15776 21.70043,0.6092 28.56951,-7.59008 7.23044,-8.20032 9.32823,-21.20352 4.33152,-31.36337 -1.61673,-3.3495 -3.96028,-6.3139 -6.80448,-8.5954 z m -4.50538,6.2289 c 6.41943,5.0185 8.21923,14.76291 5.11902,22.20227 -3.20315,8.48544 -12.11838,14.46792 -20.90256,12.73456 -7.1016,-1.18816 -12.83453,-7.84672 -13.55357,-15.30888 -1.46112,-11.22045 7.17936,-22.50075 17.94575,-23.16555 4.02163,-0.3112 8.16673,0.9157 11.39136,3.5376 z" id="path22"/>
    </g>
  </g>
</svg>
