<?xml version='1.0' encoding='ASCII' standalone='yes'?>
<svg xmlns="http://www.w3.org/2000/svg" xmlns:xlink="http://www.w3.org/1999/xlink" version="1.1" width="72.0mm" viewBox="0 0 72.0 72.0" height="72.0mm">
  <g transform="translate(13.138582, 20.1578825) scale(1 1) ">
    <defs id="defs1"/>
    <g id="layer1" transform="translate(-406.68757,1009.5084)">
      <path style="color:#000000;fill:#000000;stroke:none;stroke-width:1;stroke-linecap:round;stroke-linejoin:round;-inkscape-stroke:none" d="m 431.64105,-1009.4289 c -7.39794,-0.6911 -14.66784,3.1877 -19.04697,9.0338 -3.42384,4.44691 -5.42487,9.92819 -5.87184,15.50995 -0.64128,5.10224 7.82775,5.49072 7.69036,0.368 0.56736,-6.85752 4.48733,-13.8552 11.1074,-16.44655 4.72473,-1.947 10.38288,-0.4378 13.83705,3.23375 4.08942,4.1416 5.76259,10.20776 5.2777,15.91976 -0.58176,5.37608 8.28432,5.268 7.71533,-0.0461 0.60576,-9.30928 -3.36221,-19.25441 -11.37321,-24.41371 -2.79159,-1.7968 -6.02459,-2.9002 -9.33582,-3.1589 z" id="path23-4-2-9"/>
    </g>
  </g>
</svg>
