<?xml version='1.0' encoding='ASCII' standalone='yes'?>
<svg xmlns="http://www.w3.org/2000/svg" xmlns:xlink="http://www.w3.org/1999/xlink" version="1.1" width="72.0mm" viewBox="0 0 72.0 72.0" height="72.0mm">
  <g transform="translate(12.7618425, 10.8388235) scale(1 1) ">
    <defs id="defs1"/>
    <g id="layer1" transform="translate(-501.24204,1018.4499)">
      <path id="path24" style="color:#000000;fill:#000000;stroke:none;stroke-width:1;stroke-linecap:round;stroke-linejoin:round;-inkscape-stroke:none" d="m 505.14153,-1018.4483 c -3.41951,-0.086 -4.0728,3.4233 -3.86457,6.0387 0,7.0193 0,14.03861 0,21.05805 -0.0672,3.3296 3.33936,4.0088 5.9086,3.8888 3.51888,0.10272 7.03787,0.20544 10.55675,0.30808 -0.52608,4.97584 -1.05168,9.95168 -1.57758,14.92752 -0.74591,5.19416 7.87297,5.59168 7.69278,0.39448 0.52992,-5.03288 1.05936,-10.06584 1.58908,-15.0988 3.93072,0.11424 7.86144,0.22824 11.79216,0.34232 2.92137,0.18672 3.88301,-2.67568 4.38672,-4.94936 1.97568,-7.25176 3.95136,-14.50359 5.92704,-21.75529 0.9312,-3.1037 -2.23852,-5.3071 -5.02732,-4.8625 -12.46119,-0.097 -24.92247,-0.1947 -37.38366,-0.292 z m 3.80496,7.7094 c 3.75706,0.03 7.51422,0.059 11.27127,0.089 -0.55776,5.2801 -1.11456,10.5602 -1.67184,15.84027 -3.19977,-0.0922 -6.39965,-0.18528 -9.59943,-0.27776 0,-5.21731 0,-10.43451 0,-15.65171 z m 18.98554,0.1538 c 3.63476,0.03 7.26941,0.059 10.90416,0.089 -1.46352,5.381 -2.92695,10.76191 -4.39047,16.14287 -2.73177,-0.0797 -5.46364,-0.15888 -8.19541,-0.23808 0.56064,-5.33128 1.12117,-10.66269 1.68172,-15.99399 z"/>
    </g>
  </g>
</svg>
