<?xml version='1.0' encoding='ASCII' standalone='yes'?>
<svg xmlns="http://www.w3.org/2000/svg" xmlns:xlink="http://www.w3.org/1999/xlink" version="1.1" width="72.0mm" viewBox="0 0 72.0 72.0" height="72.0mm">
  <g transform="translate(10.942734000000002, 21.2181275) scale(1 1) ">
    <defs id="defs1"/>
    <g id="layer1" transform="translate(-588.68442,1011.3193)">
      <path id="path5-6-5-8" style="color:#000000;fill:#000000;stroke:none;stroke-width:1;stroke-linecap:round;stroke-linejoin:round;-inkscape-stroke:none" d="m 613.64716,-1011.3144 c -4.64668,0.075 -4.57948,6.6887 -1.16899,8.4178 3.37056,1.7975 6.76647,-2.3499 5.04451,-5.3901 -0.4752,-1.7148 -2.00217,-3.1271 -3.87552,-3.0277 z m -20.90544,6.7022 c -3.11433,-0.1237 -4.11417,3.0378 -3.90393,5.55473 -0.048,4.462 -0.0998,8.92408 -0.14976,13.38616 -0.12384,3.03856 2.96553,4.13728 5.45337,3.87944 12.89472,0 25.78944,0 38.68416,0 2.91236,0.10272 3.87677,-2.76624 4.06992,-5.10424 0.6192,-4.27512 1.36109,-8.53656 1.90139,-12.82056 0.15072,-4.93973 -7.92509,-4.88793 -7.7427,0.14528 -0.50976,3.36328 -1.01846,6.72672 -1.52765,10.09 -11.03644,0 -22.07289,0 -33.10933,0 0.0192,-3.94912 0.15072,-7.9016 0.0864,-11.84861 -0.23712,-1.832 -1.91943,-3.2965 -3.76397,-3.2822 z"/>
    </g>
  </g>
</svg>
