<?xml version="1.0" encoding="UTF-8" standalone="no"?>
<svg
   version="1.1"
   width="72.0mm"
   viewBox="0 0 72.0 72.0"
   height="72.0mm"
   id="svg1"
   sodipodi:docname="j.svg"
   inkscape:version="1.3.2 (091e20e, 2023-11-25, custom)"
   xmlns:inkscape="http://www.inkscape.org/namespaces/inkscape"
   xmlns:sodipodi="http://sodipodi.sourceforge.net/DTD/sodipodi-0.dtd"
   xmlns="http://www.w3.org/2000/svg"
   xmlns:svg="http://www.w3.org/2000/svg">
  <defs
     id="defs2" />
  <sodipodi:namedview
     id="namedview1"
     pagecolor="#ffffff"
     bordercolor="#000000"
     borderopacity="0.25"
     inkscape:showpageshadow="2"
     inkscape:pageopacity="0.0"
     inkscape:pagecheckerboard="0"
     inkscape:deskcolor="#d1d1d1"
     inkscape:document-units="mm"
     inkscape:zoom="1.0562714"
     inkscape:cx="99.406266"
     inkscape:cy="180.35137"
     inkscape:window-width="1920"
     inkscape:window-height="1009"
     inkscape:window-x="-8"
     inkscape:window-y="-8"
     inkscape:window-maximized="1"
     inkscape:current-layer="svg1" />
  <g
     transform="translate(31.922231,16.676534)"
     id="g1">
    <defs
       id="defs1" />
    <g
       id="layer1"
       transform="translate(307.25719,-705.35128)">
      <path
         id="path274-1-4"
         style="color:#000000;fill:#000000;stroke:none;stroke-width:1;stroke-linecap:round;stroke-linejoin:round;-inkscape-stroke:none"
         d="m -303.54092,705.35349 c -3.08408,-0.048 -4.86021,3.9718 -2.88416,6.27676 1.1604,2.59968 5.15599,2.95872 6.67451,0.50784 1.63889,-2.31331 -0.0614,-5.67926 -2.48451,-6.6 -0.42009,-0.13632 -0.86677,-0.20064 -1.30584,-0.18432 z m 0.36709,12.91833 c -3.34758,-0.0768 -4.06669,3.3625 -3.83977,5.94279 0,15.80572 0,31.61136 0,47.41699 -0.071,5.65536 8.5518,4.44057 7.68451,-0.56448 0,-16.32346 0,-32.64682 0,-48.97018 0.048,-2.04806 -1.79691,-3.88368 -3.84474,-3.82483 z" />
    </g>
  </g>
</svg>
