<?xml version='1.0' encoding='ASCII' standalone='yes'?>
<svg xmlns="http://www.w3.org/2000/svg" xmlns:xlink="http://www.w3.org/1999/xlink" version="1.1" width="72.0mm" viewBox="0 0 72.0 72.0" height="72.0mm">
  <g transform="translate(9.3304975, 5.948055499999999) scale(1 1) ">
    <defs id="defs1"/>
    <g id="layer1" transform="translate(-678.52793,1028.8216)">
      <path id="path27" style="color:#000000;fill:#000000;stroke:none;stroke-width:1;stroke-linecap:round;stroke-linejoin:round;-inkscape-stroke:none" d="m 694.67904,-1028.8216 c -4.57968,0.3032 -4.13721,5.6352 -1.49079,7.9805 2.18371,2.777 4.36743,5.5541 6.55114,8.3311 -1.38739,1.5346 -2.77479,3.0692 -4.16218,4.6037 -2.53506,-3.4131 -5.07005,-6.8262 -7.60512,-10.2392 -3.38514,-4.5658 -9.6141,1.8276 -5.57693,5.3683 2.6427,3.56 5.28539,7.1201 7.92807,10.6802 -3.58339,3.96209 -7.16688,7.92425 -10.75027,11.88641 -3.55364,4.16616 2.83671,8.39952 6.03801,5.06392 3.86439,-2.56112 7.72878,-5.12224 11.59315,-7.68328 0.94944,0.79016 -0.72288,1.50136 -1.05388,2.25296 -4.41965,5.21536 -8.83929,10.43072 -13.25895,15.64608 -3.44688,4.14136 2.91015,8.34088 6.04551,5.00568 5.56848,-3.84808 11.13687,-7.69616 16.70535,-11.54424 2.49205,3.35528 4.98412,6.71056 7.47618,10.06576 3.38334,4.64016 9.53962,-1.61344 5.78323,-5.09016 -2.31292,-3.11376 -4.62595,-6.22744 -6.93888,-9.3412 1.89015,-1.30472 3.7802,-2.60944 5.67035,-3.91416 1.82562,2.32176 3.65125,4.64344 5.47689,6.9652 3.61843,4.5524 9.50583,-2.0484 5.54035,-5.37456 -1.56403,-1.98864 -3.12807,-3.97744 -4.6921,-5.96616 2.23123,-1.57992 4.54272,-3.05344 6.71847,-4.70688 3.84019,-3.76587 -2.54861,-8.92977 -5.92628,-5.15847 -1.84656,1.276 -3.69321,2.5519 -5.53987,3.8279 -0.77568,-0.9872 -1.55106,-1.9745 -2.32665,-2.9617 1.88851,-2.2274 3.77692,-4.4548 5.66544,-6.6824 3.44764,-4.828 -3.49497,-8.0286 -6.65433,-4.6156 -1.73088,1.1449 -3.46167,2.2899 -5.19246,3.4349 -0.95712,-0.7851 -1.01405,-1.5388 0.048,-2.2537 1.5432,-1.8474 3.42355,-3.4524 4.67434,-5.5112 1.92393,-4.4384 -4.96138,-7.2884 -7.1641,-3.1728 -1.09766,1.2134 -2.19542,2.4268 -3.29309,3.6402 -2.37628,-3.0229 -4.75257,-6.0457 -7.12885,-9.0686 l -1.40171,-1.1122 -1.75353,-0.3562 z m 17.14003,31.67565 c 0.792,0.8152 1.42848,1.6068 0.002,2.0856 -1.42492,0.98488 -2.84995,1.96976 -4.27488,2.95472 1.42377,-1.68016 2.84756,-3.36024 4.27133,-5.04032 z"/>
    </g>
  </g>
</svg>
