<?xml version='1.0' encoding='ASCII' standalone='yes'?>
<svg xmlns="http://www.w3.org/2000/svg" xmlns:xlink="http://www.w3.org/1999/xlink" version="1.1" width="72.0mm" viewBox="0 0 72.0 72.0" height="72.0mm">
  <g transform="translate(7.484311999999999, 4.147435999999999) scale(1 1) ">
    <defs id="defs1"/>
    <g id="layer1" transform="translate(-765.68478,1025.9884)">
      <path id="path5-6-5-8-3" style="color:#000000;fill:#000000;stroke:none;stroke-width:1;stroke-linecap:round;stroke-linejoin:round;-inkscape-stroke:none" d="m 797.99059,-1025.9789 c -11.06103,0.1368 -21.02995,8.2392 -24.55123,18.543 -2.68724,7.45643 -2.28644,16.06427 1.47792,23.08419 -2.58134,2.0604 -5.16269,4.12088 -7.74404,6.18136 -4.64514,4.27584 2.77614,9.21824 5.98407,5.0388 2.12295,-1.69448 4.24599,-3.38896 6.36893,-5.08344 6.55795,6.64928 17.14791,8.5184 25.6944,4.89272 1.67712,-0.87912 3.22368,-1.94736 4.04688,0.30896 2.16778,3.01704 4.33555,6.03408 6.50332,9.05112 3.61403,4.79688 9.61536,-1.86152 5.62896,-5.31256 -2.40048,-3.3472 -4.80085,-6.6944 -7.20133,-10.0416 9.74179,-9.53464 11.48668,-26.34985 3.04684,-37.26475 -4.47484,-5.9484 -11.78688,-9.6194 -19.25472,-9.3978 z m 0.10944,7.8382 c 7.51584,-0.326 14.48217,5.2836 16.34928,12.4718 3.23981,10.69159 -3.70791,23.43191 -14.73264,25.90039 -6.82704,1.73016 -14.42265,-1.58344 -17.90169,-7.67392 -5.44455,-8.96216 -2.16759,-21.56847 6.37853,-27.38187 2.89161,-2.0251 6.3672,-3.2436 9.90652,-3.3164 z m -8.33433,9.3663 c -5.89815,-0.1731 -5.10883,10.74381 1.0077,8.6303 3.54366,-1.3661 3.80621,-7.9097 -0.408,-8.5708 l -0.6,-0.059 z m 17.15981,0 c -5.90228,-0.1803 -5.11671,10.74445 1.00281,8.6303 3.54364,-1.3661 3.8062,-7.9096 -0.408,-8.5708 l -0.5952,-0.059 z"/>
    </g>
  </g>
</svg>
