<?xml version='1.0' encoding='ASCII' standalone='yes'?>
<svg xmlns="http://www.w3.org/2000/svg" xmlns:xlink="http://www.w3.org/1999/xlink" version="1.1" width="72.0mm" viewBox="0 0 72.0 72.0" height="72.0mm">
  <g transform="translate(8.157523999999999, 3.315956) scale(1 1) ">
    <defs id="defs1"/>
    <g id="layer1" transform="translate(698.22482,-1250.8785)">
      <path id="path57-2-8" style="color:#000000;fill:#000000;stroke:none;stroke-width:1;stroke-linecap:round;stroke-linejoin:round;-inkscape-stroke:none" d="m -664.70709,1250.9029 c -3.70745,-0.3658 -4.35516,3.4606 -4.43208,6.2085 -0.26891,2.9476 -0.5378,5.8952 -0.8067,8.8429 -3.31865,-4.1784 -9.37758,-5.1648 -14.1585,-3.1366 -7.11311,2.5437 -11.96492,9.2569 -13.97993,16.3228 -1.34614,5.5838 7.41414,6.2636 7.75104,0.9717 1.86093,-5.2508 6.20426,-10.5643 12.18474,-10.706 2.86758,0.8928 4.02912,4.1125 5.64653,6.3807 1.27255,1.3363 1.67002,2.8552 1.24099,4.611 -0.19656,2.1558 -0.39321,4.3114 -0.58981,6.4669 -5.10851,-3.8837 -12.30059,-1.9959 -16.95003,1.7001 -4.10949,3.2488 -6.91868,7.9644 -8.34578,12.9645 -1.40799,5.4663 7.4495,6.4152 7.7373,1.0072 1.7655,-4.9891 5.8682,-10.0684 11.54484,-10.2321 2.49272,0.86 3.9912,3.72 4.98035,5.9312 -0.42452,4.66 -0.84903,9.3198 -1.27352,13.9797 -0.439,5.8835 8.41829,4.9411 7.74344,-0.3332 0.19704,-2.161 0.39397,-4.322 0.59088,-6.4829 6.6183,3.3783 14.96424,-0.098 18.87906,-6.0136 1.78866,-2.8156 3.54147,-6.0216 3.4833,-9.4232 -1.36739,-5.372 -8.19707,-2.5349 -8.23271,2.1271 -1.37877,3.7754 -4.72113,7.3163 -9.04884,6.9659 -2.07184,-0.1766 -4.64467,-2.2376 -4.09267,-4.4872 0.3289,-3.6162 0.65779,-7.2323 0.98662,-10.8484 7.47281,2.4041 15.6332,-2.2826 19.01234,-9.0162 1.26403,-2.8843 3.69198,-6.6488 1.24867,-9.5284 -3.80733,-3.3931 -6.7822,1.5525 -7.57545,5.0084 -1.52904,3.6633 -4.99411,6.8076 -9.17383,6.5054 -2.02275,0.1315 -3.25485,-1.421 -2.57535,-3.2604 0.53155,-6.3723 1.25935,-12.7366 1.66591,-19.1141 -0.1608,-1.7725 -1.68624,-3.2766 -3.46081,-3.4117 z"/>
    </g>
  </g>
</svg>
