<?xml version='1.0' encoding='ASCII' standalone='yes'?>
<svg xmlns="http://www.w3.org/2000/svg" xmlns:xlink="http://www.w3.org/1999/xlink" version="1.1" width="72.0mm" viewBox="0 0 72.0 72.0" height="72.0mm">
  <g transform="translate(6.068947000000001, 1.832175999999997) scale(1 1) ">
    <defs id="defs1"/>
    <g id="layer1" transform="translate(-859.16893,1029.8276)">
      <path id="path32" style="color:#000000;fill:#000000;stroke:none;stroke-width:1;stroke-linecap:round;stroke-linejoin:round;-inkscape-stroke:none" d="m 892.65024,-1029.7989 c -3.56745,0.3747 -3.48854,4.1351 -3.82905,6.799 -0.45024,3.7182 -0.90048,7.4364 -1.35015,11.1547 -4.53101,1.2189 -8.35872,4.615 -10.27901,8.8751 -4.71619,-0.2596 -9.43248,-0.5193 -14.14867,-0.7789 -5.94096,-0.2009 -4.51373,8.57977 0.65952,7.72953 4.00195,0.21984 8.0038,0.4396 12.00576,0.65944 0.17856,4.50416 2.30122,8.93856 5.8489,11.75248 -3.70915,3.45608 -7.41822,6.91224 -11.12736,10.3684 -3.948,5.31224 3.53961,7.73776 7.40313,9.04984 8.31639,2.71856 17.24937,3.07696 25.90609,2.40336 5.01728,-1.90848 1.66408,-7.35424 -0.12576,-10.4232 -1.95744,-3.42608 -4.32872,-6.6084 -6.98512,-9.5232 4.15232,-1.83584 7.39416,-5.53712 8.77104,-9.85232 3.53664,0.0557 7.0776,0.30384 10.61144,0.2328 5.49448,-1.0904 2.7172,-8.79193 -2.1644,-7.68184 -2.61072,-0.0749 -5.22128,-0.15048 -7.832,-0.2256 -0.83136,-5.78289 -5.10304,-11.04729 -10.81978,-12.56609 0.55776,-4.564 1.11458,-9.1281 1.67186,-13.6921 0.3696,-2.3793 -1.87317,-4.5888 -4.21682,-4.2814 z m -1.29476,25.1024 c 4.95768,-0.054 8.27472,5.49687 6.9552,10.02111 -0.81408,4.63776 -6.23136,8.12552 -10.64898,5.90584 -5.37946,-2.49056 -5.62926,-10.68864 -1.13568,-14.17235 1.34333,-1.116 3.07842,-1.7808 4.82946,-1.7546 z m -3.58185,25.79191 c 2.16077,2.2284 5.38551,6.0852 5.81972,8.19448 -4.18464,-0.22128 -8.38331,-0.77264 -12.38304,-2.0628 2.18773,-2.04392 4.37557,-4.08776 6.56332,-6.13168 z"/>
    </g>
  </g>
</svg>
