<?xml version='1.0' encoding='ASCII' standalone='yes'?>
<svg xmlns="http://www.w3.org/2000/svg" xmlns:xlink="http://www.w3.org/1999/xlink" version="1.1" width="72.0mm" viewBox="0 0 72.0 72.0" height="72.0mm">
  <g transform="translate(9.852765999999999, 7.358612000000001) scale(1 1) ">
    <defs id="defs1"/>
    <g id="layer1" transform="translate(-954.07575,1024.7808)">
      <path id="path32-4" style="color:#000000;fill:#000000;stroke:none;stroke-width:1;stroke-linecap:round;stroke-linejoin:round;-inkscape-stroke:none" d="m 983.23692,-1024.7784 c -8.00432,-0.048 -15.58184,6.5857 -15.966,14.6971 -0.6336,2.6348 2.28088,6.0912 -1.61312,6.7285 -6.09784,3.2964 -11.18272,9.32733 -11.53768,16.48117 -0.5568,7.04056 4.19272,13.63048 10.52888,16.35736 8.61088,3.91176 18.82224,3.90432 27.63568,0.6396 6.92096,-2.4872 12.88292,-8.49104 13.84802,-15.97312 0.84,-3.3028 -0.4954,-8.20864 -4.8493,-7.20824 -7.12504,0.75496 -14.25008,1.51 -21.37504,2.26488 -6.14048,0.9964 -2.77008,9.2616 2.19576,7.50192 4.74984,-0.50624 9.49984,-1.01264 14.24976,-1.51896 -0.8736,2.40408 -1.40016,5.39208 -4.09088,6.4592 -7.40056,3.89736 -16.64824,4.1868 -24.31936,0.884 -3.2696,-1.45808 -6.59336,-4.39056 -6.2264,-8.3092 0.0864,-5.36424 4.80616,-9.00176 9.1128,-11.33616 2.47096,-2.04952 4.48568,2.03784 7.21704,2.1184 7.74528,2.59256 17.00976,-1.61016 20.02392,-9.22785 2.7371,-6.2188 0.31776,-14.0589 -5.3688,-17.7399 -2.7616,-1.8922 -6.12104,-2.8769 -9.46528,-2.8187 z m 0.1392,7.6746 c 4.23456,-0.2909 8.50248,3.3365 8.11944,7.7311 -0.29376,5.6088 -7.07312,8.9912 -11.98928,6.7897 -3.972,-1.4517 -5.89264,-6.6341 -3.61904,-10.2549 1.4924,-2.6489 4.49792,-4.192 7.48888,-4.2659 z"/>
    </g>
  </g>
</svg>
