<?xml version="1.0" encoding="UTF-8" standalone="no"?>
<svg
   version="1.1"
   width="72.0mm"
   viewBox="0 0 72.0 72.0"
   height="72.0mm"
   id="svg1"
   sodipodi:docname="k.svg"
   inkscape:version="1.3.2 (091e20e, 2023-11-25, custom)"
   xmlns:inkscape="http://www.inkscape.org/namespaces/inkscape"
   xmlns:sodipodi="http://sodipodi.sourceforge.net/DTD/sodipodi-0.dtd"
   xmlns="http://www.w3.org/2000/svg"
   xmlns:svg="http://www.w3.org/2000/svg">
  <defs
     id="defs2" />
  <sodipodi:namedview
     id="namedview1"
     pagecolor="#ffffff"
     bordercolor="#000000"
     borderopacity="0.25"
     inkscape:showpageshadow="2"
     inkscape:pageopacity="0.0"
     inkscape:pagecheckerboard="0"
     inkscape:deskcolor="#d1d1d1"
     inkscape:document-units="mm"
     inkscape:zoom="1.0562714"
     inkscape:cx="24.614885"
     inkscape:cy="102.71981"
     inkscape:window-width="1920"
     inkscape:window-height="1009"
     inkscape:window-x="-8"
     inkscape:window-y="-8"
     inkscape:window-maximized="1"
     inkscape:current-layer="svg1" />
  <g
     transform="translate(22.226233,16.831044)"
     id="g1">
    <defs
       id="defs1" />
    <g
       id="layer1"
       transform="translate(223.33137,-705.35133)">
      <path
         id="path16-7"
         style="color:#000000;fill:#000000;stroke:none;stroke-width:1;stroke-linecap:round;stroke-linejoin:round;-inkscape-stroke:none"
         d="m -219.45304,705.35349 c -3.06709,-0.096 -4.08437,3.02025 -3.84472,5.51452 0,12.99831 0,25.99671 0,38.99501 -0.2402,4.71245 7.18038,5.05037 7.62326,0.6 0.0985,-1.83043 0.0221,-3.66768 0.0461,-5.50109 4.89975,1.83389 9.79949,3.66778 14.69924,5.50167 4.32563,1.88131 7.25183,-4.94295 3.24349,-6.924 -4.15157,-1.67482 -8.37874,-3.16992 -12.56013,-4.77389 3.74699,-2.07926 7.55884,-4.05034 11.26408,-6.1993 3.9954,-2.84928 -0.87024,-9.24096 -4.76625,-6.0815 -3.96015,2.15894 -7.92029,4.31789 -11.88043,6.47683 0,-7.92096 0,-15.84192 0,-23.76288 0.047,-2.05939 -1.76546,-3.88022 -3.82489,-3.84509 z" />
    </g>
  </g>
</svg>
