<?xml version='1.0' encoding='ASCII' standalone='yes'?>
<svg xmlns="http://www.w3.org/2000/svg" xmlns:xlink="http://www.w3.org/1999/xlink" version="1.1" width="72.0mm" viewBox="0 0 72.0 72.0" height="72.0mm">
  <g transform="translate(6.911557999999999, 16.863062) scale(1 1) ">
    <defs id="defs1"/>
    <g id="layer1" transform="translate(789.81163,729.64231)">
      <path id="path5-6-5-8-3-51" style="color:#000000;fill:#000000;stroke:none;stroke-width:1;stroke-linecap:round;stroke-linejoin:round;-inkscape-stroke:none" d="m -749.13236,-729.64227 c -9.41976,0.0518 -17.91208,5.40904 -24.32024,11.9496 -1.56912,1.17672 -3.13056,4.92264 -4.41288,1.60192 -2.11672,-2.61424 -3.91728,-5.51224 -6.36544,-7.8356 -4.46552,-2.50816 -7.53024,3.99848 -4.12776,6.71 2.24064,2.97904 4.4988,5.94504 6.80168,8.8764 -2.56344,3.68016 -4.99904,7.44856 -7.35216,11.26624 -2.45472,4.51416 5.24432,7.97016 7.04048,3.16232 1.86112,-2.87328 3.72904,-5.74232 5.61488,-8.59952 5.75304,5.61992 12.87056,10.88024 21.2272,11.13816 9.24112,0.1796 18.74392,-5.25696 22.05936,-14.11104 3.03704,-7.37816 0.82712,-16.92568 -6.06312,-21.3444 -2.97496,-1.9532 -6.56736,-2.82096 -10.102,-2.81408 z m 0.01,7.66464 c 4.26488,-0.29344 8.60552,2.5496 9.48216,6.8432 1.43712,5.58736 -1.71224,11.70248 -6.87992,14.1076 -4.07792,2.06224 -9.03544,2.69472 -13.29832,0.79632 -4.50408,-1.82304 -8.33672,-4.95192 -11.78192,-8.31792 5.26824,-5.9292 11.66672,-11.69528 19.72456,-13.16496 0.9096,-0.15504 1.83032,-0.25312 2.75344,-0.26424 z m 2.19776,6.34008 c -5.8968,-0.17904 -5.11152,10.7152 0.99792,8.61408 3.24352,-1.27968 3.89888,-7.12544 0.24288,-8.37856 l -0.64544,-0.17592 v 0 l -0.59536,-0.0595 z m -10.50232,1.53784 c -6.01456,-0.16224 -4.9328,10.68792 0.99992,8.616 3.24568,-1.27688 3.89472,-7.12336 0.24528,-8.37976 l -0.64496,-0.17664 -0.60024,-0.0595 z"/>
    </g>
  </g>
</svg>
