<?xml version='1.0' encoding='ASCII' standalone='yes'?>
<svg xmlns="http://www.w3.org/2000/svg" xmlns:xlink="http://www.w3.org/1999/xlink" version="1.1" width="72.0mm" viewBox="0 0 72.0 72.0" height="72.0mm">
  <g transform="translate(9.866756500000001, 2.1458245000000034) scale(1 1) ">
    <defs id="defs1"/>
    <g id="layer1" transform="translate(694.46864,746.46769)">
      <path id="path41" style="color:#000000;fill:#000000;stroke:none;stroke-width:1;stroke-linecap:round;stroke-linejoin:round;-inkscape-stroke:none" d="m -664.74677,-746.44003 c -3.68944,-0.38928 -4.37223,3.41344 -4.48065,6.15256 -0.49411,4.82992 -0.98827,9.65992 -1.48242,14.48992 -0.1956,6.33704 8.55764,4.47208 7.80527,-0.76376 0.50668,-5.47888 1.20976,-10.94784 1.59096,-16.43304 -0.14376,-1.77624 -1.65743,-3.29536 -3.43316,-3.44568 z m -26.3674,3.81992 c -4.38255,0.50624 -3.8115,5.33472 -1.72817,7.85688 2.29584,3.84512 4.5917,7.69024 6.88754,11.53536 3.06567,5.0472 9.71584,-0.87264 6.145,-4.67416 -2.55433,-4.28592 -5.10868,-8.57184 -7.66305,-12.85776 l -1.55244,-1.4552 -2.08888,-0.4052 z m 44.92627,0.87808 c -3.0591,0.26664 -3.92799,3.46088 -5.47374,5.58632 -1.84984,2.97816 -3.69969,5.95616 -5.54952,8.93432 -2.965,5.60992 5.71895,7.77488 7.34132,2.73936 2.45143,-4.03632 5.06844,-7.98088 7.41244,-12.07688 0.98556,-2.41008 -1.01536,-5.38544 -3.7305,-5.18312 z m -44.07795,23.66864 c -5.79651,0.64312 -3.89184,7.36344 -3.94317,11.3516 0.75312,8.68664 3.36561,18.07648 10.56405,23.63472 9.62181,7.18688 24.85893,5.21696 32.17484,-4.3824 5.37561,-6.91472 7.40997,-15.88272 7.60888,-24.492 0.01,-3.48248 -3.57792,-3.94832 -6.20016,-3.92472 -13.40148,-0.72896 -26.80296,-1.45808 -40.20444,-2.1872 z m 3.99356,7.91272 c 11.35725,0.6184 22.71448,1.23688 34.07172,1.85536 -0.072,7.09184 -2.67111,14.68008 -8.46047,19.09872 -4.4734,3.14248 -10.59438,3.51792 -15.64014,1.6368 -6.29112,-2.78464 -8.82595,-9.93736 -9.79915,-16.27824 -0.30711,-2.09096 -0.25037,-4.20776 -0.17184,-6.31264 z"/>
    </g>
  </g>
</svg>
