<?xml version='1.0' encoding='ASCII' standalone='yes'?>
<svg xmlns="http://www.w3.org/2000/svg" xmlns:xlink="http://www.w3.org/1999/xlink" version="1.1" width="72.0mm" viewBox="0 0 72.0 72.0" height="72.0mm">
  <g transform="translate(5.6068609999999985, 10.4154245) scale(1 1) ">
    <defs id="defs1"/>
    <g id="layer1" transform="translate(613.77256,735.26686)">
      <path style="color:#000000;fill:#000000;stroke:none;stroke-width:1;stroke-linecap:round;stroke-linejoin:round;-inkscape-stroke:none" d="m -561.92145,-735.22891 c -3.98264,-0.47464 -6.05334,3.61904 -8.81639,5.79416 -10.34752,10.19448 -20.29026,21.25568 -26.48988,34.53712 -4.25625,-0.12504 -8.51251,-0.25 -12.76876,-0.37496 -6.2574,0.17976 -3.95093,8.80168 1.20811,7.71016 4.49105,0.12984 8.98209,0.25992 13.47315,0.38976 4.99361,-1.0612 5.05878,-7.556 8.14058,-10.99376 5.91967,-9.35064 13.66131,-17.35928 21.50319,-25.1 2.30097,10.29384 4.12561,20.74776 4.42497,31.31256 -3.54374,-0.14376 -7.08749,-0.28752 -10.63124,-0.43128 -6.24846,0.11072 -4.0521,8.75344 1.11375,7.72712 4.58501,0.18672 9.17,0.37352 13.755,0.56032 5.17076,-0.31896 3.86832,-6.00032 3.89589,-9.51592 -0.50005,-13.14816 -2.91565,-26.14768 -6.14589,-38.87776 l -0.96688,-1.72312 z" id="path45"/>
    </g>
  </g>
</svg>
