<?xml version='1.0' encoding='ASCII' standalone='yes'?>
<svg xmlns="http://www.w3.org/2000/svg" xmlns:xlink="http://www.w3.org/1999/xlink" version="1.1" width="72.0mm" viewBox="0 0 72.0 72.0" height="72.0mm">
  <g transform="translate(10.717372999999998, 12.6350595) scale(1 1) ">
    <defs id="defs1"/>
    <g id="layer1" transform="translate(510.49145,732.50544)">
      <path id="path46" style="color:#000000;fill:#000000;stroke:none;stroke-width:1;stroke-linecap:round;stroke-linejoin:round;-inkscape-stroke:none" d="m -473.83502,-732.50475 c -5.45779,-0.0528 -10.92102,2.90736 -13.59792,7.70928 -5.19591,-5.77576 -15.32514,-5.66072 -20.38752,0.22944 -3.64194,3.92192 -3.54289,10.5424 0.19536,14.3668 4.45329,4.88712 12.51093,5.67832 17.92985,1.94848 1.90005,6.57656 3.80008,13.15312 5.70012,19.72968 1.68307,5.596 9.57021,1.6272 7.13761,-2.93216 -1.52094,-5.26512 -3.04192,-10.53024 -4.56289,-15.79536 7.27188,3.42248 16.96005,0.11904 20.32545,-7.25656 2.57152,-5.19728 0.75628,-11.9984 -4.03868,-15.24704 -2.51181,-1.81176 -5.61414,-2.74288 -8.7015,-2.75256 z m -0.0991,7.6696 c 3.2346,-0.1836 6.97324,2.44768 6.2616,5.99424 -1.21604,5.60416 -10.07096,7.26288 -13.11521,2.34056 -1.81863,-3.14 0.81888,-6.86248 3.91973,-7.81168 0.93936,-0.3364 1.93608,-0.5144 2.93388,-0.52312 z m -23.57933,3.42304 c 2.50541,-0.13968 5.79612,1.7536 5.21034,4.6124 -1.43448,4.06696 -8.05645,4.28176 -10.15205,0.68848 -1.56522,-3.04232 2.2648,-5.48944 4.94171,-5.30088 z"/>
    </g>
  </g>
</svg>
