<?xml version='1.0' encoding='ASCII' standalone='yes'?>
<svg xmlns="http://www.w3.org/2000/svg" xmlns:xlink="http://www.w3.org/1999/xlink" version="1.1" width="72.0mm" viewBox="0 0 72.0 72.0" height="72.0mm">
  <g transform="translate(15.4733925, 10.9724195) scale(1 1) ">
    <defs id="defs1"/>
    <g id="layer1" transform="translate(414.74091,734.74439)">
      <path id="path48" style="color:#000000;fill:#000000;stroke:none;stroke-width:1;stroke-linecap:round;stroke-linejoin:round;-inkscape-stroke:none" d="m -410.91048,-734.74219 c -3.22905,-0.0509 -4.04988,3.26824 -3.78375,5.8288 0.14328,13.08872 0.28675,26.17744 0.43008,39.26616 -0.11088,5.41768 8.41774,4.5348 7.66554,-0.46328 -0.0518,-4.91896 -0.1032,-9.83792 -0.15456,-14.75688 9.60604,3.65848 19.20285,8.8336 25.22905,17.43704 1.44784,4.68872 8.98488,2.90104 7.68685,-1.88312 -1.54309,-3.4168 -4.2695,-6.18816 -6.95728,-8.754 -5.97789,-5.40504 -13.24168,-9.13032 -20.62561,-12.22224 9.29248,-3.99072 18.10911,-9.3464 25.36043,-16.44024 3.21338,-3.82696 -3.34435,-8.85552 -6.27595,-4.57792 -6.11809,5.92576 -13.05559,11.14232 -20.99497,14.35808 -1.03115,0.0566 -3.64947,2.3108 -3.54467,0.60392 -0.0499,-4.86376 -0.10056,-9.72744 -0.15072,-14.5912 0.0317,-2.06088 -1.82493,-3.87944 -3.88429,-3.80512 z"/>
    </g>
  </g>
</svg>
