<?xml version='1.0' encoding='ASCII' standalone='yes'?>
<svg xmlns="http://www.w3.org/2000/svg" xmlns:xlink="http://www.w3.org/1999/xlink" version="1.1" width="72.0mm" viewBox="0 0 72.0 72.0" height="72.0mm">
  <g transform="translate(11.4142115, 5.5501425) scale(1 1) ">
    <defs id="defs1"/>
    <g id="layer1" transform="translate(330.18559,738.61102)">
      <path id="path50" style="color:#000000;fill:#000000;stroke:none;stroke-width:1;stroke-linecap:round;stroke-linejoin:round;-inkscape-stroke:none" d="m -320.34857,-738.56699 c -3.36291,-0.075 -3.96579,3.36176 -4.07912,5.926 -0.35184,3.45032 -0.70368,6.90056 -1.05547,10.3508 -0.40261,3.51624 3.18143,4.35384 5.84043,4.50672 4.05593,0.50528 8.11185,1.01056 12.16779,1.51584 -0.0326,1.19728 -0.0662,2.39448 -0.0992,3.59176 -6.58398,2.81192 -9.87339,10.03528 -10.70516,16.77576 0.15878,1.90888 0.35184,4.02104 -1.03079,1.55344 -1.36481,-1.84008 -2.72964,-3.68008 -4.09445,-5.52008 -3.85886,-4.7504 -9.36407,2.19112 -5.4212,5.58128 3.69554,4.9956 7.39109,9.99112 11.08664,14.98672 2.98932,3.98016 8.37829,-0.29712 6.74274,-4.3496 -0.41634,-6.42624 -0.41116,-13.41008 3.08004,-19.06608 1.86639,-3.14152 5.71828,-4.24 9.16636,-3.7156 3.77279,0.2968 8.37698,1.634 9.61352,5.66704 1.18302,4.45712 -0.53932,9.1084 -2.58548,13.0448 -4.32042,3.83408 2.69007,10.2732 5.83158,5.1248 4.22844,-6.12496 6.38522,-14.37256 3.67626,-21.53944 -2.1444,-5.68096 -8.04351,-8.92512 -13.81708,-9.68504 -1.13745,-0.23424 -5.01264,-0.007 -3.4831,-1.46352 4.22397,0.52616 8.44794,1.05232 12.67192,1.57848 3.77816,0.48 4.54198,-3.42808 4.3789,-6.23584 0.0902,-5.12264 0.33466,-10.24824 0.32582,-15.36896 -0.3191,-2.74208 -3.1996,-3.50736 -5.52468,-3.25944 -10.89542,0 -21.79084,0 -32.68626,0 z m 3.47265,7.6696 c 3.2643,0 6.52859,0 9.79288,0 -0.0624,2.30352 -0.12566,4.60704 -0.18854,6.91056 -3.39658,-0.42168 -6.79318,-0.84336 -10.18976,-1.26504 0.19517,-1.88184 0.39033,-3.76368 0.58541,-5.64552 z m 17.46746,0 c 3.18326,0 6.36654,0 9.54981,0 -0.0806,3.01296 -0.16205,6.02584 -0.24308,9.0388 -3.17335,-0.3936 -6.3467,-0.78712 -9.52004,-1.18072 0.071,-2.61936 0.14217,-5.23872 0.21331,-7.85808 z"/>
    </g>
  </g>
</svg>
