<?xml version='1.0' encoding='ASCII' standalone='yes'?>
<svg xmlns="http://www.w3.org/2000/svg" xmlns:xlink="http://www.w3.org/1999/xlink" version="1.1" width="72.0mm" viewBox="0 0 72.0 72.0" height="72.0mm">
  <g transform="translate(-3.0666314999999997, 5.255375000000001) scale(1 1) ">
    <defs id="defs1"/>
    <g id="layer1" transform="translate(803.20619,-967.64161)">
      <path id="path233" style="color:#000000;fill:#000000;stroke:none;stroke-width:1;stroke-linecap:round;stroke-linejoin:round;-inkscape-stroke:none" d="m -743.68524,967.68789 c -10.60536,0.0672 -22.01256,3.53048 -28.64008,12.29808 -3.56568,4.6364 -5.60384,10.26728 -6.71152,15.9644 -6.31176,-2.50744 -14.41616,-2.98952 -19.6016,2.13432 -5.03512,4.50181 -6.08776,12.58241 -2.25432,18.16881 4.0088,5.948 10.18192,10.6946 17.19856,12.4194 5.96664,1.2913 11.9416,-0.4934 17.87544,-1.1228 2.49408,-0.5655 5.4652,-0.1162 7.36752,-2.1075 1.89392,-2.6353 -0.28336,-5.505 -0.97064,-8.1685 -1.33584,-3.7988 -2.67168,-7.5978 -4.00752,-11.3968 -2.328,-5.704 -9.7036,-0.5894 -6.77192,3.8637 1.18904,3.3869 2.37808,6.774 3.56712,10.161 -1.77928,0.2515 -3.55864,0.5021 -5.33792,0.7537 -0.82952,-10.6676 -1.21584,-21.99061 3.28232,-31.96397 3.022,-6.97136 10.23624,-11.01384 17.50112,-12.07424 1.96536,0.2592 6.70512,-2.17248 6.82608,0.50784 0.29504,2.80128 -0.47,6.16584 2.06136,8.14728 2.40784,2.36872 4.81568,4.73736 7.2236,7.10608 -2.21256,1.39904 -4.4252,2.79792 -6.63776,4.19696 -2.84032,2.1512 -1.33016,5.63015 -1.29312,8.55175 0.50048,5.2936 1.00104,10.5872 1.50152,15.8808 0.8068,6.0924 9.35352,3.1018 7.53744,-1.9172 -0.54464,-5.7606 -1.08928,-11.5211 -1.63392,-17.2816 3.1456,-2.08623 6.4688,-3.92863 9.49408,-6.18023 2.41776,-2.516 0.12192,-5.45016 -1.9648,-7.16344 -2.82232,-2.76528 -5.64464,-5.53064 -8.46696,-8.29592 -0.12408,-2.93032 -0.24808,-5.86056 -0.37208,-8.7908 -0.19008,-3.77888 -3.99096,-3.8564 -6.772,-3.69072 z m -5.76456,15.98416 c -6.73808,0.33504 -2.85328,11.38536 2.64544,7.4376 3.1512,-2.12848 1.10856,-7.69024 -2.64544,-7.4376 z m -8.76104,2.05384 c -6.85352,-0.3312 -3.82936,11.19776 2.01664,7.57912 3.21752,-1.89248 1.69112,-7.39096 -2.01664,-7.57912 z m 4.30112,15.17551 c -4.30104,0.1123 -4.03928,4.6959 -3.05624,7.6198 1.16432,5.0568 2.32856,10.1136 3.49288,15.1704 1.59296,5.9543 9.6852,1.8537 7.21328,-2.8893 -1.29816,-5.6382 -2.59632,-11.2765 -3.89448,-16.9147 -0.35616,-1.711 -2.00856,-3.0251 -3.75544,-2.9862 z m -34.0072,0.8928 c 0.95856,0.3369 -0.47968,2.3835 -0.5404,3.4473 -1.032,3.4296 -2.064,6.8593 -3.09592,10.2889 -2.75648,-2.4399 -5.54776,-6.6742 -3.11048,-10.2546 1.28104,-2.4957 4.04784,-3.6207 6.7468,-3.4816 z m 7.87304,2.1531 c -0.37696,5.8176 -0.12072,11.6586 0.42168,17.4574 -1.7388,-0.2141 -6.33568,-0.1171 -4.82544,-2.8045 1.46792,-4.8844 2.93584,-9.7685 4.40376,-14.6529 z"/>
    </g>
  </g>
</svg>
