<?xml version='1.0' encoding='ASCII' standalone='yes'?>
<svg xmlns="http://www.w3.org/2000/svg" xmlns:xlink="http://www.w3.org/1999/xlink" version="1.1" width="72.0mm" viewBox="0 0 72.0 72.0" height="72.0mm">
  <g transform="translate(8.3582745, 7.582708499999999) scale(1 1) ">
    <defs id="defs1"/>
    <g id="layer1" transform="translate(241.39022,739.62317)">
      <path id="path53" style="color:#000000;fill:#000000;stroke:none;stroke-width:1;stroke-linecap:round;stroke-linejoin:round;-inkscape-stroke:none" d="m -213.63881,-739.61875 c -3.6096,-0.15048 -4.14323,3.5728 -4.02743,6.27272 -0.0586,2.15064 -0.11636,4.30136 -0.17444,6.45208 -4.53687,-4.07024 -11.8764,-2.9444 -16.02597,1.12704 -5.51303,5.16456 -7.57195,13.07936 -7.52271,20.42224 0.35367,7.71888 4.25936,15.77536 11.33715,19.3972 3.48142,1.84392 7.70491,1.77096 11.21628,0.0346 2.13453,-1.52776 4.01493,-1.48912 5.94401,0.37168 3.60432,2.26152 8.10599,3.62992 12.26877,2.1108 7.03168,-2.30128 11.30963,-9.24144 13.26547,-16.02016 2.06856,-6.9648 1.77574,-14.96064 -2.42646,-21.10232 -3.54538,-5.5416 -10.37176,-9.47408 -17.03334,-7.8492 -1.70408,0.18 -3.95168,2.99408 -3.29054,-0.0374 0.0384,-2.63552 0.21754,-5.27344 0.15917,-7.90736 -0.23598,-1.79768 -1.87691,-3.25264 -3.68991,-3.27168 z m -11.46472,17.8048 c 3.99277,0.18696 6.28566,3.92944 8.88502,6.42472 3.92723,2.31136 5.86706,-2.836 8.65488,-4.45688 2.89974,-2.13648 7.04508,-1.31944 9.38831,1.25192 4.01345,3.91544 5.34243,10.04128 3.74456,15.36272 -1.26148,4.64744 -3.19201,9.9264 -7.76025,12.24072 -3.88991,1.63 -7.95406,-0.81816 -10.92123,-3.23016 -3.91176,-2.6748 -6.99975,2.76704 -11.10623,2.03328 -4.51652,-0.36288 -7.21257,-4.8252 -8.48909,-8.72448 -2.1678,-6.09632 -0.52876,-13.10264 3.21925,-18.22112 1.07735,-1.35112 2.57679,-2.62416 4.38478,-2.68072 z"/>
    </g>
  </g>
</svg>
