<?xml version='1.0' encoding='ASCII' standalone='yes'?>
<svg xmlns="http://www.w3.org/2000/svg" xmlns:xlink="http://www.w3.org/1999/xlink" version="1.1" width="72.0mm" viewBox="0 0 72.0 72.0" height="72.0mm">
  <g transform="translate(10.854645000000001, 6.263506) scale(1 1) ">
    <defs id="defs1"/>
    <g id="layer1" transform="translate(694.3054,-967.5723)">
      <path id="path241" style="color:#000000;fill:#000000;stroke:none;stroke-width:1;stroke-linecap:round;stroke-linejoin:round;-inkscape-stroke:none" d="m -664.88073,967.57877 c -2.3922,0.37824 -4.06589,2.31768 -6.05495,3.55728 -4.46892,3.21144 -8.93785,6.4228 -13.4068,9.63432 -4.8276,3.90992 2.17516,9.37008 5.60995,5.40488 5.56388,-4.03712 11.22269,-7.95352 16.72629,-12.06736 2.39271,-2.3296 0.57582,-6.72712 -2.87449,-6.52912 z m 6.37977,23.0336 c -3.09929,-0.2016 -4.22769,2.91312 -5.84265,4.91664 -1.98648,2.8008 -3.97295,5.60149 -5.95943,8.40229 -3.36681,-2.864 -6.73365,-5.72829 -10.10047,-8.59237 -4.85061,-3.73608 -8.5937,4.48696 -3.77346,6.86397 1.06765,0.9092 2.13532,1.8172 3.20299,2.7259 -3.24115,0.058 -6.48231,0.119 -9.72343,0.1785 -6.20592,0.4666 -3.55295,8.9838 1.54284,7.6628 4.24821,-0.077 8.49643,-0.1603 12.74464,-0.2409 -2.06211,2.9072 -4.12419,5.8142 -6.18628,8.7214 -3.30872,5.2739 5.11485,8.1793 7.0761,3.2961 2.20866,-3.1128 4.41732,-6.2255 6.62598,-9.3382 2.87568,2.4456 5.75137,4.8914 8.62705,7.3371 4.44816,3.7827 8.94323,-3.8792 4.37451,-6.3565 -1.55079,-1.3192 -3.10156,-2.6384 -4.65238,-3.9576 4.52635,-0.1219 9.06202,-0.096 13.5823,-0.3139 5.24649,-1.0141 2.82368,-8.8319 -2.06523,-7.5759 -4.10524,0.077 -8.21052,0.1498 -12.31576,0.2247 1.97188,-2.839 4.06368,-5.60059 5.95515,-8.49155 1.16418,-2.274 -0.49508,-5.3152 -3.11247,-5.46256 z"/>
    </g>
  </g>
</svg>
