<?xml version='1.0' encoding='ASCII' standalone='yes'?>
<svg xmlns="http://www.w3.org/2000/svg" xmlns:xlink="http://www.w3.org/1999/xlink" version="1.1" width="72.0mm" viewBox="0 0 72.0 72.0" height="72.0mm">
  <g transform="translate(10.5812055, 11.9012755) scale(1 1) ">
    <defs id="defs1"/>
    <g id="layer1" transform="translate(605.11806,-973.31784)">
      <path id="path245" style="color:#000000;fill:#000000;stroke:none;stroke-width:1;stroke-linecap:round;stroke-linejoin:round;-inkscape-stroke:none" d="m -595.64588,973.31861 c -6.19824,0.0575 -3.88134,10.75368 1.70156,8.87536 2.70201,-0.8016 3.09139,-3.97656 1.9849,-6.18096 -0.46656,-1.5772 -2.04186,-2.7292 -3.68646,-2.6944 z m 37.05819,0.72384 c -2.30596,0.54232 -3.68589,2.62664 -5.44239,4.06496 -13.26547,12.33216 -26.53092,24.66439 -39.79638,36.99669 -4.32468,4.566 3.35721,8.9462 6.25682,4.665 14.0209,-13.0314 28.04179,-26.06273 42.06267,-39.09417 2.68063,-2.35928 0.65769,-7.17984 -3.08072,-6.63248 z m -6.33015,31.82935 c -4.64013,-0.1805 -4.94568,5.9372 -1.47499,7.7072 3.80998,4.1312 9.5193,-2.7087 5.15043,-5.7217 -1.11453,-0.8429 -2.15465,-1.9846 -3.67544,-1.9855 z"/>
    </g>
  </g>
</svg>
