<?xml version='1.0' encoding='ASCII' standalone='yes'?>
<svg xmlns="http://www.w3.org/2000/svg" xmlns:xlink="http://www.w3.org/1999/xlink" version="1.1" width="72.0mm" viewBox="0 0 72.0 72.0" height="72.0mm">
  <g transform="translate(8.934355, 6.944473500000001) scale(1 1) ">
    <defs id="defs1"/>
    <g id="layer1" transform="translate(147.53704,737.02252)">
      <path style="color:#000000;fill:#000000;stroke:none;stroke-width:1;stroke-linecap:round;stroke-linejoin:round;-inkscape-stroke:none" d="m -120.00272,-736.97267 c -5.68736,0.2316 -11.39773,1.46944 -16.4625,4.12496 -2.14946,1.69632 -3.13559,4.342 -4.66122,6.54736 -1.94,3.15512 -3.88001,6.31016 -5.82004,9.4652 -1.77061,2.80064 0.84509,5.0428 2.532,6.94088 8.86225,9.89264 17.72452,19.78528 26.58676,29.67784 2.8328,3.08008 6.23333,0.11448 7.37968,-2.7776 5.57661,-10.08296 11.186196,-20.14864 16.742196,-30.24256 0.941952,-2.2264 -0.589248,-4.404 -1.09336,-6.54752 -1.413656,-4.32328 -2.827312,-8.64656 -4.240976,-12.96984 -2.45902,-4.0368 -7.98618,-3.00536 -12.06858,-3.9312 -2.95381,-0.28968 -5.9274,-0.41528 -8.89396,-0.28752 z m 0.43124,7.70624 c 4.70155,-0.1764 9.38155,0.5036 14.00624,1.27504 1.39375,4.25624 2.78751,8.51248 4.18124,12.76872 -4.775,8.6188 -9.55,17.23752 -14.325,25.85624 -7.73124,-8.62496 -15.46249,-17.25 -23.19373,-25.87496 2.24375,-3.65632 4.48749,-7.31248 6.73125,-10.96872 3.9207,-1.90504 8.25369,-2.88456 12.6,-3.05632 z" id="path55"/>
    </g>
  </g>
</svg>
