<?xml version='1.0' encoding='ASCII' standalone='yes'?>
<svg xmlns="http://www.w3.org/2000/svg" xmlns:xlink="http://www.w3.org/1999/xlink" version="1.1" width="72.0mm" viewBox="0 0 72.0 72.0" height="72.0mm">
  <g transform="translate(4.325697000000002, 4.334903499999999) scale(1 1) ">
    <defs id="defs1"/>
    <g id="layer1" transform="translate(60.426407,742.14182)">
      <path style="color:#000000;fill:#000000;stroke:none;stroke-width:1;stroke-linecap:round;stroke-linejoin:round;-inkscape-stroke:none" d="m -30.846476,-742.09139 c -5.575208,0.28048 -10.042592,5.00304 -10.865144,10.37696 -1.019512,2.00928 1.187936,6.40832 -2.31576,4.4812 -5.441632,-0.9196 -11.973304,0.59912 -14.763528,5.80816 -3.520632,6.38648 -1.003912,14.54032 4.182056,19.2324 1.420768,2.57864 7.242736,2.6188 4.658632,6.06784 -1.5142,5.01424 -1.415824,11.5492 3.210696,14.93792 5.570616,3.87296 13.592384,2.724 18.735256,-1.3832 2.41572,-0.8804 2.884824,-6.27744 5.132544,-2.7956 4.173256,3.23008 10.02252,6.0432 15.189072,3.4168 5.575376,-3.11568 7.130368,-10.40832 5.33336,-16.18328 -0.138624,-2.72 -3.030304,-5.55968 -2.703768,-7.6324 7.045616,-6.11888 10.391208,-17.09912 6.005016,-25.68512 -1.980832,-4.4792 -7.343464,-7.6856 -12.149256,-5.65536 -2.534016,0.47528 -5.32616,3.79248 -6.604232,4.25888 -1.01468,-4.61384 -4.792792,-8.54856 -9.585864,-9.11704 -1.141928,-0.18576 -2.3066,-0.2232 -3.45908,-0.12816 z m 0.637536,7.65 c 3.321112,-0.79952 5.367312,2.57592 5.54584,5.4372 0.808512,3.4224 -1.498848,8.9176 3.562904,9.73672 4.207048,-0.45224 5.403448,-5.27368 8.457432,-7.65768 1.769632,-1.90016 5.829392,-5.07264 6.836096,-0.87688 2.436288,4.61136 0.735648,10.0972 -2.210384,14.02856 -2.176344,3.51896 -8.395776,6.67008 -4.504256,11.22952 1.96904,3.62056 4.17952,8.01808 2.657096,12.17384 -1.96872,4.0076 -6.583272,0.0643 -8.948208,-1.50128 -2.956896,-2.89432 -8.755352,-7.74632 -10.75428,-1.1112 -1.547488,3.71992 -5.15436,7.0188 -9.433408,6.4688 -4.241032,0.6832 -4.75672,-4.0932 -3.720168,-7.11008 0.74908,-3.42168 4.04156,-8.57344 -0.98584,-10.30408 -3.82512,-2.0536 -8.110032,-4.87928 -9.034472,-9.42216 -0.645696,-3.08016 1.191888,-6.66192 4.715408,-6.37592 4.405664,-1.08464 9.131136,3.31448 12.939608,0.25752 1.975256,-3.6108 -0.522912,-8.11552 1.272096,-11.97096 0.492672,-1.6256 1.786864,-3.0584 3.604536,-3.002 z" id="path56"/>
    </g>
  </g>
</svg>
