<?xml version='1.0' encoding='ASCII' standalone='yes'?>
<svg xmlns="http://www.w3.org/2000/svg" xmlns:xlink="http://www.w3.org/1999/xlink" version="1.1" width="72.0mm" viewBox="0 0 72.0 72.0" height="72.0mm">
  <g transform="translate(7.762712499999999, 2.133945500000003) scale(1 1) ">
    <defs id="defs1"/>
    <g id="layer1" transform="translate(-402.33995,-962.61604)">
      <path id="path22-0-0-5" style="color:#000000;fill:#000000;stroke:none;stroke-width:0.999968;stroke-linecap:round;stroke-linejoin:round;-inkscape-stroke:none" d="m 431.79408,962.62773 c -3.41184,0.19488 -3.64694,3.74744 -3.92736,6.32136 -0.42048,3.24568 -0.84096,6.49144 -1.26183,9.7372 -0.3456,6.37096 8.436,4.65928 7.81459,-0.59616 0.46848,-3.96584 1.12503,-7.91688 1.46852,-11.89264 -0.097,-2.06144 -2.04567,-3.74048 -4.09392,-3.56944 z m -25.25117,3.83976 c -4.96329,0.17096 -4.21863,5.52424 -1.87017,8.14088 1.80413,2.79624 3.60816,5.59264 5.41229,8.38888 3.24517,4.97632 9.69552,-1.20528 5.97282,-4.88424 -2.11661,-3.29648 -4.2333,-6.59296 -6.34991,-9.88944 -0.67009,-1.07216 -1.92126,-1.73512 -3.16503,-1.75608 z m 48.78585,0.99224 c -3.19795,-0.0481 -4.45381,3.1116 -6.34876,5.09248 -1.74009,2.13232 -3.48009,4.26472 -5.2202,6.39704 -3.64953,5.24096 4.72464,8.40664 6.96615,3.6072 2.52692,-3.16632 5.19504,-6.22816 7.62845,-9.46376 1.30119,-2.26304 -0.29856,-5.48784 -3.02564,-5.63296 z m -26.51125,17.84944 c -10.81211,0.0576 -20.47739,8.902 -22.04046,19.49893 -0.81119,4.9031 -0.007,10.0914 2.41987,14.4438 -1.78098,1.442 -3.56188,2.8839 -5.34288,4.3259 -4.56354,3.8061 2.33214,9.482 5.63904,5.2975 1.53831,-1.245 3.07652,-2.49 4.61483,-3.7349 7.29321,6.2425 18.72805,5.964 26.20819,0.1959 8.43561,-6.0526 11.91072,-18.093 7.69478,-27.63041 2.03769,-1.70176 4.18627,-3.27944 6.14506,-5.06976 3.45533,-4.22664 -3.4753,-8.61104 -6.47223,-4.5644 -1.33132,1.07832 -2.66256,2.15656 -3.99379,3.23488 -3.85305,-3.946 -9.3698,-6.13488 -14.87241,-5.99784 z m 0.72384,7.69936 c 2.82988,0.0768 6.41125,1.24032 7.98412,3.2956 -7.4206,6.01037 -14.84112,12.02087 -22.26163,18.03117 -3.78912,-8.2615 1.76986,-18.85229 10.50336,-20.91005 1.2312,-0.30912 2.50531,-0.45408 3.77415,-0.41664 z m 12.17913,9.78787 c 2.53363,8.9573 -4.81268,19.1327 -14.19389,19.2732 -2.08147,0.058 -6.67123,-0.6154 -6.83596,-2.2575 7.00992,-5.6718 14.01993,-11.3438 21.02985,-17.0157 z"/>
    </g>
  </g>
</svg>
