<?xml version='1.0' encoding='ASCII' standalone='yes'?>
<svg xmlns="http://www.w3.org/2000/svg" xmlns:xlink="http://www.w3.org/1999/xlink" version="1.1" width="72.0mm" viewBox="0 0 72.0 72.0" height="72.0mm">
  <g transform="translate(17.809574, 7.6578824999999995) scale(1 1) ">
    <defs id="defs1"/>
    <g id="layer1" transform="translate(-45.510036,736.6795)">
      <path id="path57" style="color:#000000;fill:#000000;stroke:none;stroke-width:1;stroke-linecap:round;stroke-linejoin:round;-inkscape-stroke:none" d="m 59.907281,-736.67691 c -3.075561,0.55192 -5.627741,2.67352 -7.902883,4.70872 -4.550486,4.4004 -7.315498,11.01848 -6.275837,17.36712 0.676224,4.29848 4.040122,7.36648 7.272307,9.9444 1.94688,1.56296 3.757911,3.76448 3.4536,6.422 0.0864,3.86512 -2.017401,7.72536 -5.577724,9.38104 -4.019482,0.49752 -5.259812,6.64904 -0.854496,7.76904 2.933942,0.35944 5.499638,-1.5196 7.730064,-3.17592 5.440934,-4.54664 7.814438,-12.60808 5.471942,-19.33392 -1.389216,-4.16944 -5.148058,-6.6728 -8.220547,-9.51808 -2.22241,-1.74128 -2.110224,-4.7624 -1.36224,-7.20344 0.995405,-4.1688 4.090435,-7.82584 8.206243,-9.16688 3.404256,-1.7884 2.108928,-7.33368 -1.940381,-7.19408 z m 17.695661,2.75824 c -2.927904,0.55336 -5.304672,2.65328 -7.42704,4.63552 -4.36848,4.44168 -6.941568,11.04152 -5.7096,17.25968 0.84576,4.46784 4.614432,7.30224 7.805184,10.14096 2.549376,2.24016 2.120832,6.0452 1.24896,8.97064 -0.82272,2.38688 -2.736192,4.40344 -5.085312,5.3284 -4.838688,1.13936 -2.557536,8.99528 2.138208,7.36696 6.479616,-2.08816 10.845024,-8.56488 11.224896,-15.24232 0.61056,-5.00872 -1.858656,-9.91384 -5.57664,-13.16432 -1.964832,-1.86168 -4.861824,-3.75584 -4.411584,-6.86424 0.3312,-4.77616 3.075168,-9.70816 7.823136,-11.26624 3.368448,-1.83536 2.005056,-7.34616 -2.030208,-7.16504 z"/>
    </g>
  </g>
</svg>
