<?xml version='1.0' encoding='ASCII' standalone='yes'?>
<svg xmlns="http://www.w3.org/2000/svg" xmlns:xlink="http://www.w3.org/1999/xlink" version="1.1" width="72.0mm" viewBox="0 0 72.0 72.0" height="72.0mm">
  <g transform="translate(7.662639500000001, 5.336326499999998) scale(1 1) ">
    <defs id="defs1"/>
    <g id="layer1" transform="translate(515.53643,-966.54759)">
      <path id="path77-3-8-9" style="color:#000000;fill:#000000;stroke:none;stroke-width:1;stroke-linecap:round;stroke-linejoin:round;-inkscape-stroke:none" d="m -488.67816,966.55181 c -6.93732,0.048 -13.87556,0.576 -20.72678,1.67688 -4.0257,1.08704 -3.42814,5.88168 -4.30843,9.1144 -2.41836,14.67272 -2.16035,29.64981 -0.79143,44.41411 0.91584,4.5601 6.19402,3.5197 9.62847,4.2897 12.73813,1.4928 25.57854,1.8438 38.39388,1.8275 4.76749,-0.5635 3.99148,-6.1267 4.94848,-9.6047 2.57246,-15.3738 3.43814,-31.07989 1.93233,-46.61269 -0.93321,-4.56808 -6.23745,-3.45856 -9.68992,-4.15496 -6.44103,-0.63456 -12.91323,-0.99736 -19.3866,-0.9504 z m -0.0547,8.14592 c -3.7271,4.62328 -7.45606,9.23144 -11.18227,13.85392 -1.84931,2.632 0.18048,5.352 0.91545,7.95056 2.75577,7.60909 5.51156,15.21809 8.26732,22.82709 -5.34356,-0.3456 -10.67836,-0.84 -15.9891,-1.528 -1.11343,-13.9856 -1.07398,-28.16445 1.57262,-41.98429 5.43984,-0.72672 10.93196,-1.07296 16.416,-1.11928 z m 9.71849,0.20832 c 3.86589,0.19872 7.72596,0.50976 11.57385,0.93216 0.39188,5.38032 0.49996,10.78048 0.35223,16.17272 -6.26071,-2.87736 -12.5214,-5.75472 -18.78211,-8.63208 2.28535,-2.82432 4.57068,-5.64848 6.85603,-8.4728 z m -11.84178,14.64464 c 7.78207,3.57192 15.56412,7.14376 23.34619,10.71561 -0.49939,6.616 -1.37092,13.2021 -2.55488,19.7297 -4.11683,-0.019 -8.23344,-0.097 -12.34776,-0.2429 -3.38999,-9.3564 -6.77996,-18.7126 -10.16993,-28.06897 0.57541,-0.71136 1.15092,-1.42224 1.72638,-2.13344 z m 11.75743,11.13241 c -7.24696,-0.2669 -3.24756,11.937 2.60452,8.5131 3.20332,-1.942 1.47684,-6.1609 -0.89752,-7.9604 l -1.707,-0.5529 z"/>
    </g>
  </g>
</svg>
