<?xml version='1.0' encoding='ASCII' standalone='yes'?>
<svg xmlns="http://www.w3.org/2000/svg" xmlns:xlink="http://www.w3.org/1999/xlink" version="1.1" width="72.0mm" viewBox="0 0 72.0 72.0" height="72.0mm">
  <g transform="translate(5.891557500000001, 12.8701535) scale(1 1) ">
    <defs id="defs1"/>
    <g id="layer1" transform="translate(-124.90358,735.82859)">
      <path id="path58" style="color:#000000;fill:#000000;stroke:none;stroke-width:1;stroke-linecap:round;stroke-linejoin:round;-inkscape-stroke:none" d="m 153.93687,-735.82859 c -3.20592,0.0288 -4.13194,3.2444 -5.69463,5.38416 -2.57654,4.06912 -5.15309,8.13824 -7.72963,12.20728 -3.93235,-0.16368 -7.8648,-0.32744 -11.79715,-0.49112 -6.19555,0.0758 -4.10746,8.72608 1.05216,7.72672 2.00246,0.0835 4.00483,0.16704 6.00729,0.25048 -2.90217,4.58392 -5.80425,9.16784 -8.70643,13.75168 -2.30073,3.89896 2.04643,6.36392 5.37389,5.97 13.63229,0.48544 27.26448,0.97104 40.89677,1.45656 3.9479,0.15816 4.81161,-4.49264 2.79926,-7.07784 -2.16336,-4.23216 -4.32681,-8.46432 -6.49017,-12.69648 3.85632,0.16032 7.71253,0.32088 11.56885,0.48128 5.70798,0.29568 4.76267,-8.4008 -0.29088,-7.69488 -5.09538,-0.21144 -10.19068,-0.42312 -15.28607,-0.63456 -2.82115,-5.51824 -5.64221,-11.0364 -8.46336,-16.55464 l -1.34054,-1.47448 -1.89898,-0.60416 z m -0.52608,11.58872 c 1.13769,2.22584 2.27539,4.45168 3.41308,6.67744 -2.48208,-0.10248 -4.96425,-0.20496 -7.44633,-0.3076 1.34438,-2.12328 2.68886,-4.24656 4.03325,-6.36984 z m -8.77594,13.85592 c 5.40077,0.2232 10.80163,0.44648 16.2024,0.66968 2.08694,4.08288 4.17379,8.16576 6.26074,12.24856 -9.98804,-0.3572 -19.97607,-0.71432 -29.9641,-1.0716 2.50032,-3.9488 5.00064,-7.89776 7.50096,-11.84664 z"/>
    </g>
  </g>
</svg>
