<?xml version='1.0' encoding='ASCII' standalone='yes'?>
<svg xmlns="http://www.w3.org/2000/svg" xmlns:xlink="http://www.w3.org/1999/xlink" version="1.1" width="72.0mm" viewBox="0 0 72.0 72.0" height="72.0mm">
  <g transform="translate(2.3819884999999985, 5.465011499999999) scale(1 1) ">
    <defs id="defs1"/>
    <g id="layer1" transform="translate(-212.67807,739.76477)">
      <path id="path32-4-7" style="color:#000000;fill:#000000;stroke:none;stroke-width:1;stroke-linecap:round;stroke-linejoin:round;-inkscape-stroke:none" d="m 243.11962,-739.76259 c -8.13658,-0.0576 -15.81639,6.816 -15.98352,15.07776 -0.39744,7.26576 5.39894,13.90128 12.45618,15.118 8.13342,1.79968 17.15684,-3.59536 19.05975,-11.77896 1.93046,-7.15536 -2.58903,-15.09312 -9.57744,-17.40688 -1.90003,-0.70024 -3.93043,-1.04296 -5.95497,-1.00992 z m 0.13919,7.65968 c 4.66339,-0.38936 9.17242,4.15064 7.97751,8.84112 -1.30109,6.28728 -10.42041,8.56224 -14.6088,3.75224 -3.24921,-3.3336 -1.87325,-9.24944 2.13072,-11.32528 1.35916,-0.79768 2.92732,-1.22568 4.50057,-1.26808 z m 20.69203,19.41208 c -8.27088,-0.0653 -16.0608,7.04904 -16.0101,15.46016 -0.20736,7.28104 5.77613,13.74952 12.85746,14.80208 8.16144,1.60816 17.06717,-3.97728 18.75351,-12.2076 1.764,-7.30296 -3.11232,-15.20304 -10.2793,-17.26056 -1.71417,-0.55464 -3.52022,-0.82296 -5.32157,-0.79408 z m -35.26233,3.45288 c -8.26905,-0.0624 -16.0558,7.05064 -16.00521,15.46 -0.20736,7.2816 5.77584,13.75144 12.85757,14.80624 8.16316,1.61064 17.06793,-3.98008 18.7534,-12.21096 1.76516,-7.3048 -3.115,-15.20464 -10.28332,-17.26136 -1.71456,-0.55456 -3.5208,-0.82296 -5.32244,-0.794 z m 35.40125,4.20192 c 4.66455,-0.38712 9.14506,4.16392 7.96071,8.84608 -1.26404,6.1468 -10.02989,8.49504 -14.33232,4.02152 -3.40455,-3.14872 -2.37408,-9.12224 1.52668,-11.38496 1.43337,-0.936 3.13728,-1.43664 4.84493,-1.48264 z m -35.26233,3.45776 c 4.66368,-0.38832 9.15157,4.1568 7.9656,8.84112 -1.2648,6.14872 -10.03181,8.49392 -14.33579,4.0216 -3.28416,-3.03992 -2.46613,-8.7808 1.1978,-11.15336 1.49635,-1.07952 3.33292,-1.65952 5.17239,-1.70936 z"/>
    </g>
  </g>
</svg>
