<?xml version='1.0' encoding='ASCII' standalone='yes'?>
<svg xmlns="http://www.w3.org/2000/svg" xmlns:xlink="http://www.w3.org/1999/xlink" version="1.1" width="72.0mm" viewBox="0 0 72.0 72.0" height="72.0mm">
  <g transform="translate(10.038039999999999, 7.949659499999999) scale(1 1) ">
    <defs id="defs1"/>
    <g id="layer1" transform="translate(-313.57015,736.16452)">
      <path id="path60" style="color:#000000;fill:#000000;stroke:none;stroke-width:1;stroke-linecap:round;stroke-linejoin:round;-inkscape-stroke:none" d="m 342.67075,-736.15603 c -8.92992,0.32104 -16.40055,6.29664 -21.99063,12.79152 -2.45212,2.87792 -4.67616,5.96048 -6.5446,9.24976 -2.6975,4.46712 5.03184,8.21528 6.91564,3.36312 4.13963,-6.57848 9.27879,-13.078 16.48167,-16.43576 4.44164,-2.13936 9.92333,-1.5732 13.86288,1.38464 3.27351,2.2896 6.94041,5.5864 6.53069,9.98856 -0.6,6.27304 -4.85798,11.41368 -8.9354,15.90336 -4.5765,4.79392 -9.73026,9.01936 -15.18537,12.77368 -4.72915,3.00776 1.14105,9.72872 4.88976,5.9504 8.72361,-6.14368 17.05833,-13.26704 22.8386,-22.33856 3.48556,-5.5028 5.36304,-12.60976 2.70537,-18.84488 -2.42372,-5.90664 -7.90953,-10.06328 -13.67625,-12.418 -2.51213,-0.9496 -5.20416,-1.44864 -7.89236,-1.36784 z m 0.17376,19.61056 c -4.76026,0.36704 -8.41987,4.05016 -11.30544,7.53104 -2.71296,2.41176 -2.79984,8.12032 1.79415,8.15384 3.59472,-0.51688 4.36041,-4.73024 7.25058,-6.4748 2.80254,-1.63336 7.97568,-3.35856 5.25332,-7.5924 l -1.30724,-1.158 -1.68489,-0.45936 z"/>
    </g>
  </g>
</svg>
