<?xml version='1.0' encoding='ASCII' standalone='yes'?>
<svg xmlns="http://www.w3.org/2000/svg" xmlns:xlink="http://www.w3.org/1999/xlink" version="1.1" width="72.0mm" viewBox="0 0 72.0 72.0" height="72.0mm">
  <g transform="translate(9.557310000000001, 7.448957499999999) scale(1 1) ">
    <defs id="defs1"/>
    <g id="layer1" transform="translate(422.0923,-970.75413)">
      <path id="path32-4-5" style="color:#000000;fill:#000000;stroke:none;stroke-width:1;stroke-linecap:round;stroke-linejoin:round;-inkscape-stroke:none" d="m -392.00933,970.75869 c -7.93164,-0.048 -15.45063,6.46152 -15.95013,14.48728 0.28781,2.37008 0.0984,4.06296 -2.41479,4.8352 -5.89791,3.60592 -11.30287,9.38848 -11.61496,16.64153 -0.61604,7.0744 1.47405,15.1483 7.75089,19.1902 4.97784,3.3938 11.74875,1.994 16.26598,-1.5172 5.03078,-3.586 8.17548,-9.2091 13.23374,-12.7434 2.24687,-1.5052 6.60894,-1.2974 7.29118,1.8602 1.06086,3.0904 -0.53856,8.3583 4.44306,8.3344 4.20071,-0.2622 4.1043,-5.3065 3.47835,-8.3594 -0.89483,-6.5638 -7.72496,-11.3832 -14.21087,-10.2564 -6.42121,1.057 -10.52285,6.6625 -14.68124,11.1208 -2.57508,2.6708 -5.5487,5.8334 -9.54564,5.8522 -4.37606,-1.0256 -6.30776,-5.931 -6.40742,-10.0288 -0.32151,-3.3025 0.47702,-6.7595 2.81904,-9.2062 1.92264,-2.22129 4.36166,-3.93433 6.91716,-5.35153 5.23812,6.50133 15.59994,7.48703 22.15438,2.44008 5.63156,-3.95912 8.1396,-11.94192 5.16759,-18.2664 -2.47795,-5.65944 -8.597,-9.18168 -14.69632,-9.03256 z m 0.13896,7.6796 c 4.23312,-0.29384 8.52121,3.3204 8.13339,7.72176 -0.30864,5.7572 -7.41394,9.1456 -12.35722,6.63928 -3.90449,-1.64344 -5.52368,-6.92816 -3.07329,-10.42232 1.55217,-2.45832 4.42903,-3.87232 7.29712,-3.93872 z m 6.76177,37.60381 c -6.16666,0.217 -3.59177,9.0942 1.3104,8.6515 5.8392,-0.767 3.25372,-8.496 -1.3104,-8.6515 z"/>
    </g>
  </g>
</svg>
