<?xml version='1.0' encoding='ASCII' standalone='yes'?>
<svg xmlns="http://www.w3.org/2000/svg" xmlns:xlink="http://www.w3.org/1999/xlink" version="1.1" width="72.0mm" viewBox="0 0 72.0 72.0" height="72.0mm">
  <g transform="translate(7.885850999999999, 20.456853000000002) scale(1 1) ">
    <defs id="defs1"/>
    <g id="layer1" transform="translate(-492.90734,725.84082)">
      <path id="path32-4-7-5-5" style="color:#000000;fill:#000000;stroke:none;stroke-width:1;stroke-linecap:round;stroke-linejoin:round;-inkscape-stroke:none" d="m 534.37132,-725.83723 c -7.04581,-0.15552 -13.79587,4.76208 -15.85017,11.49448 -7.24128,-0.43656 -14.48266,-0.87312 -21.72394,-1.30968 -5.94518,-0.21648 -4.56288,8.62184 0.69024,7.7392 6.84903,0.41176 13.69815,0.82344 20.54727,1.2352 1.09632,6.53464 7.13817,11.65704 13.72272,11.88384 7.70428,0.56984 15.2353,-5.06688 16.91308,-12.59816 1.66704,-6.28448 -1.25395,-13.49616 -7.04956,-16.56776 -2.20752,-1.22512 -4.72887,-1.85576 -7.25001,-1.87712 z m -0.54048,7.6348 c 3.93936,-0.3476 7.7136,3.01672 7.6416,7.00456 0.20544,5.74344 -6.38361,10.5256 -11.73619,8.21096 -2.68617,-1.0952 -4.80258,-4.16416 -4.12089,-7.09968 -0.22944,-3.1188 2.20627,-5.89568 4.85751,-7.24312 1.04485,-0.51336 2.19408,-0.82112 3.35797,-0.87272 z"/>
    </g>
  </g>
</svg>
