<?xml version='1.0' encoding='ASCII' standalone='yes'?>
<svg xmlns="http://www.w3.org/2000/svg" xmlns:xlink="http://www.w3.org/1999/xlink" version="1.1" width="72.0mm" viewBox="0 0 72.0 72.0" height="72.0mm">
  <g transform="translate(6.703291, 5.354520999999998) scale(1 1) ">
    <defs id="defs1"/>
    <g id="layer1" transform="translate(-584.06418,741.48229)">
      <path id="path64" style="color:#000000;fill:#000000;stroke:none;stroke-width:1;stroke-linecap:round;stroke-linejoin:round;-inkscape-stroke:none" d="m 629.36832,-741.47907 c -6.19757,0.14304 -12.80813,2.91472 -16.02384,8.45344 -3.54009,-6.86016 -12.3386,-9.35688 -19.51094,-7.74192 -5.21635,1.01616 -10.33134,5.60064 -9.71943,11.27832 0.79104,6.638 7.46372,10.708 13.64313,11.40096 3.8066,0.48768 7.8267,-0.0701 11.1674,-2.02904 -0.0288,3.8712 -0.0576,7.7424 -0.0864,11.6136 -5.18909,6.37312 -10.37828,12.74624 -15.56736,19.11944 -3.28262,5.60648 4.3681,7.12296 8.27404,7.95384 10.35389,2.30064 21.15668,1.16584 31.32413,-1.50464 3.80314,-0.986 3.26161,-5.52808 0.82368,-7.59632 -5.59949,-6.85568 -11.19888,-13.71128 -16.79837,-20.56696 -0.72576,-0.8536 -0.15936,-2.27128 -0.32352,-3.36984 0.01,-1.82344 0.0288,-3.64696 0.0384,-5.47048 6.29243,3.794 14.6738,2.50352 20.48775,-1.61776 4.28276,-2.88712 7.1786,-8.86592 4.56932,-13.76312 -2.30775,-4.41752 -7.57488,-6.25056 -12.30327,-6.15952 z m 0.50112,7.68944 c 2.74876,-0.41664 7.08172,2.1492 3.96883,4.8816 -3.26727,3.24136 -8.68108,4.55984 -12.93676,2.61752 -3.15131,-1.97392 0.69408,-5.25696 2.87692,-6.15408 1.88573,-0.92048 3.99245,-1.39168 6.09101,-1.34504 z m -31.91865,0.2232 c 3.14592,-0.007 6.7272,1.0332 8.48284,3.8336 0.80832,3.33392 -3.89769,4.15744 -6.38544,4.11552 -3.00528,-0.11592 -6.41049,-1.12368 -8.07244,-3.82072 -0.99399,-3.19912 3.74629,-4.044 5.97504,-4.1284 z m 15.95932,30.98104 c 3.58185,4.38048 7.16361,8.76104 10.74548,13.14152 -7.01588,1.3056 -14.29719,1.3612 -21.28244,-0.16872 3.51236,-4.32432 7.02461,-8.64856 10.53696,-12.97288 z"/>
    </g>
  </g>
</svg>
