<?xml version='1.0' encoding='ASCII' standalone='yes'?>
<svg xmlns="http://www.w3.org/2000/svg" xmlns:xlink="http://www.w3.org/1999/xlink" version="1.1" width="72.0mm" viewBox="0 0 72.0 72.0" height="72.0mm">
  <g transform="translate(6.241037500000001, 5.7407875) scale(1 1) ">
    <defs id="defs1"/>
    <g id="layer1" transform="translate(-676.98577,741.60532)">
      <path id="path5-6-5-8-3-0" style="color:#000000;fill:#000000;stroke:none;stroke-width:1;stroke-linecap:round;stroke-linejoin:round;-inkscape-stroke:none" d="m 704.25369,-741.59315 c -10.61778,0.1624 -20.01677,7.7536 -24.16914,17.248 -5.5898,12.07376 -3.71597,27.99064 6.42633,37.1208 6.55815,6.13328 16.70035,7.8804 24.93514,4.28336 11.77104,-4.8544 18.74822,-17.78736 18.47645,-30.22112 0.10656,-2.60448 -0.6672,-5.5876 -0.8496,-7.87128 2.45884,-0.52336 5.6784,-0.0298 7.01884,-2.69032 1.83437,-3.95984 -2.85859,-6.2904 -6.168,-5.18616 -1.30204,0.1792 -2.60419,0.35832 -3.90624,0.53752 -4.21335,-7.8608 -12.69303,-13.53152 -21.76339,-13.2208 z m 0.21312,8.10112 c 5.12122,-0.17776 10.15632,2.28888 13.36474,6.24584 -9.95164,1.37088 -19.9032,2.74176 -29.85484,4.11264 3.44985,-5.78336 9.5998,-10.22144 16.4901,-10.35848 z m 17.20455,13.47896 c 3.51849,11.27888 -2.06909,25.13528 -13.27421,29.6244 -6.59328,2.76088 -14.71027,0.6644 -19.18282,-4.89832 -4.5264,-5.34904 -5.88605,-12.88416 -4.47216,-19.64616 12.3097,-1.69328 24.6195,-3.38664 36.92919,-5.07992 z m -8.46336,5.44208 c -5.89008,-0.16728 -5.14964,10.7444 0.98976,8.63712 3.74919,-1.49704 3.81187,-8.58096 -0.98976,-8.63712 z m -14.75385,2.64416 c -6.0099,-0.1584 -4.96695,10.71744 0.98716,8.6312 3.74774,-1.47592 3.79949,-8.58592 -0.98716,-8.6312 z"/>
    </g>
  </g>
</svg>
