<?xml version='1.0' encoding='ASCII' standalone='yes'?>
<svg xmlns="http://www.w3.org/2000/svg" xmlns:xlink="http://www.w3.org/1999/xlink" version="1.1" width="72.0mm" viewBox="0 0 72.0 72.0" height="72.0mm">
  <g transform="translate(7.396204000000001, 8.407211499999999) scale(1 1) ">
    <defs id="defs1"/>
    <g id="layer1" transform="translate(331.25847,-970.75506)">
      <path id="path77-3-1-3" style="color:#000000;fill:#000000;stroke:none;stroke-width:1;stroke-linecap:round;stroke-linejoin:round;-inkscape-stroke:none" d="m -304.15112,970.75869 c -6.97712,0.0481 -13.95509,0.5108 -20.8657,1.48336 -3.85842,0.8448 -3.53387,5.32128 -4.38581,8.3464 -2.45642,13.04584 -2.20288,26.44405 -0.80831,39.59605 0.90077,4.4033 5.97429,3.421 9.3101,4.0887 13.00983,1.3761 26.10412,1.6919 39.17811,1.666 4.39997,-0.3331 4.00997,-5.2759 4.88248,-8.4293 2.66345,-13.7693 3.58544,-27.93289 2.03801,-41.89441 -1.02556,-4.5632 -6.33888,-3.35288 -9.81849,-4.01848 -6.4938,-0.56064 -13.01135,-0.88128 -19.5304,-0.83808 z m 2.53008,8.06152 c 6.33198,0.048 12.65859,0.42624 18.96071,1.03192 1.03432,12.77664 8e-4,25.67417 -2.58466,38.21407 -12.42094,-0.029 -24.85539,-0.505 -37.20206,-1.9149 -1.0782,-12.0955 -0.99743,-24.40685 1.57757,-36.31901 6.38589,-0.74976 12.82008,-1.0572 19.24844,-1.01208 z m -9.37121,6.20616 c -5.36843,1.12152 -4.21675,7.85816 -5.1452,12.04704 0.049,4.45229 -1.34823,9.90239 1.88745,13.43499 3.69848,1.2638 7.74368,0.9542 11.6075,1.1587 4.34938,-0.5146 11.36522,1.2067 12.53689,-4.5185 1.30152,-5.8159 1.34152,-11.84591 0.71328,-17.75111 -1.75567,-5.20528 -8.42595,-3.39984 -12.76951,-4.20056 -2.94113,-0.13632 -5.8874,-0.1728 -8.83043,-0.17088 z m 3.52721,7.87792 c 3.44296,0.0384 6.88482,0.20736 10.3138,0.52128 0.19372,3.3412 0.10464,6.70863 -0.43161,10.01613 -3.52504,0.289 -7.07141,0.242 -10.59657,-0.019 -0.11702,-3.51817 0.11634,-7.04881 0.71442,-10.51817 z"/>
    </g>
  </g>
</svg>
