<?xml version='1.0' encoding='ASCII' standalone='yes'?>
<svg xmlns="http://www.w3.org/2000/svg" xmlns:xlink="http://www.w3.org/1999/xlink" version="1.1" width="72.0mm" viewBox="0 0 72.0 72.0" height="72.0mm">
  <g transform="translate(10.705755, 6.614747999999999) scale(1 1) ">
    <defs id="defs1"/>
    <g id="layer1" transform="translate(-767.5781,739.11936)">
      <path id="path68" style="color:#000000;fill:#000000;stroke:none;stroke-width:1;stroke-linecap:round;stroke-linejoin:round;-inkscape-stroke:none" d="m 813.50343,-739.10779 c -12.27504,0.73096 -24.54999,1.46184 -36.82503,2.19272 -4.81469,0.95544 -3.60528,6.65984 -4.54281,10.29064 -1.88219,13.8556 -3.51428,27.75176 -4.53072,41.7 -0.57216,5.31984 8.22403,5.2692 7.69228,-0.0168 0.22752,-3.07944 0.49152,-6.15608 0.78624,-9.22984 3.88109,-0.55568 7.76228,-1.11128 11.64336,-1.66688 -0.3504,3.83312 -0.7008,7.66632 -1.05177,11.49944 -0.22848,6.21712 8.52845,4.52816 7.77725,-0.68312 0.36384,-3.9792 0.72864,-7.95832 1.09296,-11.93752 4.47801,-0.64168 8.95612,-1.2832 13.43413,-1.9248 -0.37152,4.3268 -0.7968,8.6488 -1.2501,12.96784 -0.54817,5.85568 8.56847,5.04432 7.75506,-0.39984 1.70804,-16.3684 3.71808,-32.88304 2.06756,-49.34352 -0.1488,-1.98896 -2.06073,-3.6172 -4.04813,-3.44776 z m -3.75044,7.90776 c 0.54816,8.1468 0.33216,16.32488 -0.18336,24.46736 -10.88919,1.56408 -21.77779,3.13256 -32.66745,4.69336 1.00253,-9.14936 2.18016,-18.2788 3.45273,-27.39432 9.7994,-0.5888 19.59869,-1.1776 29.39808,-1.7664 z"/>
    </g>
  </g>
</svg>
