<?xml version='1.0' encoding='ASCII' standalone='yes'?>
<svg xmlns="http://www.w3.org/2000/svg" xmlns:xlink="http://www.w3.org/1999/xlink" version="1.1" width="72.0mm" viewBox="0 0 72.0 72.0" height="72.0mm">
  <g transform="translate(14.300396, 9.7154655) scale(1 1) ">
    <defs id="defs1"/>
    <g id="layer1" transform="translate(-867.22316,737.37461)">
      <path id="path71" style="color:#000000;fill:#000000;stroke:none;stroke-width:1;stroke-linecap:round;stroke-linejoin:round;-inkscape-stroke:none" d="m 900.91516,-737.32683 c -2.83928,0.52536 -3.50248,3.46528 -4.83408,5.56256 -2.18706,4.00144 -4.37413,8.0028 -6.56121,12.00416 -3.08236,-4.5756 -6.16483,-9.15128 -9.2472,-13.72688 -2.76604,-4.46032 -9.62055,0.77152 -6.14572,4.63624 2.74147,4.07032 5.48293,8.14072 8.22441,12.21104 -3.9936,0.59696 -7.9871,1.194 -11.9807,1.79096 -5.21214,0.584 -3.43134,9.01512 1.55154,7.53448 3.91787,-0.58672 7.83582,-1.17336 11.75367,-1.76 -3.39657,6.2128 -6.79315,12.42552 -10.18972,18.63824 -2.68868,4.50216 5.1024,8.19336 6.94348,3.33608 3.25661,-5.96216 6.51332,-11.92432 9.76992,-17.88648 3.62151,5.376 7.24289,10.752 10.86441,16.128 2.80344,4.51064 9.38832,-0.61976 6.29856,-4.40952 -3.94664,-5.8608 -7.8932,-11.7216 -11.83986,-17.58232 4.19202,-0.66496 8.4129,-1.18192 12.58618,-1.94296 4.9672,-1.59744 1.80896,-9.07616 -2.87264,-7.27144 -2.46888,0.36944 -4.93784,0.73888 -7.40672,1.10824 2.38944,-4.45592 4.9168,-8.84424 7.21784,-13.34344 0.94848,-2.56128 -1.38848,-5.48512 -4.13216,-5.02696 z"/>
    </g>
  </g>
</svg>
