<?xml version='1.0' encoding='ASCII' standalone='yes'?>
<svg xmlns="http://www.w3.org/2000/svg" xmlns:xlink="http://www.w3.org/1999/xlink" version="1.1" width="72.0mm" viewBox="0 0 72.0 72.0" height="72.0mm">
  <g transform="translate(24.258436, 26.433244000000002) scale(1 1) ">
    <defs id="defs1"/>
    <g id="layer1" transform="translate(773.19873,432.22618)">
      <path style="color:#000000;fill:#000000;stroke:none;stroke-width:1;stroke-linecap:round;stroke-linejoin:round;-inkscape-stroke:none" d="m -754.29644,-431.64766 c -1.97744,0.31882 -2.776,2.18523 -3.81896,3.6185 -1.002,1.47509 -2.004,2.95017 -3.00608,4.42526 -1.70624,-2.35626 -3.41248,-4.7125 -5.11872,-7.06875 -1.94272,-3.011 -7.14672,-1.31394 -6.95328,2.25956 0.025,1.79752 1.37128,3.02622 2.29312,4.4196 2.25336,3.11111 4.5068,6.22223 6.76016,9.33334 1.71368,2.56464 5.4916,1.74476 6.74312,-0.74592 2.33352,-3.43273 4.66712,-6.86547 7.00064,-10.2982 1.95472,-2.66398 -0.59528,-6.70671 -3.9,-5.94342 z" id="path75"/>
    </g>
  </g>
</svg>
