<?xml version='1.0' encoding='ASCII' standalone='yes'?>
<svg xmlns="http://www.w3.org/2000/svg" xmlns:xlink="http://www.w3.org/1999/xlink" version="1.1" width="72.0mm" viewBox="0 0 72.0 72.0" height="72.0mm">
  <g transform="translate(9.2375735, 23.6874125) scale(1 1) ">
    <defs id="defs1"/>
    <g id="layer1" transform="translate(694.67549,438.00073)">
      <path style="color:#000000;fill:#000000;stroke:none;stroke-width:1;stroke-linecap:round;stroke-linejoin:round;-inkscape-stroke:none" d="m -677.06522,-437.92891 c -5.75883,-0.62726 -11.20662,2.93177 -14.22546,7.64311 -1.33411,2.01724 -2.41344,4.21012 -3.1558,6.51315 -1.6517,4.6628 6.13123,7.02469 7.35,2.23125 1.18567,-3.17137 2.93971,-6.51401 6.01831,-8.19868 2.66799,-1.29656 6.04296,-0.39974 7.89045,1.87908 3.69176,4.14704 5.78328,9.88029 10.82226,12.72973 6.77277,3.97524 16.57385,0.9096 19.81176,-6.27052 0.93302,-2.19195 2.2554,-4.92651 0.65184,-7.12913 -2.37706,-3.21113 -7.16863,-0.72336 -7.19683,2.93519 -0.8088,2.36498 -2.84931,4.45878 -5.47643,4.49538 -1.97461,0.28493 -4.08621,-0.23693 -5.39988,-1.81547 -3.7198,-4.09322 -5.80161,-9.71242 -10.64406,-12.75763 -1.92766,-1.25224 -4.1533,-2.05206 -6.44622,-2.25546 z" id="path76"/>
    </g>
  </g>
</svg>
