<?xml version='1.0' encoding='ASCII' standalone='yes'?>
<svg xmlns="http://www.w3.org/2000/svg" xmlns:xlink="http://www.w3.org/1999/xlink" version="1.1" width="72.0mm" viewBox="0 0 72.0 72.0" height="72.0mm">
  <g transform="translate(13.75395, 8.713166999999999) scale(1 1) ">
    <defs id="defs1"/>
    <g id="layer1" transform="translate(600.36474,449.56369)">
      <path style="color:#000000;fill:#000000;stroke:none;stroke-width:1;stroke-linecap:round;stroke-linejoin:round;-inkscape-stroke:none" d="m -559.70897,-448.11015 c -11.68155,-1.71226 -23.67672,-2.16536 -35.325,0.0374 -3.8176,0.97291 -3.26362,5.39136 -3.9601,8.41912 -1.81896,12.8582 -1.62321,25.91336 -0.59616,38.83087 0.5616,4.129 5.17938,3.62833 8.23224,4.2573 9.54558,1.30231 19.19407,1.59953 28.81776,1.57395 4.57524,-0.41059 3.9156,-5.59101 4.65763,-8.87894 1.93644,-13.47802 2.58428,-27.17123 1.45487,-40.7523 -0.10992,-1.73974 -1.55156,-3.27204 -3.28127,-3.48744 z m -30.93751,7.575 c 8.74363,-1.2864 17.64876,-1.04384 26.4,0.0374 0.75244,12.55277 -0.002,25.17208 -1.91249,37.59375 -8.5753,-0.0528 -17.15955,-0.54432 -25.65,-1.78125 -0.79363,-11.94515 -0.73575,-24.00541 1.16249,-35.84994 z" id="path77"/>
    </g>
  </g>
</svg>
