<?xml version='1.0' encoding='ASCII' standalone='yes'?>
<svg xmlns="http://www.w3.org/2000/svg" xmlns:xlink="http://www.w3.org/1999/xlink" version="1.1" width="72.0mm" viewBox="0 0 72.0 72.0" height="72.0mm">
  <g transform="translate(16.602371, 11.424195999999998) scale(1 1) ">
    <defs id="defs1"/>
    <g id="layer1" transform="translate(505.71927,449.33094)">
      <path id="path78" style="color:#000000;fill:#000000;stroke:none;stroke-width:1;stroke-linecap:round;stroke-linejoin:round;-inkscape-stroke:none" d="m -499.71128,-449.3295 c -5.12305,-0.10584 -4.39384,5.66016 -3.77131,9.05554 0.97603,6.63222 4.46268,13.30906 10.60707,16.4547 0.98592,0.34829 -0.54605,1.31221 -0.77453,1.95796 -3.76335,5.17609 -7.52668,10.35217 -11.29003,15.52826 -2.4966,3.56072 1.5132,6.68104 4.88253,6.0788 9.27828,-0.0701 18.55656,-0.13996 27.83484,-0.20995 3.72583,0.048 4.79856,-4.59262 2.53326,-6.9615 -3.25047,-5.05971 -6.50094,-10.11944 -9.75143,-15.17916 5.75036,-1.63092 9.64503,-6.90772 11.26124,-12.44461 0.75609,-2.79744 1.54209,-5.75265 1.15243,-8.66171 -0.5112,-2.14322 -2.73592,-2.87405 -4.69056,-2.89886 -9.33118,-0.90653 -18.66232,-1.81296 -27.99348,-2.71944 z m 4.18208,8.10123 c 6.72537,0.65653 13.45075,1.31299 20.17612,1.96948 -0.21144,4.13446 -2.80185,8.63022 -7.09057,9.53459 -4.11582,0.73786 -8.95218,-0.68064 -11.01867,-4.56474 -1.21382,-2.12061 -2.07021,-4.47093 -2.06688,-6.93933 z m 9.28191,22.23491 c 2.33826,3.63803 4.67652,7.27604 7.01476,10.91407 -5.00724,0.0317 -10.01448,0.0624 -15.02172,0.0941 2.669,-3.66938 5.33798,-7.33877 8.00696,-11.00815 z"/>
    </g>
  </g>
</svg>
