<?xml version="1.0" encoding="UTF-8" standalone="no"?>
<svg
   version="1.1"
   width="72.0mm"
   viewBox="0 0 72.0 72.0"
   height="72.0mm"
   id="svg1"
   sodipodi:docname="lon_lawa.svg"
   inkscape:version="1.3.2 (091e20e, 2023-11-25, custom)"
   xmlns:inkscape="http://www.inkscape.org/namespaces/inkscape"
   xmlns:sodipodi="http://sodipodi.sourceforge.net/DTD/sodipodi-0.dtd"
   xmlns="http://www.w3.org/2000/svg"
   xmlns:svg="http://www.w3.org/2000/svg">
  <defs
     id="defs2" />
  <sodipodi:namedview
     id="namedview1"
     pagecolor="#ffffff"
     bordercolor="#000000"
     borderopacity="0.25"
     inkscape:showpageshadow="2"
     inkscape:pageopacity="0.0"
     inkscape:pagecheckerboard="0"
     inkscape:deskcolor="#d1d1d1"
     inkscape:document-units="mm"
     inkscape:zoom="0.8038301"
     inkscape:cx="-6.2202199"
     inkscape:cy="376.32331"
     inkscape:window-width="1920"
     inkscape:window-height="1009"
     inkscape:window-x="-8"
     inkscape:window-y="-8"
     inkscape:window-maximized="1"
     inkscape:current-layer="svg1" />
  <path
     id="path1"
     style="color:#000000;fill:#000000;stroke-linecap:round;stroke-linejoin:round;-inkscape-stroke:none"
     d="m 38.518193,54.293327 c -0.403402,-0.02124 -0.807634,0.02113 -1.19786,0.125574 -0.986572,0.264595 -1.827562,0.910395 -2.337842,1.795239 l -0.781347,1.353406 c -1.063608,1.841257 -0.433131,4.196117 1.408182,5.259627 1.841798,1.063262 4.196827,0.431814 5.259628,-1.41025 l 0.781347,-1.353405 C 42.713909,58.222261 42.083432,55.8674 40.242118,54.80389 39.715826,54.500029 39.125077,54.325071 38.518193,54.293327 Z M 21.882516,74.94943 c -2.125809,3.46e-4 -3.849032,1.723569 -3.849378,3.849378 3.47e-4,2.125809 1.723569,3.849031 3.849378,3.849377 H 53.966862 V 74.94943 Z"
     sodipodi:nodetypes="ccccccccccccccc" />
</svg>
