<?xml version='1.0' encoding='ASCII' standalone='yes'?>
<svg xmlns="http://www.w3.org/2000/svg" xmlns:xlink="http://www.w3.org/1999/xlink" version="1.1" width="72.0mm" viewBox="0 0 72.0 72.0" height="72.0mm">
  <g transform="translate(5.178685999999999, 9.207189499999998) scale(1 1) ">
    <defs id="defs1"/>
    <g id="layer1" transform="translate(337.04359,450.40621)">
      <path style="color:#000000;fill:#000000;stroke:none;stroke-width:1;stroke-linecap:round;stroke-linejoin:round;-inkscape-stroke:none" d="m -295.05272,-450.24767 c -7.72581,-0.84595 -16.26924,1.66378 -20.9106,8.243 -4.821,6.7493 -5.98428,15.40905 -5.67037,23.51224 0.18873,2.70108 0.88291,5.32803 1.30597,7.99477 -3.48125,-3.35624 -6.9625,-6.7125 -10.44374,-10.06875 -4.77822,-4.08473 -8.84062,3.87525 -4.2834,6.53589 5.55914,5.36523 11.1183,10.73046 16.67746,16.09569 3.85178,3.46218 8.09987,-1.90685 5.96346,-5.70536 -1.69302,-9.32844 -2.73238,-19.17695 0.0154,-28.40722 1.3963,-4.89459 5.10014,-9.54835 10.3764,-10.35674 4.67228,-0.64762 9.91234,-0.43719 13.94982,2.26728 4.67595,3.56002 5.23659,10.04552 4.92634,15.47536 -0.55633,7.51823 -2.73458,14.83406 -5.5503,21.7951 -2.32176,4.79291 5.94928,7.73812 7.24452,2.60071 3.88359,-9.67893 6.74323,-20.1218 5.90374,-30.63397 -0.52734,-6.72343 -3.99098,-13.48422 -10.16894,-16.63036 -2.86992,-1.56597 -6.09005,-2.4222 -9.33556,-2.71764 z" id="path82"/>
    </g>
  </g>
</svg>
