<?xml version='1.0' encoding='ASCII' standalone='yes'?>
<svg xmlns="http://www.w3.org/2000/svg" xmlns:xlink="http://www.w3.org/1999/xlink" version="1.1" width="72.0mm" viewBox="0 0 72.0 72.0" height="72.0mm">
  <g transform="translate(7.010492500000002, 15.522011) scale(1 1) ">
    <defs id="defs1"/>
    <g id="layer1" transform="translate(239.68898,444.11673)">
      <path id="path83" style="color:#000000;fill:#000000;stroke:none;stroke-width:1;stroke-linecap:round;stroke-linejoin:round;-inkscape-stroke:none" d="m -209.37737,-444.11555 c -9.38903,0.1008 -19.29243,3.13515 -25.73823,10.26059 -4.19472,4.53411 -5.97114,11.48778 -3.328,17.24317 3.22748,7.2262 10.87141,11.24144 18.31914,12.71119 10.09426,1.89203 21.15706,0.21897 29.65278,-5.75666 5.46701,-3.81152 9.69284,-10.3692 8.58395,-17.24534 -1.10747,-7.2432 -7.36496,-12.44884 -13.90995,-14.87607 -4.31901,-1.653 -8.96564,-2.37134 -13.57969,-2.33688 z m 0.0547,7.67458 c 6.35032,0.0374 13.29283,1.58317 17.76958,6.40297 2.61214,2.73015 2.81602,7.20666 0.54786,10.2095 -4.10084,5.61225 -11.2152,8.0922 -17.88968,8.83089 -6.95596,0.62928 -14.58744,-0.55094 -20.01313,-5.24928 -2.7866,-2.31759 -4.04831,-6.47954 -2.31296,-9.79009 2.81633,-5.39584 8.84952,-8.17437 14.50913,-9.55139 2.42105,-0.55747 4.90524,-0.84278 7.38916,-0.85258 z m -1.34937,7.97718 c -4.86722,-0.0643 -6.41169,9.0455 -0.52569,8.89174 3.1897,-0.33321 5.74761,-5.03859 3.31843,-7.64335 -0.70473,-0.77184 -1.72637,-1.24106 -2.79276,-1.24839 z"/>
    </g>
  </g>
</svg>
