<?xml version='1.0' encoding='ASCII' standalone='yes'?>
<svg xmlns="http://www.w3.org/2000/svg" xmlns:xlink="http://www.w3.org/1999/xlink" version="1.1" width="72.0mm" viewBox="0 0 72.0 72.0" height="72.0mm">
  <g transform="translate(9.8737085, 10.065466) scale(1 1) ">
    <defs id="defs1"/>
    <g id="layer1" transform="translate(144.59897,452.66849)">
      <path style="color:#000000;fill:#000000;stroke:none;stroke-width:1;stroke-linecap:round;stroke-linejoin:round;-inkscape-stroke:none" d="m -135.73397,-452.51641 c -5.05887,-1.16959 -5.55747,4.68271 -6.58747,8.10766 -2.20851,9.21083 -3.47504,19.10534 -0.64531,28.32398 1.89051,6.38503 6.94703,11.66733 13.27739,13.74645 8.90259,3.04574 19.74986,1.68404 26.61788,-5.10308 7.128348,-7.06897 9.568916,-17.36854 10.448212,-27.05317 0.306048,-3.77234 0.381888,-7.5701 0.108,-11.34684 -0.272736,-5.30059 -8.821332,-4.01102 -7.620492,1.11588 0.3261,9.04217 -0.41608,18.48303 -4.55652,26.67736 -2.52173,5.12852 -7.546,9.20552 -13.40044,9.49212 -5.38907,0.36903 -11.70312,-0.52944 -15.12992,-5.18238 -3.94222,-5.4103 -4.00696,-12.54852 -3.40959,-18.94582 0.54999,-5.30375 1.81504,-10.50761 3.40787,-15.58615 0.32679,-1.78378 -0.7894,-3.67219 -2.50965,-4.24601 z" id="path85"/>
    </g>
  </g>
</svg>
