<?xml version='1.0' encoding='ASCII' standalone='yes'?>
<svg xmlns="http://www.w3.org/2000/svg" xmlns:xlink="http://www.w3.org/1999/xlink" version="1.1" width="72.0mm" viewBox="0 0 72.0 72.0" height="72.0mm">
  <g transform="translate(8.264906, 6.271444500000001) scale(1 1) ">
    <defs id="defs1"/>
    <g id="layer1" transform="translate(58.635422,455.18858)">
      <path id="path86" style="color:#000000;fill:#000000;stroke:none;stroke-width:1;stroke-linecap:round;stroke-linejoin:round;-inkscape-stroke:none" d="m -28.630604,-455.17844 c -12.590448,-0.35904 -24.096848,8.86183 -28.095776,20.53531 -4.090568,11.01297 -1.594696,24.60481 7.365288,32.5259 7.032856,6.4186 17.743784,8.13624 26.513024,4.52551 12.524688,-4.82865 20.608704,-18.44526 19.597736,-31.72006 -0.54432,-10.09287 -6.6744,-20.02309 -16.202776,-23.89499 -2.901352,-1.21999 -6.030224,-1.89787 -9.177496,-1.97167 z m -2.247176,7.73911 c -0.871488,5.23874 -1.742944,10.47749 -2.614424,15.71624 -5.29,-0.21994 -10.580016,-0.43988 -15.870016,-0.65981 2.848176,-7.85404 9.975336,-14.31706 18.48444,-15.05645 z m 7.619992,0.98227 c 6.66196,2.31761 11.196096,8.81955 12.159472,15.6667 -4.88816,-0.20342 -9.776416,-0.40685 -14.664584,-0.61017 0.835104,-5.01883 1.670048,-10.03767 2.505112,-15.0565 z m -27.691936,21.68921 c 5.3958,0.22493 10.791696,0.44976 16.187488,0.67469 -1.099648,6.60468 -2.199304,13.20933 -3.298952,19.81401 -8.050304,-2.52986 -13.020656,-11.01715 -12.915008,-19.21284 -0.0026,-0.42537 0.0062,-0.85209 0.02688,-1.27584 z m 23.916704,0.99716 c 5.2768,0.21993 10.553504,0.43987 15.830296,0.6598 -1.526616,9.48599 -9.080088,18.21579 -18.84484,19.53552 -0.716256,-0.21753 0.172704,-1.98001 0.12624,-2.84222 0.962768,-5.78435 1.925544,-11.56872 2.88832,-17.35308 z"/>
    </g>
  </g>
</svg>
