<?xml version='1.0' encoding='ASCII' standalone='yes'?>
<svg xmlns="http://www.w3.org/2000/svg" xmlns:xlink="http://www.w3.org/1999/xlink" version="1.1" width="72.0mm" viewBox="0 0 72.0 72.0" height="72.0mm">
  <g transform="translate(9.147468499999999, 18.020941) scale(1 1) ">
    <defs id="defs1"/>
    <g id="layer1" transform="translate(514.54181,-1262.9718)">
      <path id="path190-1" style="color:#000000;fill:#000000;stroke:none;stroke-width:1;stroke-linecap:round;stroke-linejoin:round;-inkscape-stroke:none" d="m -487.48752,1262.9777 c -3.22488,-0.164 -4.16288,3.124 -3.98453,5.6924 -0.0845,3.5843 -0.168,7.1688 -0.25219,10.7532 -0.2951,5.3468 8.35807,4.8344 7.67782,-0.3292 0.0778,-4.26 0.27773,-8.5215 0.27753,-12.7803 -0.21168,-1.8357 -1.87101,-3.3241 -3.71865,-3.3361 z m 17.79487,6.3352 c -2.54791,0.288 -3.76771,2.6892 -5.44452,4.3077 -2.02824,2.2335 -4.05645,4.4671 -6.0847,6.7007 -3.87671,4.5057 3.86592,8.9278 6.46458,4.2923 2.80776,-3.1293 5.70625,-6.1823 8.455,-9.3611 1.72457,-2.4759 -0.26506,-6.1924 -3.39036,-5.9396 z m -36.88456,2.7336 c -4.57964,0.3896 -4.19892,5.9766 -1.01564,7.826 2.79752,2.4497 5.59505,4.8996 8.39258,7.3494 3.97491,3.6455 8.95882,-3.2878 4.7481,-6.0506 -3.114,-2.7276 -6.22799,-5.4551 -9.34196,-8.1827 l -1.2978,-0.7478 -1.48528,-0.1949 z m 42.07866,14.6792 c -3.77853,0.4397 -7.52534,1.165 -11.29109,1.7199 -5.83951,1.0853 -2.574,9.3817 2.35148,7.3927 3.32164,-0.5558 6.66544,-0.999 9.97257,-1.6282 3.92443,-1.1792 3.3529,-7.336 -1.03296,-7.4844 z m -31.93353,3.8348 c -4.85676,0.2064 -9.71352,0.4138 -14.57028,0.6202 -5.36811,0.067 -4.26459,8.7012 0.85479,7.6625 4.88286,-0.238 9.77562,-0.3551 14.65216,-0.671 4.45697,-0.8035 3.88544,-7.8467 -0.93667,-7.612 z"/>
    </g>
  </g>
</svg>
