<?xml version='1.0' encoding='ASCII' standalone='yes'?>
<svg xmlns="http://www.w3.org/2000/svg" xmlns:xlink="http://www.w3.org/1999/xlink" version="1.1" width="72.0mm" viewBox="0 0 72.0 72.0" height="72.0mm">
  <g transform="translate(10.9960555, 2.683906499999999) scale(1 1) ">
    <defs id="defs1"/>
    <g id="layer1" transform="translate(-37.918395,455.19682)">
      <path id="path89" style="color:#000000;fill:#000000;stroke:none;stroke-width:1;stroke-linecap:round;stroke-linejoin:round;-inkscape-stroke:none" d="m 64.183582,-455.18336 c -11.512157,-0.38899 -22.919894,7.6955 -25.593283,19.04091 -2.376672,8.99338 1.727318,19.06932 9.537321,24.038 1.260672,1.2982 4.783508,1.87741 4.88042,3.00266 -4.163108,4.01628 -5.502864,11.1082 -1.781472,15.85339 4.466131,5.94403 13.604534,5.88787 19.278518,1.75775 5.068032,-3.38698 8.122176,-10.44081 5.153184,-16.15707 -0.79296,-1.77075 -3.281856,-3.20497 -0.16608,-3.90066 8.739456,-4.92048 14.219232,-15.57056 11.901408,-25.51991 -1.939392,-9.57376 -10.722048,-16.7872 -20.266944,-17.89276 -0.975744,-0.1296 -1.958784,-0.20376 -2.94288,-0.22224 z m -0.144,7.64969 c 7.47696,-0.0749 14.965632,5.36251 16.00944,12.99302 1.300992,7.82414 -4.349664,15.5241 -11.694048,17.86491 -7.333853,2.73027 -16.635917,0.23146 -20.680522,-6.7143 -3.781353,-6.09265 -2.041728,-14.48512 3.225332,-19.14254 3.515001,-3.28329 8.345011,-5.05805 13.139798,-5.00109 z m -10.904074,11.90135 c -5.774841,-0.0403 -4.224614,9.63795 1.304688,7.76845 4.184333,-1.18841 3.170583,-7.9409 -1.304688,-7.76845 z m 19.069834,0.0993 c -5.642784,-0.0413 -4.328928,9.64525 1.304736,7.76873 4.17792,-1.22802 3.179328,-7.89909 -1.304736,-7.76873 z m -7.51584,29.17029 c 3.318048,-0.32151 5.769888,3.47763 3.662304,6.23539 -2.066592,3.46824 -7.585968,5.4543 -10.812394,2.43942 -2.099961,-2.67862 0.37344,-6.31415 2.97408,-7.59356 1.271914,-0.69849 2.718058,-1.1216 4.17601,-1.08125 z"/>
    </g>
  </g>
</svg>
