<?xml version='1.0' encoding='ASCII' standalone='yes'?>
<svg xmlns="http://www.w3.org/2000/svg" xmlns:xlink="http://www.w3.org/1999/xlink" version="1.1" width="72.0mm" viewBox="0 0 72.0 72.0" height="72.0mm">
  <g transform="translate(11.610195000000001, 7.492389500000002) scale(1 1) ">
    <defs id="defs1"/>
    <g id="layer1" transform="translate(-130.3642,452.90168)">
      <path id="path91" style="color:#000000;fill:#000000;stroke:none;stroke-width:1;stroke-linecap:round;stroke-linejoin:round;-inkscape-stroke:none" d="m 175.10515,-452.89146 c -5.2534,0.93773 -2.96889,6.85071 -4.16227,10.51719 -0.51648,1.45795 -1.0631,5.99409 -2.94768,4.72113 -7.05331,-5.48388 -17.44905,-5.88197 -24.96441,-1.09121 -1.42637,0.93888 -2.95738,2.69762 -3.79901,0.16061 -1.76727,-3.18828 -1.14883,-6.98184 -0.552,-10.38305 -0.1776,-4.9805 -7.86787,-4.27053 -7.8361,0.46522 -1.31059,6.03365 0.01,12.92161 4.64851,17.24961 -5.52912,8.52656 -4.52332,20.59749 2.40394,28.04982 6.30979,7.25565 17.54275,9.44063 26.11162,5.07673 9.20371,-4.30812 14.66361,-15.0935 12.775,-25.0646 0.048,-2.97339 -2.81692,-6.08207 -2.44089,-8.46039 4.06848,-4.76298 4.8504,-11.38596 4.7997,-17.42667 0.0384,-2.11896 -1.92,-3.97884 -4.03621,-3.81448 z m -20.43408,18.46462 c 7.05648,-0.15033 13.50269,5.51786 14.54554,12.45209 1.42186,7.42298 -3.18173,15.56766 -10.50509,17.74707 -6.61824,2.23044 -14.43955,-1.14705 -17.44137,-7.4336 -3.84058,-7.26269 -0.83328,-17.23764 6.50947,-21.00878 2.10758,-1.13717 4.49683,-1.75474 6.89145,-1.75678 z m 7.37693,7.10406 c -5.78246,-0.0576 -4.23177,9.63989 1.29994,7.76893 4.16275,-1.15863 3.18672,-7.96529 -1.29994,-7.76893 z m -15.13085,2.22251 c -6.64819,0.11328 -3.31296,11.1641 2.3114,8.31938 3.523,-1.70158 1.99852,-6.98815 -1.1258,-8.13586 l -1.18579,-0.18317 z"/>
    </g>
  </g>
</svg>
