<?xml version='1.0' encoding='ASCII' standalone='yes'?>
<svg xmlns="http://www.w3.org/2000/svg" xmlns:xlink="http://www.w3.org/1999/xlink" version="1.1" width="72.0mm" viewBox="0 0 72.0 72.0" height="72.0mm">
  <g transform="translate(10.6767675, 0.9506299999999968) scale(1 1) ">
    <defs id="defs1"/>
    <g id="layer1" transform="translate(-221.70362,456.30581)">
      <path id="path96" style="color:#000000;fill:#000000;stroke:none;stroke-width:0.999312;stroke-linecap:round;stroke-linejoin:round;-inkscape-stroke:none" d="m 248.35843,-456.30457 c -11.4456,-0.007 -22.3512,8.38783 -25.48071,19.10741 -3.62149,10.97323 1.36032,23.75712 11.83739,28.72892 1.51584,1.78439 6.88041,0.53962 5.82796,3.54401 0.23712,1.57326 -1.44442,0.74467 -2.42188,0.79785 -2.26148,-0.10684 -4.99959,-0.99833 -6.62871,1.3434 -2.53575,4.00152 1.90963,6.4585 5.41959,6.25756 0.80736,0.27677 2.81193,-0.36557 2.13993,1.04454 -0.23616,2.26902 -1.07232,4.54658 -0.55392,6.80423 1.85952,4.79084 8.05996,1.83796 7.62384,-2.30733 0.24384,-1.55619 0.48864,-3.11211 0.73344,-4.66831 2.1576,0.0845 4.31664,0.63705 6.47559,0.26995 4.97941,-1.82935 1.9437,-8.30281 -2.56715,-7.6362 -0.77856,-0.32601 -2.82576,0.32026 -2.63808,-0.7463 0.19104,-1.43481 0.0864,-3.11053 2.19659,-2.71517 11.28576,-2.05997 20.56233,-11.99552 21.79285,-22.98129 1.58487,-10.87873 -4.9821,-22.16226 -15.67939,-25.57033 -2.57328,-0.86573 -5.31648,-1.30181 -8.07705,-1.27282 z m -0.2976,7.55551 c 8.06217,-0.23568 15.1728,5.89582 16.24425,13.50898 1.62999,8.96356 -4.78377,18.99716 -14.22018,21.1641 -7.75642,2.0816 -16.26643,-1.99974 -19.16382,-9.03779 -3.9405,-8.53735 0.64608,-19.94129 9.73383,-23.95306 2.32407,-1.07277 4.87209,-1.663 7.40601,-1.6822 z"/>
    </g>
  </g>
</svg>
