<?xml version='1.0' encoding='ASCII' standalone='yes'?>
<svg xmlns="http://www.w3.org/2000/svg" xmlns:xlink="http://www.w3.org/1999/xlink" version="1.1" width="72.0mm" viewBox="0 0 72.0 72.0" height="72.0mm">
  <g transform="translate(12.84873, 9.3618795) scale(1 1) ">
    <defs id="defs1"/>
    <g id="layer1" transform="translate(415.35853,-1256.79)">
      <path id="path264" style="color:#000000;fill:#000000;stroke:none;stroke-width:1;stroke-linecap:round;stroke-linejoin:round;-inkscape-stroke:none" d="m -373.29666,1256.8213 c -3.01371,0.2246 -3.45616,3.3065 -3.91476,5.6321 -3.07062,14.368 -6.14126,28.736 -9.21189,43.1041 -1.29822,5.1059 7.24847,6.3804 7.58954,1.1778 3.22649,-15.0984 6.453,-30.1968 9.67949,-45.2954 0.59875,-2.4464 -1.63168,-4.9602 -4.14238,-4.6186 z m -35.32683,2.4605 c -3.33963,-0.2793 -4.26048,3.108 -4.20569,5.6971 -0.8355,12.8334 -1.67098,25.6668 -2.50647,38.5 -0.523,5.2248 8.09943,5.2467 7.69716,0.067 0.87216,-13.3908 1.74441,-26.7815 2.61663,-40.1723 0.18,-2.0681 -1.52734,-4.0059 -3.60163,-4.0878 z m 13.55824,17.5171 c -4.73607,0.2612 -4.35856,6.4406 -0.68679,7.8805 4.90968,3.425 8.56275,-4.8335 3.66012,-6.7801 -0.87129,-0.6192 -1.85209,-1.2026 -2.9733,-1.1004 z"/>
    </g>
  </g>
</svg>
