<?xml version='1.0' encoding='ASCII' standalone='yes'?>
<svg xmlns="http://www.w3.org/2000/svg" xmlns:xlink="http://www.w3.org/1999/xlink" version="1.1" width="72.0mm" viewBox="0 0 72.0 72.0" height="72.0mm">
  <g transform="translate(15.410923, 5.849271999999999) scale(1 1) ">
    <defs id="defs1"/>
    <g id="layer1" transform="translate(-319.30837,454.0147)">
      <path id="path99" style="color:#000000;fill:#000000;stroke:none;stroke-width:1;stroke-linecap:round;stroke-linejoin:round;-inkscape-stroke:none" d="m 341.87212,-454.01259 c -9.28396,0.0883 -19.00224,5.68934 -21.89193,14.84234 -0.98832,2.91753 -0.75936,6.03833 -0.12672,8.99342 1.16832,11.04698 2.33664,22.09405 3.50496,33.14104 1.32,6.43957 9.24941,2.37546 7.46391,-2.54891 -0.75648,-7.10611 -1.51326,-14.21211 -2.26983,-21.31813 10.60388,4.81768 24.69197,0.25287 30.13401,-10.12756 2.97552,-5.48211 2.2728,-12.80856 -2.1886,-17.29476 -3.72528,-3.95695 -9.28013,-5.76012 -14.62541,-5.68744 z m 0.7488,7.68441 c 4.27883,0.0509 9.35406,2.24976 10.13444,6.90222 0.648,4.90933 -3.37737,9.01901 -7.4978,10.99649 -5.0566,2.43066 -11.83276,2.68794 -16.1998,-1.27608 -3.00854,-2.78964 -2.5223,-7.69099 0.048,-10.59995 3.19459,-4.00591 8.44599,-6.15314 13.51479,-6.02268 z"/>
    </g>
  </g>
</svg>
