<?xml version='1.0' encoding='ASCII' standalone='yes'?>
<svg xmlns="http://www.w3.org/2000/svg" xmlns:xlink="http://www.w3.org/1999/xlink" version="1.1" width="72.0mm" viewBox="0 0 72.0 72.0" height="72.0mm">
  <g transform="translate(6.4269675, 3.041167999999999) scale(1 1) ">
    <defs id="defs1"/>
    <g id="layer1" transform="translate(-399.45092,461.52349)">
      <path id="path101" style="color:#000000;fill:#000000;stroke:none;stroke-width:1;stroke-linecap:round;stroke-linejoin:round;-inkscape-stroke:none" d="m 452.82844,-461.52347 c -5.29392,0.88791 -10.52208,2.20469 -15.78988,3.2635 -6.28925,0.76963 -2.99252,9.78259 2.24851,7.36334 1.12214,-0.23832 2.24429,-0.47664 3.36644,-0.71491 -2.30679,2.73017 -4.61367,5.46034 -6.92046,8.19051 -9.7197,-5.01094 -22.59965,-2.80239 -29.86013,5.454 -7.84291,8.34135 -8.53603,22.0945 -1.89301,31.34713 6.28204,9.38858 19.15852,13.50758 29.71257,9.46549 10.27104,-3.57214 17.18793,-14.50925 16.15863,-25.31254 -0.4512,-6.21891 -3.28484,-12.22519 -7.80779,-16.51898 2.67563,-3.16342 5.35124,-6.32686 8.02685,-9.49027 0.50688,2.7234 0.33696,5.62721 1.58574,8.15306 3.17625,3.97076 8.16181,-0.37853 6.66864,-4.23945 -0.5952,-4.53908 -1.19022,-9.07815 -1.78532,-13.6172 -0.19776,-1.82733 -1.87287,-3.33621 -3.71079,-3.3437 z m -28.71888,23.06339 c 9.1418,-0.29184 17.59037,7.44159 18.13211,16.56691 0.85056,8.38939 -5.37159,16.71697 -13.66023,18.2717 -8.64153,1.97705 -18.02745,-3.63238 -20.6402,-12.0487 -2.70805,-7.66442 0.85632,-16.882 8.06823,-20.66442 2.47076,-1.36116 5.28086,-2.09142 8.10009,-2.12549 z"/>
    </g>
  </g>
</svg>
