<?xml version='1.0' encoding='ASCII' standalone='yes'?>
<svg xmlns="http://www.w3.org/2000/svg" xmlns:xlink="http://www.w3.org/1999/xlink" version="1.1" width="72.0mm" viewBox="0 0 72.0 72.0" height="72.0mm">
  <g transform="translate(13.8148175, 3.867965499999997) scale(1 1) ">
    <defs id="defs1"/>
    <g id="layer1" transform="translate(234.2022,-966.21899)">
      <path id="path250" style="color:#000000;fill:#000000;stroke:none;stroke-width:0.99988;stroke-linecap:round;stroke-linejoin:round;-inkscape-stroke:none" d="m -208.49924,966.21949 c -7.92476,0.048 -14.51476,5.87264 -18.5674,12.26232 -6.01538,9.61416 -8.32224,21.40624 -6.55885,32.42639 1.25921,7.4231 4.95006,15.1815 12.19005,18.3715 6.26623,2.8154 13.73,0.3897 18.64605,-4.1589 8.15396,-7.4335 12.07475,-18.4643 12.86335,-29.11763 0.54067,-8.79304 -1.1594,-18.3432 -7.35548,-24.87984 -2.88974,-3.00736 -6.95081,-4.9336 -11.218,-4.904 z m -0.19852,7.63976 c 5.06708,0.0384 8.16845,4.81824 9.58499,9.08248 0.90949,2.67528 1.36327,5.496 1.50761,8.32576 -9.57317,1.30552 -19.195,2.84544 -28.38648,6.01264 1.30527,-7.84544 4.565,-15.94184 11.02744,-21.0536 1.81215,-1.352 3.9834,-2.36616 6.26644,-2.36728 z m 10.69576,25.2264 c -1.27324,7.99335 -4.55237,16.27285 -11.16024,21.45355 -3.03056,2.4565 -7.69648,3.2653 -10.83373,0.7248 -4.60096,-3.6929 -6.03754,-9.9312 -6.42588,-15.5851 9.1092,-3.5682 18.83038,-5.1284 28.41985,-6.59325 z"/>
    </g>
  </g>
</svg>
