<?xml version='1.0' encoding='ASCII' standalone='yes'?>
<svg xmlns="http://www.w3.org/2000/svg" xmlns:xlink="http://www.w3.org/1999/xlink" version="1.1" width="72.0mm" viewBox="0 0 72.0 72.0" height="72.0mm">
  <g transform="translate(7.5454444999999986, 5.775406) scale(1 1) ">
    <defs id="defs1"/>
    <g id="layer1" transform="translate(-488.48172,454.00466)">
      <path id="path82-6" style="color:#000000;fill:#000000;stroke:none;stroke-width:1;stroke-linecap:round;stroke-linejoin:round;-inkscape-stroke:none" d="m 536.7526,-453.99774 c -10.23109,0.38199 -20.4622,0.76397 -30.69331,1.14598 -5.50674,0.98061 -3.25362,6.98791 -2.65997,10.67177 1.34429,5.7446 3.43883,11.80132 8.112,15.70552 -4.47273,3.97774 -6.74274,10.09315 -6.739,15.99652 0.43488,1.94673 1.00224,4.41911 -0.89664,1.98922 -3.04713,-2.94428 -6.09437,-5.88856 -9.1416,-8.83285 -4.81785,-4.06493 -8.80742,3.91999 -4.24425,6.57063 5.55436,5.36028 11.10882,10.72056 16.66329,16.08084 4.51498,3.65992 7.87689,-2.54083 5.79255,-6.38741 -1.06619,-6.25031 -1.49367,-13.55673 2.76009,-18.76978 3.42336,-3.87081 9.09399,-4.52773 13.95484,-3.9653 4.57019,0.54653 6.98247,5.20429 7.58708,9.317 0.86304,5.15029 0.3696,10.43645 -0.64032,15.52884 -1.41236,5.44884 7.5601,6.41925 7.65466,0.97433 1.45785,-7.93844 1.97078,-16.57332 -1.37319,-24.12654 -1.66819,-3.66524 -4.71015,-6.69582 -8.4742,-8.17612 4.68969,-5.51436 6.40857,-12.96431 6.31525,-20.06699 -0.0384,-2.03722 -1.94371,-3.78672 -3.97728,-3.65566 z m -4.25653,7.83828 c -0.048,5.04622 -2.13323,10.52828 -6.5208,13.34135 -2.95056,1.71901 -7.33248,2.99073 -9.98823,0.0566 -3.16964,-3.38482 -4.62873,-8.0505 -5.05085,-12.59435 7.18665,-0.26784 14.37321,-0.53577 21.55988,-0.80371 z"/>
    </g>
  </g>
</svg>
