<?xml version='1.0' encoding='ASCII' standalone='yes'?>
<svg xmlns="http://www.w3.org/2000/svg" xmlns:xlink="http://www.w3.org/1999/xlink" version="1.1" width="72.0mm" viewBox="0 0 72.0 72.0" height="72.0mm">
  <g transform="translate(7.628299500000001, 2.5465315000000004) scale(1 1) ">
    <defs id="defs1"/>
    <g id="layer1" transform="translate(-584.14736,456.80104)">
      <path id="path105" style="color:#000000;fill:#000000;stroke:none;stroke-width:1;stroke-linecap:round;stroke-linejoin:round;-inkscape-stroke:none" d="m 614.27212,-456.80067 c -11.25091,-0.0634 -21.06144,7.9337 -25.88035,17.69134 -6.33398,12.44932 -5.81193,28.77003 3.14467,39.83855 5.75693,7.32537 15.81044,10.9888 24.89339,8.69871 11.43522,-2.75109 19.83589,-12.92341 22.91625,-23.94324 3.50361,-12.04988 1.14249,-26.35112 -8.06073,-35.31123 -4.50192,-4.39502 -10.70852,-6.99161 -17.01323,-6.97413 z m -0.048,7.67952 c 7.908,-0.15552 14.53268,6.03806 17.10923,13.15844 0.17472,0.87302 1.94965,4.23896 -0.10368,2.33237 -3.05031,-1.24505 -5.01899,1.67833 -7.10843,3.30129 -1.44537,-1.76054 -2.56387,-3.82095 -4.33555,-5.28215 -1.86893,-2.13542 -4.78944,2.2688 -5.3928,-0.79997 -2.50512,-2.78903 -5.56473,-0.36105 -7.51026,1.5925 -0.77856,0.5424 -1.65006,2.17267 -2.24718,0.59904 -1.69229,-1.99257 -3.10704,-4.24548 -5.03298,-6.01886 -2.44043,-0.84547 1.82112,-3.19598 2.76604,-4.39404 3.34425,-2.68819 7.52361,-4.47211 11.85561,-4.48855 z m -19.58083,14.67446 c 1.63555,2.06375 3.27102,4.12751 4.90647,6.19126 -2.28375,2.04391 -4.5674,4.08782 -6.85104,6.13173 -1.64055,2.90145 -0.6144,-2.21233 -0.59712,-3.40545 0.41856,-3.07268 1.26921,-6.08923 2.54151,-8.91754 z m 19.57104,3.35855 c 1.07712,2.12026 2.75011,3.86881 4.10755,5.8142 -1.32124,1.15095 -2.64249,2.30188 -3.96373,3.45282 -1.301,-1.93993 -2.87396,-3.6881 -4.29083,-5.54624 1.38087,-1.24167 2.77307,-2.47221 4.14701,-3.72078 z m 18.8713,2.81283 c 0.30432,3.46208 0.0288,6.97203 -0.79392,10.34857 -0.096,-2.55762 -2.24073,-4.23354 -3.547,-6.25079 1.44613,-1.36463 3.1582,-2.48145 4.34044,-4.09778 z m -28.75852,6.04241 c 1.63689,1.87373 2.88412,4.13639 4.93353,5.59839 1.16007,1.66648 3.56007,-1.51654 3.91191,0.94502 2.46787,2.83189 5.56627,0.44026 7.53868,-1.49149 0.80064,-0.42317 1.73223,-2.08065 2.44512,-1.66592 1.59092,1.88543 2.75241,4.79122 5.76692,4.49202 l 1.84069,-0.7344 1.14144,-1.3741 c -2.47804,8.88368 -9.48499,17.33435 -19.00674,18.70235 -7.24618,1.13062 -14.31486,-3.41158 -17.65489,-9.6812 -1.69296,-2.99405 -2.73398,-6.33583 -3.17961,-9.74049 2.13322,3.32476 5.74521,1.15813 7.71465,-0.97672 1.51614,-1.35783 3.03216,-2.71565 4.5483,-4.0735 z"/>
    </g>
  </g>
</svg>
