<?xml version='1.0' encoding='ASCII' standalone='yes'?>
<svg xmlns="http://www.w3.org/2000/svg" xmlns:xlink="http://www.w3.org/1999/xlink" version="1.1" width="72.0mm" viewBox="0 0 72.0 72.0" height="72.0mm">
  <g transform="translate(10.7232475, 8.593108999999998) scale(1 1) ">
    <defs id="defs1"/>
    <g id="layer1" transform="translate(-681.86043,452.20319)">
      <path id="path110" style="color:#000000;fill:#000000;stroke:none;stroke-width:1;stroke-linecap:round;stroke-linejoin:round;-inkscape-stroke:none" d="m 702.95395,-452.1969 c -3.50727,-0.17712 -4.15959,3.42149 -4.06387,6.07817 -0.552,14.61789 -1.10409,29.23577 -1.65609,43.85365 -0.19392,3.52005 3.41884,4.18363 6.08332,4.07821 7.4592,0.26448 14.91831,0.52896 22.3775,0.79344 5.78622,0.2186 4.63902,-8.55661 -0.46367,-7.71067 -6.72634,-0.23597 -13.45278,-0.47203 -20.17911,-0.708 0.48768,-12.86206 0.97565,-25.72411 1.46342,-38.58617 7.35043,0.2497 14.70097,0.4994 22.05139,0.74909 5.77844,0.1812 4.58219,-8.54882 -0.50304,-7.69013 -8.37004,-0.28588 -16.74019,-0.57177 -25.11024,-0.85756 z m -17.00611,18.56382 c -6.40416,-0.2831 -4.79837,11.67072 1.45881,8.70062 2.58183,-1.55813 3.09082,-6.2996 0.4368,-8.08517 -0.56352,-0.36711 -1.22409,-0.58176 -1.89533,-0.61546 z"/>
    </g>
  </g>
</svg>
