<?xml version='1.0' encoding='ASCII' standalone='yes'?>
<svg xmlns="http://www.w3.org/2000/svg" xmlns:xlink="http://www.w3.org/1999/xlink" version="1.1" width="72.0mm" viewBox="0 0 72.0 72.0" height="72.0mm">
  <g transform="translate(0.8553695000000019, 24.0357495) scale(1 1) ">
    <defs id="defs1"/>
    <g id="layer1" transform="translate(155.27579,-986.96838)">
      <path style="color:#000000;fill:#000000;stroke:none;stroke-width:1;stroke-linecap:round;stroke-linejoin:round;-inkscape-stroke:none" d="m -132.75272,986.97733 c -3.3304,-0.20352 -4.31243,3.10792 -5.88127,5.28112 -1.67708,2.65208 -3.35416,5.30424 -5.03123,7.95635 -1.6,-2.20003 -3.19999,-4.39995 -4.8,-6.60003 -3.86059,-4.81464 -9.41534,2.14624 -5.43933,5.58368 2.44438,3.37015 4.88874,6.74035 7.33311,10.11055 2.49275,3.3534 6.24612,0.7833 7.54745,-2.0727 1.64043,-2.5965 3.28087,-5.193 4.9213,-7.78953 1.08125,2.97493 2.16249,5.95003 3.24374,8.92493 1.65924,4.2725 6.64466,2.3491 7.90338,-0.9581 1.5218,-2.5055 3.04358,-5.0111 4.56538,-7.51667 1.2375,2.51247 2.47499,5.02507 3.7125,7.53757 2.15472,4.0359 6.57582,1.5466 7.88136,-1.5807 1.31037,-2.1293 2.62076,-4.2587 3.93113,-6.38807 1.12501,2.98747 2.25,5.97487 3.375012,8.96247 1.720072,4.1683 6.302968,2.209 7.979008,-0.6884 1.982824,-2.5218 4.081664,-4.9584 5.987752,-7.5367 2.5892,-4.61905 -4.910616,-7.87729 -7.097952,-3.33497 -0.683328,0.85344 -1.36672,1.70616 -2.050088,2.5592 -1.256248,-3.3312 -2.512504,-6.66256 -3.768752,-9.99376 -1.73203,-4.23248 -6.5745,-2.22904 -7.87551,0.98952 -1.51232,2.4576 -3.02467,4.91512 -4.53699,7.37264 -1.24375,-2.52504 -2.48751,-5.05 -3.73125,-7.57504 -2.16298,-4.05776 -6.59864,-1.5404 -7.88882,1.6068 -1.29538,2.13328 -2.5908,4.26664 -3.88618,6.39992 -1.06251,-2.9188 -2.125,-5.83744 -3.18751,-8.75624 l -1.24645,-1.70544 -1.95979,-0.78816 z" id="path252"/>
    </g>
  </g>
</svg>
