<?xml version="1.0" encoding="UTF-8" standalone="no"?>
<svg
   version="1.1"
   width="72.0mm"
   viewBox="0 0 72.0 72.0"
   height="72.0mm"
   id="svg1"
   sodipodi:docname="mu.svg"
   inkscape:version="1.4 (86a8ad7, 2024-10-11)"
   xmlns:inkscape="http://www.inkscape.org/namespaces/inkscape"
   xmlns:sodipodi="http://sodipodi.sourceforge.net/DTD/sodipodi-0.dtd"
   xmlns="http://www.w3.org/2000/svg"
   xmlns:svg="http://www.w3.org/2000/svg">
  <defs
     id="defs2" />
  <sodipodi:namedview
     id="namedview1"
     pagecolor="#ffffff"
     bordercolor="#000000"
     borderopacity="0.25"
     inkscape:showpageshadow="2"
     inkscape:pageopacity="0.0"
     inkscape:pagecheckerboard="0"
     inkscape:deskcolor="#d1d1d1"
     inkscape:document-units="mm"
     inkscape:zoom="0.26211902"
     inkscape:cx="45.780729"
     inkscape:cy="333.81782"
     inkscape:window-width="1920"
     inkscape:window-height="1009"
     inkscape:window-x="-8"
     inkscape:window-y="-8"
     inkscape:window-maximized="1"
     inkscape:current-layer="svg1" />
  <path
     id="path2"
     style="stroke-linecap:round"
     d="m 53.677227,6.2750314 c -4.823535,-0.023771 -9.493511,2.3016008 -12.027173,6.6900306 -1.409683,2.441644 -1.932406,5.13629 -1.702738,7.764384 -0.768326,-0.07871 -1.547582,-0.119372 -2.335775,-0.119372 -1.911462,0 -3.769198,0.239333 -5.546948,0.685746 0.221856,-2.584004 -0.284002,-5.233384 -1.650029,-7.645012 C 26.608888,6.9321425 17.803575,4.9626722 11.005413,8.8133777 4.2072519,12.664083 1.369085,21.228944 5.1747614,27.94761 c 2.3931221,4.224896 6.7634306,6.570474 11.3682986,6.77323 -1.071412,2.61161 -1.667599,5.461639 -1.667599,8.447547 0,12.431635 10.247271,22.556762 22.73608,22.556762 12.48881,0 22.736597,-10.125127 22.736597,-22.556762 0,-3.360499 -0.753944,-6.549374 -2.093412,-9.418547 3.485848,-0.842063 6.608071,-2.974752 8.516792,-6.280754 C 70.632336,20.781955 67.864734,12.193811 61.09848,8.2873116 58.77258,6.9444528 56.203841,6.2874831 53.677227,6.2750314 Z m -0.311609,7.9592036 c 1.212325,-0.03532 2.501908,0.270802 3.732589,0.981336 3.281815,1.894757 4.282903,5.589606 2.745052,8.253243 -1.530629,2.651126 -5.20364,3.633053 -8.473901,1.774052 -0.402385,-0.30504 -0.814512,-0.59749 -1.237134,-0.875916 -2.310436,-2.014646 -2.886614,-5.094717 -1.554427,-7.402132 0.961157,-1.664773 2.767281,-2.671717 4.787821,-2.730583 z m -34.676953,0.589112 c 2.019988,0.07549 3.817654,1.09775 4.765084,2.770373 1.515887,2.676197 0.484543,6.363327 -2.812748,8.231022 -3.297291,1.867696 -6.989537,0.856153 -8.505424,-1.820044 -1.515888,-2.676197 -0.484543,-6.362809 2.812748,-8.230505 1.236484,-0.700386 2.528348,-0.996138 3.74034,-0.950846 z m 18.922876,13.786755 c 2.794966,0 5.395078,0.754202 7.609355,2.066024 0.596949,0.497028 1.238168,0.953035 1.921846,1.36064 3.192357,2.666288 5.205367,6.655236 5.205367,11.131621 0,8.066547 -6.530098,14.556734 -14.736568,14.556734 -8.20647,0 -14.736051,-6.490187 -14.736051,-14.556734 0,-8.066547 6.529581,-14.558285 14.736051,-14.558285 z m 0.526583,17.160193 a 3.999995,3.999995 0 0 0 -1.530139,0.308508 3.999995,3.999995 0 0 0 -2.152324,5.230172 l 0.222726,0.535368 a 3.999995,3.999995 0 0 0 5.230172,2.15439 3.999995,3.999995 0 0 0 2.15439,-5.232755 L 41.840224,48.231127 A 3.999995,3.999995 0 0 0 39.67033,46.071052 3.999995,3.999995 0 0 0 38.138124,45.770295 Z" />
</svg>
