<?xml version='1.0' encoding='ASCII' standalone='yes'?>
<svg xmlns="http://www.w3.org/2000/svg" xmlns:xlink="http://www.w3.org/1999/xlink" version="1.1" width="72.0mm" viewBox="0 0 72.0 72.0" height="72.0mm">
  <g transform="translate(2.1757314999999977, -1.2612074999999976) scale(1 1) ">
    <defs id="defs1"/>
    <g id="layer1" transform="translate(-764.30486,466.05917)">
      <path id="path112" style="color:#000000;fill:#000000;stroke:none;stroke-width:1;stroke-linecap:round;stroke-linejoin:round;-inkscape-stroke:none" d="m 803.1649,-466.05776 c -3.83598,-0.0883 -4.10286,3.98407 -4.93518,6.70658 -1.13961,4.17898 -2.27932,8.35793 -3.41904,12.53688 -0.92928,6.99391 7.99902,5.24254 7.9899,-0.11472 1.31846,-5.01377 2.82288,-9.98652 4.02162,-15.02664 0.19488,-2.08397 -1.56172,-4.0619 -3.6573,-4.10205 z m 25.0031,3.87449 c -3.11817,0.29232 -4.39709,3.43106 -6.35232,5.44401 -2.97081,3.60763 -5.94173,7.21527 -8.91254,10.8229 -3.67959,4.95763 4.5312,8.60691 6.82041,3.78756 3.90336,-4.81503 7.9608,-9.51543 11.76567,-14.40372 1.37961,-2.41339 -0.4896,-5.6958 -3.32122,-5.65075 z m -53.95517,2.17785 c -5.19916,-0.0941 -4.45152,5.46543 -2.27587,8.30597 2.04855,3.76488 4.09699,7.52978 6.14544,11.29466 3.41788,5.42219 9.77155,-1.05535 6.07642,-4.91469 -2.30659,-4.23055 -4.61319,-8.46111 -6.91978,-12.69166 -0.58752,-1.11777 -1.77696,-1.89413 -3.02621,-1.99428 z m 24.28877,22.48792 c -11.20253,0.42403 -22.06041,4.46964 -31.49702,10.38821 -4.96762,3.61095 1.87805,9.8228 5.59181,5.60745 8.79667,-4.91448 18.73401,-8.78277 28.96684,-8.21094 6.09332,0.27081 11.25927,5.83543 11.34633,11.85264 -0.43392,3.33981 -0.9645,7.9895 -4.82784,9.01666 -2.4214,1.9369 -1.95072,5.26905 -2.62464,8.01268 -0.21984,2.82888 -1.85653,6.05238 0.58848,8.39835 4.08692,2.94696 6.65243,-1.86037 6.70148,-5.3559 0.27552,-1.70397 0.55104,-3.40795 0.82656,-5.11192 5.2104,-3.28971 6.83511,-9.94565 7.06935,-15.7361 -0.50976,-8.76649 -7.37405,-16.6946 -16.04468,-18.31648 -1.99872,-0.43719 -4.05283,-0.60394 -6.09648,-0.54461 z m 1.92979,10.79996 c -7.92403,0.34963 -1.79068,12.77009 3.48192,7.59091 2.67561,-2.64231 -0.27456,-7.3553 -3.48192,-7.59091 z m -11.20176,0.87312 c -6.86256,0.0288 -3.09004,10.65223 2.44809,7.65732 4.02432,-2.34803 1.43022,-7.42915 -2.44809,-7.65732 z m -19.97769,12.55117 c -3.87678,-0.22215 -4.2384,3.81104 -4.2555,6.61894 -0.2304,3.70712 -0.4608,7.41425 -0.6912,11.12138 -0.0672,6.1872 8.73131,4.314 7.75268,-0.94176 0.23328,-4.49332 0.65664,-8.98412 0.768,-13.47908 -0.21216,-1.77981 -1.78454,-3.23975 -3.57446,-3.31952 z m 12.37746,1.09636 c -3.73084,0.2472 -3.68025,4.16175 -4.09218,6.88572 -0.41664,2.93359 -0.83328,5.86718 -1.2507,8.80077 -0.6336,6.00292 8.24046,5.10549 7.77899,-0.13075 0.51744,-3.97805 1.21132,-7.93975 1.61116,-11.92872 -0.0672,-2.06024 -1.99095,-3.79322 -4.04727,-3.62699 z m 12.12452,1.77106 c -3.79766,0.41357 -3.51533,4.44642 -3.84566,7.24305 -0.2544,2.53005 -0.5088,5.0601 -0.7632,7.59015 -0.312,6.17198 8.54678,4.64878 7.77782,-0.63456 0.31872,-3.5837 0.82368,-7.15794 1.01808,-10.74799 -0.1536,-2.05314 -2.14656,-3.68715 -4.18724,-3.45063 z"/>
    </g>
  </g>
</svg>
