<?xml version='1.0' encoding='ASCII' standalone='yes'?>
<svg xmlns="http://www.w3.org/2000/svg" xmlns:xlink="http://www.w3.org/1999/xlink" version="1.1" width="72.0mm" viewBox="0 0 72.0 72.0" height="72.0mm">
  <g transform="translate(9.316021, 7.6449335000000005) scale(1 1) ">
    <defs id="defs1"/>
    <g id="layer1" transform="translate(-859.68427,453.9247)">
      <path id="path122" style="color:#000000;fill:#000000;stroke:none;stroke-width:1;stroke-linecap:round;stroke-linejoin:round;-inkscape-stroke:none" d="m 889.78282,-453.91335 c -10.74912,-0.31018 -21.34435,5.76523 -26.84458,14.94428 -4.3562,7.2611 -4.06089,16.49877 -0.75936,24.10386 3.58503,9.53566 12.93888,16.1774 22.92576,17.39236 9.5232,1.37643 19.68788,-2.82096 25.09732,-10.85945 1.87896,-2.11132 0.41752,-6.04772 -2.52792,-6.16667 -5.36848,0.27476 -11.23768,-0.18412 -15.61065,-3.67244 -3.63735,-2.71304 -6.01959,-8.12515 -3.39111,-12.28611 3.19076,-4.4229 9.21016,-5.11284 14.25848,-4.97672 2.74736,-0.17827 5.56568,1.23848 8.20112,0.17913 3.56264,-1.87909 1.4596,-6.17563 -0.62304,-8.40681 -4.91664,-6.30603 -12.7628,-10.07782 -20.72564,-10.25141 z m -0.20352,7.67448 c 3.624,0.0893 7.22818,1.15927 10.27898,3.1254 -6.97976,0.22176 -14.60666,2.95212 -18.09521,9.42532 -3.62227,6.2458 -1.71379,14.45391 3.26516,19.37803 3.52867,3.6688 8.32089,5.95314 13.28229,6.91539 -10.06994,5.96827 -24.69612,0.71703 -28.92434,-10.13649 -2.75722,-5.90534 -2.96698,-13.33022 0.94848,-18.78255 4.33814,-6.04956 11.71746,-10.14926 19.24425,-9.9251 z"/>
    </g>
  </g>
</svg>
