<?xml version='1.0' encoding='ASCII' standalone='yes'?>
<svg xmlns="http://www.w3.org/2000/svg" xmlns:xlink="http://www.w3.org/1999/xlink" version="1.1" width="72.0mm" viewBox="0 0 72.0 72.0" height="72.0mm">
  <g transform="translate(1.9381640000000004, 6.748243500000001) scale(1 1) ">
    <defs id="defs1"/>
    <g id="layer1" transform="translate(-944.1021,452.65197)">
      <path id="path124" style="color:#000000;fill:#000000;stroke:none;stroke-width:1;stroke-linecap:round;stroke-linejoin:round;-inkscape-stroke:none" d="m 960.6746,-452.64836 c -8.48384,-0.18936 -16.27384,7.09927 -16.53792,15.60175 -0.51264,7.41192 4.73336,14.62059 11.85488,16.60962 -1.1404,5.75 -2.09768,12.25921 1.34576,17.4482 4.24056,6.70325 12.74232,8.82856 20.21696,8.83223 6.87224,0.16935 14.56816,-2.30233 18.06208,-8.65755 3.30512,-5.74888 2.49816,-12.69133 1.76952,-18.98218 8.06112,-0.30576 15.14712,-7.63717 14.82962,-15.76354 0.019,-7.93922 -7.0443,-14.82681 -14.8957,-15.05188 -8.13976,-0.60932 -16.0492,6.02066 -16.59744,14.21635 -0.61248,6.15772 3.05568,12.33881 8.61224,14.97637 0.61248,5.04025 1.7672,10.31356 0.31104,15.3033 -1.55264,4.74855 -6.99504,6.37303 -11.52264,6.27905 -5.06928,-0.0518 -11.18192,-0.684 -14.28696,-5.2593 -2.33968,-3.8315 -0.78144,-8.47009 -0.14112,-12.56147 3.05032,-1.47321 7.4148,-2.74914 9.66608,-6.02012 5.43064,-6.08209 5.03624,-16.14702 -0.72576,-21.86114 -3.08064,-3.23023 -7.49272,-5.13439 -11.9608,-5.10969 z m 35.86264,7.67954 c 4.91776,-0.23784 9.20986,4.87846 7.76076,9.66844 -1.3106,5.48662 -8.80388,7.67725 -13.04732,4.11568 -3.97184,-2.89379 -3.7616,-9.50258 0.32352,-12.19887 1.42944,-1.04338 3.20048,-1.58009 4.96304,-1.58525 z m -35.86264,0.01 c 5.2192,-0.21072 9.74192,4.94637 8.76472,10.09726 -0.62208,5.28535 -6.61848,8.76297 -11.55704,6.99408 -5.26744,-1.47443 -7.80432,-8.32378 -4.81288,-12.88959 1.56888,-2.61912 4.5628,-4.23602 7.6052,-4.20175 z"/>
    </g>
  </g>
</svg>
