<?xml version='1.0' encoding='ASCII' standalone='yes'?>
<svg xmlns="http://www.w3.org/2000/svg" xmlns:xlink="http://www.w3.org/1999/xlink" version="1.1" width="72.0mm" viewBox="0 0 72.0 72.0" height="72.0mm">
  <g transform="translate(14.447707999999999, 6.665206999999999) scale(1 1) ">
    <defs id="defs1"/>
    <g id="layer1" transform="translate(783.96298,166.48576)">
      <path id="path126" style="color:#000000;fill:#000000;stroke:none;stroke-width:1;stroke-linecap:round;stroke-linejoin:round;-inkscape-stroke:none" d="m -745.71924,-166.48165 c -3.49176,0.007 -3.97248,3.61181 -3.73016,6.25104 0.27936,16.24867 0.55872,32.49725 0.838,48.74592 0.095,5.76365 8.75216,4.1687 7.65728,-0.86304 -0.28368,-16.78138 -0.56728,-33.56275 -0.85096,-50.34413 0.0307,-2.0616 -1.85472,-3.88761 -3.91416,-3.79017 z m -34.97952,3.52224 c -3.47192,0.3888 -3.55368,4.02682 -3.02296,6.62438 1.62112,12.67306 3.24232,25.34612 4.86344,38.01917 0.72456,5.72688 9.16576,3.18557 7.51768,-1.70025 -1.68736,-13.20154 -3.37464,-26.40298 -5.062,-39.60452 -0.19536,-2.04864 -2.26272,-3.65529 -4.29616,-3.33878 z m 17.0656,0.432 c -3.48552,0.21696 -3.75496,3.84749 -3.334,6.46656 1.03528,12.4511 2.07056,24.9023 3.10584,37.35341 0.40944,5.67552 8.90736,3.69907 7.60664,-1.22103 -1.07872,-13.03046 -2.15736,-26.06102 -3.23608,-39.09158 -0.11424,-2.04787 -2.10376,-3.73219 -4.1424,-3.50736 z"/>
    </g>
  </g>
</svg>
