<?xml version='1.0' encoding='ASCII' standalone='yes'?>
<svg xmlns="http://www.w3.org/2000/svg" xmlns:xlink="http://www.w3.org/1999/xlink" version="1.1" width="72.0mm" viewBox="0 0 72.0 72.0" height="72.0mm">
  <g transform="translate(8.6121445, 4.392957500000001) scale(1 1) ">
    <defs id="defs1"/>
    <g id="layer1" transform="translate(54.833142,-965.94165)">
      <path id="path253" style="color:#000000;fill:#000000;stroke:none;stroke-width:1;stroke-linecap:round;stroke-linejoin:round;-inkscape-stroke:none" d="m -14.883812,965.94165 c -2.731752,0.41856 -4.949032,2.2136 -7.409464,3.358 -5.188216,2.76176 -10.376424,5.52352 -15.56464,8.28528 -5.351168,3.204 0.8184,9.63768 4.77996,6.13832 6.618688,-3.51456 13.237376,-7.02912 19.856056,-10.54368 3.393616,-1.70912 2.28144,-7.16 -1.661912,-7.23792 z m -3.849688,24.04568 c -8.42164,0.1968 -17.578208,1.99024 -23.712336,8.20592 -1.590736,1.2408 -2.219184,5.78185 -3.143352,5.73735 -0.566496,-2.0133 -1.132984,-4.02671 -1.699472,-6.04007 -2.099792,-5.96968 -9.613584,-1.07632 -6.99836,3.52957 2.344368,8.3303 4.688728,16.6606 7.033096,24.9909 1.507688,5.5715 9.737696,1.6976 7.11232,-3.089 -1.847768,-6.543 -2.023168,-14.6223 3.127872,-19.7559 5.09284,-4.87245 12.60272,-5.87149 19.357368,-5.89029 3.54996,0.10944 8.224152,0.8208 9.542112,4.68369 1.328096,5.3176 -0.98704,10.6934 -3.114368,15.4874 -3.434944,4.1476 3.732672,9.3334 6.371832,4.4172 3.294336,-6.2092 5.746944,-13.4422 4.44276,-20.5363 -0.936384,-5.45295 -5.50224,-9.72591 -10.815976,-10.91095 -2.444104,-0.64032 -4.983984,-0.8448 -7.503496,-0.82944 z"/>
    </g>
  </g>
</svg>
