<?xml version='1.0' encoding='ASCII' standalone='yes'?>
<svg xmlns="http://www.w3.org/2000/svg" xmlns:xlink="http://www.w3.org/1999/xlink" version="1.1" width="72.0mm" viewBox="0 0 72.0 72.0" height="72.0mm">
  <g transform="translate(8.025779499999999, 3.3627740000000017) scale(1 1) ">
    <defs id="defs1"/>
    <g id="layer1" transform="translate(-35.120242,-963.67046)">
      <path id="path42-8-5-9-7" style="color:#000000;fill:#000000;stroke:none;stroke-width:1;stroke-linecap:round;stroke-linejoin:round;-inkscape-stroke:none" d="m 64.05955,963.68437 c -3.3924,0.16896 -3.663398,3.68744 -3.929021,6.2456 -0.42,3.276 -0.840096,6.55192 -1.260086,9.82792 -0.368736,6.3396 8.424883,4.6956 7.814035,-0.55872 0.4704,-3.97944 1.121472,-7.94416 1.472736,-11.93304 -0.0864,-2.06728 -2.049408,-3.76752 -4.097664,-3.58176 z m -25.251139,3.8348 c -4.913098,0.17376 -4.235722,5.48152 -1.901395,8.08904 1.816156,2.82024 3.632313,5.64064 5.44847,8.46088 3.361584,5.0032 9.711206,-1.35872 5.890166,-5.01048 -2.09568,-3.2544 -4.19136,-6.5088 -6.28704,-9.7632 -0.66096,-1.07224 -1.906147,-1.76048 -3.150201,-1.77624 z m 48.770947,1.00216 c -3.153312,-0.0672 -4.41504,3.03592 -6.272256,4.9976 -1.758912,2.16064 -3.517824,4.32136 -5.276736,6.482 -3.67008,5.18432 4.667712,8.444 6.922272,3.6572 2.538144,-3.18392 5.228256,-6.256 7.665984,-9.51368 1.29024,-2.29 -0.33888,-5.43992 -3.039264,-5.62312 z m -13.027392,19.52624 c -4.901856,0.23136 -4.023648,5.55888 -2.00112,8.3448 2.402976,4.95853 2.719968,11.54753 -1.296768,15.78093 -3.712128,4.0547 -9.055776,6.0595 -14.248944,7.4406 3.648739,-6.33 6.649104,-14.0858 3.915024,-21.33561 -1.713091,-4.01752 -5.363962,-9.93744 -10.407706,-8.10808 -4.029801,2.79304 -0.36672,6.4488 2.158109,8.5056 3.081168,3.66809 1.457981,8.82899 -0.172512,12.76059 -1.811347,4.3068 -4.554144,8.1158 -7.116432,11.983 -1.581945,2.9803 1.728,6.377 4.794259,5.3325 9.436781,-1.3873 19.448602,-3.8986 26.330074,-10.9313 5.080608,-5.1167 6.656832,-12.9723 4.708224,-19.81423 -0.9504,-3.23 -2.070336,-6.59768 -4.321152,-9.15992 l -1.3536,-0.66528 -0.987264,-0.12864 z"/>
    </g>
  </g>
</svg>
