<?xml version='1.0' encoding='ASCII' standalone='yes'?>
<svg xmlns="http://www.w3.org/2000/svg" xmlns:xlink="http://www.w3.org/1999/xlink" version="1.1" width="72.0mm" viewBox="0 0 72.0 72.0" height="72.0mm">
  <g transform="translate(7.030155000000001, 9.017145) scale(1 1) ">
    <defs id="defs1"/>
    <g id="layer1" transform="translate(697.7544,166.49068)">
      <path id="path129" style="color:#000000;fill:#000000;stroke:none;stroke-width:1;stroke-linecap:round;stroke-linejoin:round;-inkscape-stroke:none" d="m -657.90069,-166.46677 c -3.58698,-0.3552 -4.33407,3.32198 -4.3874,6.01882 -0.24739,2.78102 -0.49479,5.56204 -0.74217,8.34307 -4.76251,0.456 -9.525,0.91296 -14.28751,1.36925 -0.21672,-3.22464 -0.43325,-6.44919 -0.64992,-9.67383 -0.773,-6.20563 -9.14675,-3.10013 -7.56884,1.93219 0.1896,2.82365 0.37929,5.6473 0.569,8.47095 -3.14691,0.30144 -6.29379,0.60192 -9.44067,0.90336 -6.17096,0.96048 -2.82737,9.23049 2.15218,7.51353 2.59982,-0.24864 5.19962,-0.49824 7.79945,-0.74688 0.28108,4.17879 0.56227,8.35757 0.84336,12.53636 -2.4044,0.12768 -4.80879,0.2544 -7.2132,0.38208 -6.20832,0.68448 -3.23031,9.096 1.81936,7.59427 1.96826,-0.10368 3.93656,-0.20736 5.90481,-0.312 0.13728,2.03558 0.27447,4.07126 0.41175,6.10685 0.34761,5.71824 8.89965,3.79324 7.62708,-1.15968 -0.11976,-1.78464 -0.23952,-3.56938 -0.35932,-5.35402 3.2709,-0.17184 6.54181,-0.34368 9.81273,-0.51552 -0.0854,2.48477 -0.81965,4.99728 -0.14232,7.44931 2.37844,4.65677 7.98528,1.08999 7.46031,-3.00336 0.14376,-1.61923 0.28732,-3.23846 0.43104,-4.85769 5.06776,-0.30432 10.14972,-0.46176 15.20833,-0.86208 5.22012,-1.19127 2.52332,-8.93616 -2.32365,-7.51008 -4.06504,0.21408 -8.1301,0.42816 -12.19512,0.64224 0.41012,-4.62029 0.82022,-9.24058 1.23029,-13.86087 4.37688,-0.45504 8.77339,-0.768 13.13743,-1.31577 5.00516,-1.26058 2.45672,-8.94461 -2.34351,-7.43885 -3.3681,0.3216 -6.73621,0.64416 -10.10433,0.96595 0.26525,-3.36989 0.66854,-6.73325 0.84201,-10.10746 -0.11664,-1.81939 -1.67505,-3.38275 -3.4912,-3.51129 z m -5.81916,22.14566 c -0.40023,4.51114 -0.80036,9.02228 -1.20056,13.53341 -3.67275,0.19392 -7.34551,0.38688 -11.01826,0.5808 -0.2877,-4.28621 -0.57552,-8.57251 -0.86322,-12.85872 4.36068,-0.41856 8.72136,-0.83712 13.08204,-1.25549 z"/>
    </g>
  </g>
</svg>
