<?xml version='1.0' encoding='ASCII' standalone='yes'?>
<svg xmlns="http://www.w3.org/2000/svg" xmlns:xlink="http://www.w3.org/1999/xlink" version="1.1" width="72.0mm" viewBox="0 0 72.0 72.0" height="72.0mm">
  <g transform="translate(7.6542855, 2.6431235000000015) scale(1 1) ">
    <defs id="defs1"/>
    <g id="layer1" transform="translate(606.43281,174.25012)">
      <path style="color:#000000;fill:#000000;stroke:none;stroke-width:1;stroke-linecap:round;stroke-linejoin:round;-inkscape-stroke:none" d="m -578.06522,-174.22895 c -8.97594,0.19584 -16.53514,6.50448 -21.10356,13.81546 -6.14496,9.74918 -9.43957,22.13626 -5.65287,33.37651 2.89733,9.08947 10.07873,17.78563 19.96893,19.20183 10.81572,1.37472 22.88183,-1.96724 29.98899,-10.58775 7.55064,-9.08525 6.6014,-23.71123 -1.84204,-31.91577 -4.85607,-5.13284 -12.80118,-8.41076 -19.61984,-5.32023 -5.66019,2.64931 -9.96363,7.62096 -13.08093,12.92755 -3.36939,5.70471 -1.45102,13.193 3.11006,17.64624 3.81247,4.25165 10.84407,6.14333 15.63784,2.38839 3.87528,-2.85917 4.83312,-8.09539 4.44341,-12.62592 -0.38016,-5.68858 -9.16685,-3.75197 -7.62633,1.48905 0.44064,2.82989 -1.39533,7.14336 -4.7934,4.96013 -2.643,-1.3727 -4.70703,-4.2479 -4.76169,-7.25904 1.71048,-5.79321 6.08236,-11.05171 11.92084,-12.94685 3.94973,-0.32736 7.59693,2.25773 10.15437,5.05671 6.0482,6.64953 5.03279,18.35827 -2.36161,23.61043 -6.01407,4.38941 -13.9574,6.03504 -21.2556,4.74154 -7.06784,-1.92212 -11.4266,-8.92013 -13.09883,-15.6649 -2.16181,-8.48064 0.86267,-17.36621 5.16389,-24.66077 3.4344,-5.66563 9.222,-10.94861 16.27675,-10.56432 3.94991,0.0288 9.05664,0.54144 11.30075,3.99648 1.91044,6.90778 10.50501,1.03843 6.73128,-3.63753 -3.72395,-6.83328 -12.43919,-8.24717 -19.50041,-8.02724 z" id="path133"/>
    </g>
  </g>
</svg>
