<?xml version='1.0' encoding='ASCII' standalone='yes'?>
<svg xmlns="http://www.w3.org/2000/svg" xmlns:xlink="http://www.w3.org/1999/xlink" version="1.1" width="72.0mm" viewBox="0 0 72.0 72.0" height="72.0mm">
  <g transform="translate(19.9114035, 6.968345500000002) scale(1 1) ">
    <defs id="defs1"/>
    <g id="layer1" transform="translate(502.0624,168.95674)">
      <path id="path134" style="color:#000000;fill:#000000;stroke:none;stroke-width:1;stroke-linecap:round;stroke-linejoin:round;-inkscape-stroke:none" d="m -483.65768,-168.94223 c -3.34713,-0.264 -4.236,3.12922 -4.17688,5.72352 -0.26793,4.59264 -0.53588,9.18528 -0.80381,13.77792 -4.20192,5.80599 -8.40384,11.61188 -12.60576,17.41786 -3.23865,4.1233 4.01751,8.76643 6.45476,4.17686 1.77417,-2.45049 3.54835,-4.90108 5.32252,-7.35168 -0.39523,6.79652 -0.79047,13.59293 -1.18567,20.38944 -0.4991,5.20551 8.09656,5.21808 7.69279,0.048 0.4106,-7.05091 0.82128,-14.10172 1.23195,-21.15254 1.55609,2.47219 3.11214,4.94448 4.66824,7.41667 2.66772,4.57536 9.39506,-0.33792 6.43793,-4.22016 -3.44576,-5.46749 -6.89148,-10.93497 -10.33724,-16.40246 0.28128,-5.48026 0.71415,-10.9585 0.8976,-16.44019 -0.18096,-1.8073 -1.78183,-3.31296 -3.59635,-3.38391 z"/>
    </g>
  </g>
</svg>
