<?xml version='1.0' encoding='ASCII' standalone='yes'?>
<svg xmlns="http://www.w3.org/2000/svg" xmlns:xlink="http://www.w3.org/1999/xlink" version="1.1" width="72.0mm" viewBox="0 0 72.0 72.0" height="72.0mm">
  <g transform="translate(10.079588000000001, 11.025060499999999) scale(1 1) ">
    <defs id="defs1"/>
    <g id="layer1" transform="translate(419.572,164.86986)">
      <path style="color:#000000;fill:#000000;stroke:none;stroke-width:1;stroke-linecap:round;stroke-linejoin:round;-inkscape-stroke:none" d="m -389.12145,-164.59141 c -7.6076,-1.12589 -15.95441,1.14931 -21.10673,7.06618 -6.10351,6.86313 -8.16219,16.28025 -9.0222,25.16918 -0.39639,4.66714 -0.44535,9.37133 -0.0403,14.03962 0.32227,5.24236 8.38624,3.96758 7.63124,-0.76896 -0.55784,-9.12384 -0.12384,-18.5906 3.36095,-27.14957 2.07725,-5.19898 6.37029,-10.05975 12.19921,-10.77351 4.95623,-0.52992 10.27139,0.21504 14.57016,2.85572 4.86827,3.11491 6.3426,9.30624 6.1092,14.74569 -0.24576,6.51888 -2.05944,12.89376 -4.53325,18.89664 -2.37345,4.72474 5.79016,7.82035 7.19345,2.7408 3.59452,-8.70921 5.97532,-18.288 4.6639,-27.74237 -0.89242,-6.72585 -4.98855,-13.02201 -11.1167,-16.07241 -3.07336,-1.6224 -6.47297,-2.56253 -9.9094,-3.0073 z" id="path136"/>
    </g>
  </g>
</svg>
