<?xml version='1.0' encoding='ASCII' standalone='yes'?>
<svg xmlns="http://www.w3.org/2000/svg" xmlns:xlink="http://www.w3.org/1999/xlink" version="1.1" width="72.0mm" viewBox="0 0 72.0 72.0" height="72.0mm">
  <g transform="translate(16.993929, 10.319978500000001) scale(1 1) ">
    <defs id="defs1"/>
    <g id="layer1" transform="translate(322.84225,164.76403)">
      <path id="path137" style="color:#000000;fill:#000000;stroke:none;stroke-width:1;stroke-linecap:round;stroke-linejoin:round;-inkscape-stroke:none" d="m -303.24824,-164.76018 c -3.19962,-0.13152 -4.12897,3.13306 -3.9291,5.68762 -0.1587,10.20557 -0.31747,20.41104 -0.47616,30.61651 -2.89388,-3.07574 -5.78776,-6.15158 -8.68164,-9.22733 -4.17507,-4.20096 -9.20603,3.15149 -4.7976,6.10666 5.31825,5.65229 10.6365,11.30467 15.95474,16.95696 2.39622,2.61657 5.60523,0.54624 7.02276,-1.85405 4.15956,-5.52038 8.31912,-11.04067 12.47868,-16.56106 3.24472,-3.90422 -3.69852,-9.00096 -6.3628,-4.3272 -2.65645,3.51783 -5.31288,7.03565 -7.96933,10.55348 0.17693,-11.35066 0.35385,-22.70122 0.53079,-34.05188 0.0758,-2.059 -1.7104,-3.90566 -3.7703,-3.89971 z"/>
    </g>
  </g>
</svg>
