<?xml version='1.0' encoding='ASCII' standalone='yes'?>
<svg xmlns="http://www.w3.org/2000/svg" xmlns:xlink="http://www.w3.org/1999/xlink" version="1.1" width="72.0mm" viewBox="0 0 72.0 72.0" height="72.0mm">
  <g transform="translate(8.828943500000001, 20.539504) scale(1 1) ">
    <defs id="defs1"/>
    <g id="layer1" transform="translate(238.8368,153.11643)">
      <path style="color:#000000;fill:#000000;stroke:none;stroke-width:1;stroke-linecap:round;stroke-linejoin:round;-inkscape-stroke:none" d="m -197.75897,-153.11643 c -9.34727,0.66144 -18.704,1.23619 -28.04532,1.95302 -6.84877,0.93792 -12.55659,6.99523 -12.97982,13.90915 -0.52109,5.71344 2.86575,11.57827 8.25476,13.69642 4.20971,1.90579 8.86794,1.23005 13.3343,1.30589 7.24093,-0.0672 14.48388,-0.096 21.72357,-0.18816 5.04061,-0.2736 9.19924,-4.39124 10.3474,-9.17482 1.67476,-6.50083 0.0326,-14.21827 -5.23101,-18.65981 -2.07784,-1.69805 -4.70503,-2.79168 -7.40388,-2.84121 z m -0.0192,7.7063 c 3.34041,0.29088 4.9626,3.89587 5.42997,6.80861 0.37565,2.72813 0.20507,6.05001 -1.99715,8.00025 -1.6584,0.83424 -3.58789,0.38304 -5.38358,0.52128 -8.28471,0.0384 -16.57201,0.18048 -24.85511,0.1632 -3.08447,-0.0288 -6.25313,-2.20444 -6.51668,-5.44099 -0.52484,-3.55881 1.91048,-7.23273 5.45948,-7.99459 2.67249,-0.52512 5.42691,-0.46368 8.13648,-0.72192 6.57552,-0.44544 13.15105,-0.88992 19.72659,-1.33526 z" id="path139"/>
    </g>
  </g>
</svg>
