<?xml version='1.0' encoding='ASCII' standalone='yes'?>
<svg xmlns="http://www.w3.org/2000/svg" xmlns:xlink="http://www.w3.org/1999/xlink" version="1.1" width="72.0mm" viewBox="0 0 72.0 72.0" height="72.0mm">
  <g transform="translate(10.412897000000001, 12.280636000000001) scale(1 1) ">
    <defs id="defs1"/>
    <g id="layer1" transform="translate(147.23166,163.99499)">
      <path style="color:#000000;fill:#000000;stroke:none;stroke-width:1;stroke-linecap:round;stroke-linejoin:round;-inkscape-stroke:none" d="m -121.03397,-163.76639 c -2.74819,1.21047 -3.15844,4.45335 -3.92543,7.01626 -1.0632,4.93315 -2.00524,9.96576 -1.83081,15.0337 0.47597,4.73155 5.35842,3.47001 8.42253,2.50185 4.32284,-0.91008 9.56695,-1.16918 13.01631,2.09232 2.95065,3.0168 1.59953,8.30093 -1.82159,10.37194 -4.57509,3.08707 -10.28452,2.35603 -15.51635,2.4528 -5.11697,0 -10.23393,0 -15.3509,0 -2.03499,-11.41767 -0.61383,-23.02666 -0.71251,-34.53754 0.20725,-5.14742 -8.29588,-4.78934 -7.66786,0.3264 -0.0739,12.33591 -2.10238,24.82608 0.54989,37.03795 0.13737,2.88375 2.46799,5.30804 5.41068,4.86106 8.43253,-0.0288 16.86749,0.0576 25.29845,-0.048 7.2387,-0.32928 14.85089,-3.97094 17.905804,-10.85165 2.594584,-5.45529 0.831456,-12.39609 -3.895364,-16.10265 -2.81744,-2.4792 -6.63056,-3.56698 -10.3378,-3.10215 -2.34032,-0.0576 -5.53941,1.14163 -7.29068,0.68736 0.10483,-4.69296 1.29039,-9.29213 2.80282,-13.69661 0.36585,-2.66582 -2.47511,-5.028 -5.05718,-4.04371 z" id="path140"/>
    </g>
  </g>
</svg>
