<?xml version='1.0' encoding='ASCII' standalone='yes'?>
<svg xmlns="http://www.w3.org/2000/svg" xmlns:xlink="http://www.w3.org/1999/xlink" version="1.1" width="72.0mm" viewBox="0 0 72.0 72.0" height="72.0mm">
  <g transform="translate(11.899214, 5.024891) scale(1 1) ">
    <defs id="defs1"/>
    <g id="layer1" transform="translate(53.156432,172.73844)">
      <path id="path141" style="color:#000000;fill:#000000;stroke:none;stroke-width:1;stroke-linecap:round;stroke-linejoin:round;-inkscape-stroke:none" d="m -21.531476,-172.72751 c -2.655296,0.61824 -4.880672,2.31994 -7.320312,3.48154 -4.396064,2.3519 -8.79216,4.70362 -13.188224,7.05542 -5.312688,3.13632 0.753792,9.65933 4.723664,6.17482 6.096696,-3.30278 12.272376,-6.47242 18.318992,-9.85978 2.84604,-2.07782 1.238744,-7.12876 -2.53412,-6.852 z m -5.035336,19.61559 c -11.382312,-0.0672 -23.094136,7.42905 -26.00812,18.75341 -2.129576,7.81411 1.762072,16.61472 8.86148,20.45136 13.231152,7.567 32.312848,0.72384 37.582992,-13.61348 2.894736,-7.38854 0.292992,-16.4351 -6.148512,-21.08668 -4.069272,-3.07757 -9.223904,-4.51181 -14.28784,-4.50461 z m -0.109152,7.64976 c 5.825264,-0.18528 12.497384,3.06768 13.795408,9.18307 1.250048,6.32861 -3.258944,12.36192 -8.636952,15.19987 -6.259072,3.46954 -14.950888,3.87639 -20.531432,-1.12032 -3.716632,-3.19478 -4.284352,-8.90093 -2.014672,-13.09699 3.19576,-6.3624 10.426936,-10.06512 17.387648,-10.16563 z"/>
    </g>
  </g>
</svg>
