<?xml version='1.0' encoding='ASCII' standalone='yes'?>
<svg xmlns="http://www.w3.org/2000/svg" xmlns:xlink="http://www.w3.org/1999/xlink" version="1.1" width="72.0mm" viewBox="0 0 72.0 72.0" height="72.0mm">
  <g transform="translate(9.404029999999999, 0.44656750000000045) scale(1 1) ">
    <defs id="defs1"/>
    <g id="layer1" transform="translate(332.09072,-1245.4261)">
      <path id="path267" style="color:#000000;fill:#000000;stroke:none;stroke-width:1;stroke-linecap:round;stroke-linejoin:round;-inkscape-stroke:none" d="m -287.3633,1245.4261 c -2.80906,0.077 -4.4884,2.5838 -6.59682,4.1092 -12.25228,10.3428 -24.50456,20.6856 -36.75682,31.0285 -3.21028,2.8331 -0.15628,6.2465 2.65682,7.5991 14.45234,9.222 28.90402,18.445 43.35522,27.6678 5.02464,3.1397 8.29034,-5.1618 3.37905,-6.9464 -1.70512,-1.0878 -3.41025,-2.1754 -5.11539,-3.2632 5.8346,-10.5573 9.21632,-23.3328 5.68847,-35.2094 -1.60812,-5.5201 -4.61992,-10.5936 -8.55587,-14.7715 1.6658,-1.5528 3.69696,-2.7715 5.02751,-4.6336 1.27051,-2.2913 -0.40503,-5.4467 -3.08217,-5.5805 z m -7.81844,15.1704 c 1.07721,1.7362 5.99452,5.067 2.38446,5.9458 -7.13984,3.3118 -11.37448,12.0543 -8.79153,19.6313 1.60028,5.185 5.64345,9.3213 10.38573,11.7937 -0.8328,1.6628 -1.43709,4.6382 -3.3829,2.462 -9.06874,-5.7849 -18.13748,-11.5699 -27.20623,-17.3547 8.87016,-7.4927 17.74031,-14.9853 26.61047,-22.4781 z m 7.17848,12.2088 c 1.60714,5.8656 1.15098,12.1342 -0.51591,17.934 -4.30198,-2.1358 -7.40319,-7.2142 -5.7158,-12.0228 0.87513,-2.895 3.36737,-5.0835 6.23174,-5.9112 z"/>
    </g>
  </g>
</svg>
