<?xml version='1.0' encoding='ASCII' standalone='yes'?>
<svg xmlns="http://www.w3.org/2000/svg" xmlns:xlink="http://www.w3.org/1999/xlink" version="1.1" width="72.0mm" viewBox="0 0 72.0 72.0" height="72.0mm">
  <g transform="translate(4.987158000000001, 0.9315415000000016) scale(1 1) ">
    <defs id="defs1"/>
    <g id="layer1" transform="translate(-26.743852,177.11787)">
      <path id="path143" style="color:#000000;fill:#000000;stroke:none;stroke-width:1;stroke-linecap:round;stroke-linejoin:round;-inkscape-stroke:none" d="m 85.123678,-177.11787 c -3.198432,0.0768 -4.353888,3.36979 -6.178944,5.44723 -1.371552,1.84003 -2.743104,3.68006 -4.114656,5.52009 -3.440832,5.0353 4.871136,8.44484 6.949056,3.53904 2.188512,-3.02467 4.53072,-5.94691 6.6168,-9.04012 1.174944,-2.31303 -0.55968,-5.43668 -3.272256,-5.46624 z m -28.5948,3.8447 c -3.845174,0.36768 -3.595171,4.39267 -3.191808,7.17082 0.414048,4.4856 0.828096,8.9712 1.242163,13.4568 0.746688,6.05366 9.315965,3.18192 7.544957,-1.83514 -0.47808,-5.10826 -0.955392,-10.21651 -1.433078,-15.32477 -0.134496,-2.04125 -2.130231,-3.70397 -4.162234,-3.46771 z M 30.479,-169.44824 c -5.249079,0.1344 -4.409981,6.34301 -0.903648,8.22403 2.866041,2.43456 5.732083,4.86912 8.598124,7.30368 4.763002,3.7969 8.87208,-4.23178 4.108541,-6.58349 -3.145536,-2.67561 -6.291062,-5.35123 -9.436598,-8.02685 l -1.105162,-0.66048 -1.2612,-0.25728 z m 45.10487,14.15347 c -6.52032,0.3504 -10.905504,6.12739 -14.064576,11.21962 -1.310986,2.84169 -4.475914,-1.90781 -6.673795,-2.16672 -4.943251,-2.6329 -11.107853,-5.53258 -16.590269,-2.66717 -5.070518,2.37139 -6.478627,8.69529 -5.262202,13.74019 2.429021,11.13562 11.526269,19.54704 21.421767,24.45216 3.434813,1.56653 6.952339,3.27533 10.726867,3.73574 4.354656,-1.48732 8.11008,-4.42358 11.587392,-7.38883 8.293152,-7.33238 13.756992,-18.94733 11.02608,-30.06115 -1.288128,-5.70931 -5.878176,-11.15424 -12.171264,-10.86384 z m 0.61536,7.66963 c 3.387552,0.72288 4.336992,4.93488 4.47888,7.9249 0.11424,9.78086 -6.775776,18.21158 -14.7048,23.20195 -3.00912,2.41786 -6.64345,-1.53437 -9.649114,-2.52979 -6.79295,-4.01165 -13.269168,-9.78183 -15.723878,-17.50675 -1.546109,-3.34925 1.084157,-7.31693 4.874678,-5.74714 5.355111,1.13491 10.114157,4.07568 14.541639,7.1832 5.856355,2.72112 6.614659,-5.08138 9.723427,-8.02608 1.676064,-1.95667 3.688416,-4.36934 6.459168,-4.50029 z"/>
    </g>
  </g>
</svg>
