<?xml version='1.0' encoding='ASCII' standalone='yes'?>
<svg xmlns="http://www.w3.org/2000/svg" xmlns:xlink="http://www.w3.org/1999/xlink" version="1.1" width="72.0mm" viewBox="0 0 72.0 72.0" height="72.0mm">
  <g transform="translate(6.6321200000000005, 15.337892499999999) scale(1 1) ">
    <defs id="defs1"/>
    <g id="layer1" transform="translate(-127.04879,162.8804)">
      <path id="path147" style="color:#000000;fill:#000000;stroke:none;stroke-width:1;stroke-linecap:round;stroke-linejoin:round;-inkscape-stroke:none" d="m 168.04579,-162.87503 c -8.21606,-0.21696 -15.49382,6.1657 -17.66284,13.86932 -1.90839,6.23894 -0.768,13.37116 3.18681,18.59011 -7.67117,0.35904 -15.34253,0.71808 -23.01369,1.07654 -6.47597,0.94176 -2.91706,9.08535 2.09481,7.60311 11.29392,-0.53376 22.58784,-1.06704 33.88186,-1.60042 8.05881,0.54144 15.49545,-5.35382 18.00701,-12.81946 3.3072,-8.82604 -0.12384,-19.95494 -8.53018,-24.5928 -2.42266,-1.35734 -5.19245,-2.09356 -7.96378,-2.1264 z m -0.10848,7.68941 c 5.82788,0.0192 10.07204,5.72611 10.13943,11.23527 0.36384,5.68953 -3.32343,11.89795 -9.23559,12.84038 -5.52681,0.97843 -10.57084,-3.72086 -11.43024,-8.98262 -1.28428,-5.96535 1.87354,-13.11994 8.05728,-14.78554 0.80352,-0.21312 1.64276,-0.32352 2.46912,-0.3072 z"/>
    </g>
  </g>
</svg>
