<?xml version='1.0' encoding='ASCII' standalone='yes'?>
<svg xmlns="http://www.w3.org/2000/svg" xmlns:xlink="http://www.w3.org/1999/xlink" version="1.1" width="72.0mm" viewBox="0 0 72.0 72.0" height="72.0mm">
  <g transform="translate(4.8797834999999985, 8.4146365) scale(1 1) ">
    <defs id="defs1"/>
    <g id="layer1" transform="translate(-214.23198,166.71878)">
      <path id="path149" style="color:#000000;fill:#000000;stroke:none;stroke-width:1;stroke-linecap:round;stroke-linejoin:round;-inkscape-stroke:none" d="m 272.81088,-166.70984 c -3.98102,-0.24384 -4.29188,4.55817 -4.18676,7.45901 -0.34944,7.6174 -0.69792,15.23491 -1.04707,22.85232 -14.03453,-0.24096 -28.06896,-0.48288 -42.10349,-0.72384 -1.26403,-8.0976 -2.3928,-16.22218 -3.74188,-24.30279 -0.52992,-2.82566 -4.25789,-3.44237 -6.12057,-1.54233 -1.90656,1.39478 -1.42398,3.7536 -0.96491,5.70124 1.94391,12.81495 3.88781,25.62989 5.83172,38.44484 1.05993,3.48403 5.15031,3.85152 8.16057,4.4976 13.83744,3.45388 28.22746,2.56473 42.35827,2.77574 3.56228,-0.49056 3.43931,-4.78579 3.47088,-7.53677 0.66144,-14.66505 1.36128,-29.32886 2.00477,-43.9943 -0.0768,-1.89898 -1.75085,-3.59395 -3.66153,-3.63072 z m -46.16649,37.28141 c 13.52677,0.23136 27.05365,0.46368 40.58044,0.69504 -0.144,3.16012 -0.288,6.32025 -0.432,9.48038 -13.09219,-0.0576 -26.40058,0.004 -39.1318,-3.46771 -0.33888,-2.23594 -0.67776,-4.47178 -1.01664,-6.70771 z"/>
    </g>
  </g>
</svg>
