<?xml version='1.0' encoding='ASCII' standalone='yes'?>
<svg xmlns="http://www.w3.org/2000/svg" xmlns:xlink="http://www.w3.org/1999/xlink" version="1.1" width="72.0mm" viewBox="0 0 72.0 72.0" height="72.0mm">
  <g transform="translate(20.0546085, -10.729965) scale(1 1) ">
    <defs id="defs1"/>
    <g id="layer1" transform="translate(774.17202,-668.07381)">
      <path id="path277" style="color:#000000;fill:#000000;stroke:none;stroke-width:1;stroke-linecap:round;stroke-linejoin:round;-inkscape-stroke:none" d="m -751.0522,668.07707 c -9.26,0.048 -15.23288,8.74656 -18.0628,16.60915 -5.80312,16.31597 -6.3044,34.29581 -3.06584,51.21178 2.10288,9.27417 5.71024,19.94313 14.98208,24.264 4.7476,1.88851 9.89128,1.27613 14.91752,1.27987 v -7.67952 c -3.20144,-0.007 -6.4032,-9.6e-4 -9.6044,-0.0192 -6.53264,-1.10986 -9.37024,-8.24237 -11.29112,-13.81622 -4.58752,-16.05812 -4.33304,-33.49181 0.21336,-49.52996 1.94584,-5.55974 4.352,-12.47395 10.47256,-14.50579 l 0.70448,-0.10944 0.73416,-0.0384 c 2.92368,0.002 5.8472,0 8.77096,0 v -7.66953 z"/>
    </g>
  </g>
</svg>
