<?xml version='1.0' encoding='ASCII' standalone='yes'?>
<svg xmlns="http://www.w3.org/2000/svg" xmlns:xlink="http://www.w3.org/1999/xlink" version="1.1" width="72.0mm" viewBox="0 0 72.0 72.0" height="72.0mm">
  <g transform="translate(10.184835499999998, 8.412616499999999) scale(1 1) ">
    <defs id="defs1"/>
    <g id="layer1" transform="translate(-313.3242,166.70346)">
      <path id="path77-3" style="color:#000000;fill:#000000;stroke:none;stroke-width:1;stroke-linecap:round;stroke-linejoin:round;-inkscape-stroke:none" d="m 337.80912,-166.69995 c -6.23415,0.048 -12.46934,0.51168 -18.62832,1.48828 -3.86112,0.89376 -3.4271,5.36756 -4.21181,8.40365 -2.1769,13.03603 -1.95148,26.3496 -0.71904,39.46944 1.5818,5.14867 8.11536,3.52051 12.324,4.54445 10.35015,1.02778 20.75846,1.28314 31.15392,1.26451 4.52967,-0.41568 3.96999,-5.58125 4.8146,-8.85437 2.31561,-13.65542 3.10348,-27.61372 1.74873,-41.41478 -0.80736,-4.37146 -5.78525,-3.45312 -9.05837,-4.0559 -5.78908,-0.56352 -11.60572,-0.88896 -17.42332,-0.8448 z m 3.83971,8.131 c 4.93892,0.096 9.87207,0.42816 14.78361,0.95232 0.912,12.76704 0.0288,25.63162 -2.26713,38.21405 -4.21632,-0.0192 -8.43264,-0.1056 -12.6454,-0.28224 2.90869,-6.9503 5.81749,-13.90051 8.7262,-20.85081 1.45556,-3.33399 -2.08387,-5.89796 -5.10759,-5.29383 -2.99712,0.0576 -5.99424,0.11616 -8.99136,0.17472 1.8339,-4.30454 3.66779,-8.60918 5.50167,-12.91373 z m -8.40384,0.10368 c -2.1646,5.0833 -4.32921,10.16669 -6.49383,15.24999 -1.60117,3.98083 2.70816,5.80464 5.8682,5.30237 2.75683,-0.048 5.51367,-0.0979 8.2705,-0.14784 -2.4937,5.96966 -4.98739,11.93932 -7.4811,17.90899 -3.80208,-0.28032 -7.59781,-0.64896 -11.38041,-1.12608 -0.95424,-12.11059 -0.8928,-24.39139 1.38903,-36.35875 3.2615,-0.42144 6.54336,-0.68256 9.82761,-0.82848 z"/>
    </g>
  </g>
</svg>
