<?xml version='1.0' encoding='ASCII' standalone='yes'?>
<svg xmlns="http://www.w3.org/2000/svg" xmlns:xlink="http://www.w3.org/1999/xlink" version="1.1" width="72.0mm" viewBox="0 0 72.0 72.0" height="72.0mm">
  <g transform="translate(22.797323, 8.840789999999998) scale(1 1) ">
    <defs id="defs1"/>
    <g id="layer1" transform="translate(-508.3272,168.68299)">
      <path style="color:#000000;fill:#000000;stroke:none;stroke-width:1;stroke-linecap:round;stroke-linejoin:round;-inkscape-stroke:none" d="m 522.31603,-168.6789 c -6.30375,-0.16128 -12.54615,4.46285 -13.59331,10.8025 -0.31392,2.74934 -0.12384,5.53728 -0.21504,8.30361 -0.0576,6.78135 -0.12,13.56269 -0.18048,20.34404 0.10464,-1.72397 -0.0672,1.94851 0.22944,2.4144 0.80448,5.61619 4.78311,11.18582 10.60531,12.25401 4.92854,1.00963 10.04468,-1.99565 12.09332,-6.48758 2.25925,-4.37578 1.88553,-9.38227 2.2701,-14.13955 0.39744,-7.12618 0.82273,-14.25149 1.20211,-21.37815 0.14976,-4.89043 -3.02965,-9.6647 -7.68931,-11.24534 -1.50729,-0.56352 -3.11789,-0.84288 -4.72272,-0.86784 z m -0.11232,7.68749 c 2.30006,-0.0576 4.96896,1.4808 4.85213,4.04918 -0.50784,9.55517 -1.07223,19.1113 -1.63757,28.66388 -0.29472,2.36966 -1.07308,5.34864 -3.6169,6.17078 -2.93817,0.4464 -5.04614,-2.49139 -5.51865,-5.07187 -0.51936,-2.83488 -0.1632,-5.73303 -0.22656,-8.59959 0.0576,-6.79161 0.12384,-13.58323 0.18528,-20.37484 0.19296,-2.54756 2.35719,-4.66762 4.90954,-4.78954 0.34944,-0.0384 0.70176,-0.0576 1.05282,-0.048 z" id="path139-8"/>
    </g>
  </g>
</svg>
