<?xml version='1.0' encoding='ASCII' standalone='yes'?>
<svg xmlns="http://www.w3.org/2000/svg" xmlns:xlink="http://www.w3.org/1999/xlink" version="1.1" width="72.0mm" viewBox="0 0 72.0 72.0" height="72.0mm">
  <g transform="translate(5.727088999999999, 6.146831500000001) scale(1 1) ">
    <defs id="defs1"/>
    <g id="layer1" transform="translate(-394.33818,171.23691)">
      <path id="path32-4-7-5-90" style="color:#000000;fill:#000000;stroke:none;stroke-width:0.998112;stroke-linecap:round;stroke-linejoin:round;-inkscape-stroke:none" d="m 436.2936,-171.22933 c -8.46893,-0.21984 -17.32886,4.3512 -19.2146,12.55046 -0.87168,4.07664 0.57024,8.63559 3.55758,11.93223 -6.62976,3.51427 -10.13866,10.95984 -10.13166,18.33321 0.47424,2.00199 1.00571,4.40247 -0.98725,1.88852 -3.01239,-2.90084 -6.02487,-5.80157 -9.03725,-8.70231 -5.57107,-3.99254 -8.49898,4.21459 -3.79066,6.99082 5.40087,5.21357 10.80183,10.42723 16.20279,15.6408 4.43989,3.4343 7.82515,-2.20983 5.85388,-5.99424 -1.16256,-6.52983 -1.56067,-13.96195 2.69885,-19.15815 3.40156,-3.86121 9.3217,-4.68086 14.54007,-3.85209 4.61125,0.92928 6.58617,5.88355 7.10304,9.81657 0.768,5.26781 0.13632,10.5074 -0.83712,15.57476 -0.0672,6.03302 8.78677,4.2623 8.00389,-0.98007 1.16804,-7.46429 1.64871,-15.5856 -1.69948,-22.97232 -0.97401,-1.92969 -2.97236,-3.63465 0.0576,-4.4351 5.02455,-3.38247 7.86489,-10.04458 5.3232,-16.10199 -2.77104,-6.81302 -10.65321,-10.4638 -17.64452,-10.53148 z m 0.49152,7.56547 c 4.03401,-0.006 9.2496,1.88957 10.18492,6.28023 0.38112,4.15248 -3.45292,7.14777 -7.11427,8.21846 -3.73055,-0.2544 -7.46111,-0.50784 -11.19158,-0.76224 -3.42393,-1.42176 -5.44329,-5.59344 -3.18519,-8.47008 2.33924,-3.53443 6.89895,-5.30294 11.3064,-5.26666 z"/>
    </g>
  </g>
</svg>
