<?xml version='1.0' encoding='ASCII' standalone='yes'?>
<svg xmlns="http://www.w3.org/2000/svg" xmlns:xlink="http://www.w3.org/1999/xlink" version="1.1" width="72.0mm" viewBox="0 0 72.0 72.0" height="72.0mm">
  <g transform="translate(19.2095965, 5.732009999999999) scale(1 1) ">
    <defs id="defs1"/>
    <g id="layer1" transform="translate(-594.15403,168.93301)">
      <path id="path152" style="color:#000000;fill:#000000;stroke:none;stroke-width:1;stroke-linecap:round;stroke-linejoin:round;-inkscape-stroke:none" d="m 602.21212,-168.93234 c -4.35945,0.53664 -3.83961,5.39319 -1.52293,7.75354 2.90697,4.03171 5.81404,8.06352 8.72101,12.09533 2.09136,2.97532 5.56427,1.20422 7.30781,-1.01415 3.41185,-3.51523 6.9339,-6.93091 10.27498,-10.51008 3.02823,-4.27526 -4.02028,-8.364 -6.68199,-4.09325 -2.44578,2.48026 -4.89168,4.96061 -7.33756,7.44087 -2.41929,-3.36192 -4.8386,-6.72375 -7.25789,-10.08567 l -1.5382,-1.26374 -1.96427,-0.32352 z m -2.39116,19.68999 c -4.34169,0.61056 -3.74016,5.44819 -1.39392,7.76976 2.892,3.88742 5.78409,7.77475 8.6761,11.66217 2.00553,2.80282 5.37341,1.25213 7.13154,-0.82464 4.15796,-3.97171 8.42295,-7.83926 12.51227,-11.87769 3.18066,-4.157 -3.70512,-8.49725 -6.51995,-4.332 -3.18057,2.9976 -6.36115,5.9952 -9.54172,8.9928 -2.44407,-3.28916 -4.88823,-6.57821 -7.33229,-9.86736 l -1.56163,-1.23562 -1.9706,-0.28704 z m -2.28201,20.74166 c -4.62308,0.42528 -4.09499,6.05011 -0.91104,7.91808 4.27248,3.73709 8.54496,7.47418 12.81744,11.21126 2.51596,2.29431 5.29584,0.0864 6.87628,-1.99344 3.16647,-3.61363 6.44669,-7.13424 9.54009,-10.80748 2.81214,-4.41994 -4.43385,-8.15367 -6.87408,-3.75284 -2.44837,2.75492 -4.89666,5.50983 -7.34496,8.26474 -3.77529,-3.30067 -7.55049,-6.60134 -11.32579,-9.90202 l -1.296,-0.74496 -1.48214,-0.19296 z"/>
    </g>
  </g>
</svg>
