<?xml version='1.0' encoding='ASCII' standalone='yes'?>
<svg xmlns="http://www.w3.org/2000/svg" xmlns:xlink="http://www.w3.org/1999/xlink" version="1.1" width="72.0mm" viewBox="0 0 72.0 72.0" height="72.0mm">
  <g transform="translate(3.673553499999997, 3.636955499999999) scale(1 1) ">
    <defs id="defs1"/>
    <g id="layer1" transform="translate(-667.51799,173.12921)">
      <path id="path42-8" style="color:#000000;fill:#000000;stroke:none;stroke-width:1;stroke-linecap:round;stroke-linejoin:round;-inkscape-stroke:none" d="m 709.6462,-173.1045 c -3.79833,-0.37344 -4.36309,3.56707 -4.49634,6.35059 -0.48865,4.76391 -0.97776,9.52791 -1.4667,14.29191 -0.45024,5.92512 8.37504,4.87728 7.76084,-0.32544 0.52224,-5.62368 1.23811,-11.23728 1.63623,-16.8673 -0.14208,-1.77801 -1.65659,-3.29981 -3.43403,-3.44995 z m -26.37235,3.82983 c -4.61538,0.59136 -3.63821,5.55273 -1.54406,8.15184 2.23124,3.74361 4.46237,7.48732 6.6935,11.23094 3.25728,5.13965 9.78144,-1.1112 6.03427,-4.88333 -2.51749,-4.21613 -5.03491,-8.43235 -7.55232,-12.64857 l -1.54992,-1.44682 -2.08147,-0.40416 z m 45.45706,0.8832 c -3.55987,-0.11808 -4.48263,3.52108 -6.18538,5.84467 -1.7928,2.8871 -3.58569,5.77411 -5.37849,8.66112 -2.95757,5.71507 5.79724,7.71677 7.39372,2.65133 2.43284,-4.00666 5.02887,-7.92279 7.35543,-11.98839 0.91104,-2.23334 -0.73152,-4.98931 -3.18528,-5.16873 z m -22.94428,21.91238 c -7.50855,-0.0768 -15.60203,3.17318 -19.2026,10.11725 -2.17507,4.23878 -3.55795,9.24057 -2.31351,13.96809 -0.10176,0.77952 -1.62144,-1.36819 -2.32741,-1.83619 -2.72795,-2.63568 -5.45597,-5.27136 -8.18391,-7.90704 -4.96964,-4.09872 -8.77901,4.05303 -4.15334,6.68103 5.5175,5.3184 11.03501,10.63689 16.5525,15.95539 4.88285,3.71357 7.71755,-2.87088 5.7266,-6.77789 -0.97239,-6.12883 -1.33488,-13.26566 2.82634,-18.35971 3.7223,-4.09987 9.94598,-4.74058 15.09744,-3.71501 4.85346,1.42627 6.40463,7.03152 6.76521,11.50973 0.33888,4.37779 -0.0864,8.79149 -0.95712,13.08633 -1.25232,5.9258 8.0712,5.94768 7.77024,0.38976 1.36349,-8.01888 1.84493,-16.8118 -1.86912,-24.30643 -2.85034,-5.84525 -9.37767,-9.04137 -15.73123,-8.80493 z"/>
    </g>
  </g>
</svg>
