<?xml version='1.0' encoding='ASCII' standalone='yes'?>
<svg xmlns="http://www.w3.org/2000/svg" xmlns:xlink="http://www.w3.org/1999/xlink" version="1.1" width="72.0mm" viewBox="0 0 72.0 72.0" height="72.0mm">
  <g transform="translate(8.3835525, 8.2676375) scale(1 1) ">
    <defs id="defs1"/>
    <g id="layer1" transform="translate(-861.29593,168.41793)">
      <path style="color:#000000;fill:#000000;stroke:none;stroke-width:1;stroke-linecap:round;stroke-linejoin:round;-inkscape-stroke:none" d="m 902.64108,-168.26639 c -5.81328,1.23562 -9.4664,6.47904 -12.4014,11.22288 -1.31952,1.53687 -1.88361,5.84045 -4.05236,2.95767 -4.40553,-3.24624 -9.87753,-6.42816 -15.53241,-4.96771 -6.3862,1.71657 -9.57975,8.78419 -9.34713,14.96092 0.21312,11.54343 8.05968,21.89136 18.10194,27.04589 3.94782,1.96858 8.17979,3.70426 12.59915,4.09354 4.30645,-1.53216 8.04893,-4.40842 11.45021,-7.41859 9.90352,-9.10253 15.24256,-23.51348 12.23192,-36.7945 -1.09336,-5.05968 -4.46704,-10.42032 -10.01144,-11.1504 -1.00656,-0.14784 -2.03792,-0.13536 -3.03848,0.048 z m 1.40616,7.55626 c 2.80504,-0.0576 3.64728,3.58694 4.27768,5.77853 1.79624,9.81043 -2.11144,20.11113 -8.85352,27.25747 -2.42784,2.56013 -5.25434,4.73434 -8.32413,6.47002 -9.36491,-2.28884 -18.32736,-8.6762 -21.32333,-18.15648 -1.06407,-3.59751 -1.47418,-8.0138 0.95424,-11.15597 2.33174,-2.38666 5.99193,-0.89568 8.45846,0.46848 2.61484,1.47753 4.92192,3.43689 7.05427,5.53785 4.31933,3.58253 6.82167,-2.12419 8.2826,-5.36697 2.24381,-3.94781 4.71453,-8.12813 8.69181,-10.54704 l 0.42624,-0.18624 0.35616,-0.0998 z" id="path146-7"/>
    </g>
  </g>
</svg>
