<?xml version='1.0' encoding='ASCII' standalone='yes'?>
<svg xmlns="http://www.w3.org/2000/svg" xmlns:xlink="http://www.w3.org/1999/xlink" version="1.1" width="72.0mm" viewBox="0 0 72.0 72.0" height="72.0mm">
  <g transform="translate(10.017378, 10.595932000000001) scale(1 1) ">
    <defs id="defs1"/>
    <g id="layer1" transform="translate(-951.45724,164.4545)">
      <path id="path156" style="color:#000000;fill:#000000;stroke:none;stroke-width:1;stroke-linecap:round;stroke-linejoin:round;-inkscape-stroke:none" d="m 984.93364,-164.4477 c -1.82544,0.31296 -3.48688,1.18733 -5.22888,1.7856 -2.15968,1.09402 -2.92696,3.53635 -4.268,5.40855 -7.78312,12.56563 -15.56632,25.13136 -23.34952,37.69699 -2.29784,3.97296 2.18184,6.43353 5.53344,5.81549 14.05528,-0.34464 28.11056,-0.68832 42.16592,-1.03306 3.5101,-0.0384 4.4083,-4.02346 2.9983,-6.61056 -2.6414,-7.61424 -5.28294,-15.22838 -7.92438,-22.84253 1.32784,-2.46144 -1.25312,-3.84835 -1.99528,-5.74349 -1.37552,-3.96739 -2.75112,-7.93488 -4.12656,-11.90227 -0.5184,-1.57411 -2.1512,-2.67897 -3.80504,-2.57472 z m -1.91,9.53002 c 1.02032,2.94182 2.04064,5.88365 3.06088,8.82547 -2.50856,2.28864 -5.01712,4.57728 -7.52568,6.86592 -1.08808,-1.06493 -2.17624,-2.12986 -3.26432,-3.19478 2.5764,-4.16554 5.1528,-8.33108 7.72912,-12.49661 z m 5.7944,16.70841 c 1.5808,4.55578 3.16176,9.11165 4.74256,13.66743 -3.17,-3.10387 -6.34,-6.20784 -9.51,-9.31171 1.5892,-1.45191 3.17824,-2.90381 4.76744,-4.35572 z m -17.66096,2.47556 c 0.38496,0.62592 1.82416,1.26902 1.51168,1.88265 -2.0484,1.86951 -4.0968,3.73891 -6.1452,5.60832 1.54456,-2.49696 3.08904,-4.99401 4.63352,-7.49097 z m 7.21816,7.05936 c 2.23904,2.1911 4.47816,4.38211 6.71712,6.57321 -4.76904,0.11712 -9.53824,0.2352 -14.30736,0.35232 2.53008,-2.30851 5.06016,-4.61702 7.59024,-6.92553 z"/>
    </g>
  </g>
</svg>
