<?xml version='1.0' encoding='ASCII' standalone='yes'?>
<svg xmlns="http://www.w3.org/2000/svg" xmlns:xlink="http://www.w3.org/1999/xlink" version="1.1" width="72.0mm" viewBox="0 0 72.0 72.0" height="72.0mm">
  <g transform="translate(17.556204, 7.4836405) scale(1 1) ">
    <defs id="defs1"/>
    <g id="layer1" transform="translate(778.10773,-114.86296)">
      <path id="path159" style="color:#000000;fill:#000000;stroke:none;stroke-width:1;stroke-linecap:round;stroke-linejoin:round;-inkscape-stroke:none" d="m -744.68732,114.86305 c -3.27048,0.2064 -6.50136,0.89376 -9.75512,1.30359 -5.5572,0.81504 -11.11456,1.63085 -16.67176,2.44627 -5.21472,0.5568 -3.47656,8.99155 1.51024,7.53581 2.58064,-0.3792 5.16128,-0.75744 7.74184,-1.13626 -0.50104,12.90999 -1.00208,25.82007 -1.50312,38.73005 -3.72728,0.13728 -7.45464,0.27456 -11.18192,0.41184 -5.24528,-0.005 -4.42496,8.58106 0.6908,7.67424 9.69488,-0.36384 19.38976,-0.72768 29.08472,-1.09104 5.17952,0.01 4.514,-8.65152 -0.82688,-7.64957 -3.35248,0.12384 -6.70496,0.24768 -10.05744,0.37152 0.506,-13.1928 1.012,-26.3856 1.518,-39.5784 3.39904,-0.53472 6.82456,-0.93024 10.20568,-1.55798 3.76608,-1.15795 3.37872,-7.01098 -0.75504,-7.46016 z"/>
    </g>
  </g>
</svg>
