<?xml version='1.0' encoding='ASCII' standalone='yes'?>
<svg xmlns="http://www.w3.org/2000/svg" xmlns:xlink="http://www.w3.org/1999/xlink" version="1.1" width="72.0mm" viewBox="0 0 72.0 72.0" height="72.0mm">
  <g transform="translate(17.122013, 1.3805045000000007) scale(1 1) ">
    <defs id="defs1"/>
    <g id="layer1" transform="translate(691.60984,-112.07078)">
      <path id="path162" style="color:#000000;fill:#000000;stroke:none;stroke-width:1;stroke-linecap:round;stroke-linejoin:round;-inkscape-stroke:none" d="m -687.91436,112.08491 c -5.12629,0.33216 -4.93329,9.50995 0.66653,8.47968 4.5867,-0.87168 4.66656,-8.87453 -0.66653,-8.47968 z m 13.71699,0.432 c -3.59023,-0.0576 -4.04595,3.65088 -3.87844,6.33686 -0.0192,2.72468 -0.0403,5.44925 -0.0605,8.17392 -2.84924,0.13728 -5.69847,0.27456 -8.54769,0.41184 -6.16731,0.56352 -3.45579,9.09197 1.64145,7.62768 2.28388,-0.11136 4.56778,-0.22368 6.85167,-0.33504 -0.0192,2.38292 -0.0365,4.76583 -0.0547,7.14874 -2.87569,0.44352 -5.75137,0.88608 -8.62705,1.3295 -6.10016,1.32039 -2.27789,9.35818 2.5882,7.35812 1.99476,-0.30816 3.98952,-0.61632 5.98428,-0.92352 -0.0192,2.53833 -0.0365,5.07676 -0.0547,7.6151 -2.30848,0.2592 -4.61696,0.51936 -6.92545,0.77856 -6.16175,1.04784 -2.69235,9.27514 2.26363,7.47619 1.5341,-0.17184 3.06821,-0.34464 4.6023,-0.51648 -0.0317,4.20519 -0.0624,8.41047 -0.0941,12.61565 0.31929,6.23098 8.89548,3.76541 7.69935,-1.36464 0.0278,-4.03805 0.0557,-8.07619 0.0845,-12.11424 4.72783,-0.56736 9.47868,-0.98765 14.19176,-1.64976 5.15132,-1.50518 1.98258,-9.08227 -2.77957,-7.36214 -3.78588,0.42432 -7.57175,0.84864 -11.35763,1.27286 0.0192,-2.64586 0.0365,-5.29162 0.0547,-7.93747 4.73832,-0.768 9.50384,-1.39757 14.22453,-2.25485 5.01131,-1.60627 1.83116,-9.13834 -2.90701,-7.25021 -3.75432,0.57888 -7.50864,1.15747 -11.26296,1.73616 0.0144,-2.11171 0.0298,-4.22333 0.0451,-6.33504 4.04919,-0.23328 8.1115,-0.32352 12.15208,-0.64992 5.23468,-1.17158 2.55464,-8.92723 -2.30404,-7.51459 -3.2645,0.15648 -6.52898,0.31392 -9.79346,0.4704 -0.012,-3.64925 0.12312,-7.30397 0.0144,-10.94957 -0.27274,-1.79001 -1.94074,-3.20966 -3.7501,-3.19411 z m 12.54621,1.3295 c -6.41137,-0.0768 -3.8958,10.91674 1.87791,8.06381 3.73089,-1.67357 2.15577,-8.12256 -1.87791,-8.06381 z"/>
    </g>
  </g>
</svg>
