<?xml version='1.0' encoding='ASCII' standalone='yes'?>
<svg xmlns="http://www.w3.org/2000/svg" xmlns:xlink="http://www.w3.org/1999/xlink" version="1.1" width="72.0mm" viewBox="0 0 72.0 72.0" height="72.0mm">
  <g transform="translate(7.853740500000001, 21.417333499999998) scale(1 1) ">
    <defs id="defs1"/>
    <g id="layer1" transform="translate(605.38436,-131.7096)">
      <path id="path168" style="color:#000000;fill:#000000;stroke:none;stroke-width:1;stroke-linecap:round;stroke-linejoin:round;-inkscape-stroke:none" d="m -565.52306,131.71537 c -3.19746,-0.16128 -4.15405,3.09197 -3.98247,5.6473 -0.1344,5.26128 -0.26871,10.52266 -0.403,15.78394 -8.93796,-0.11232 -17.87592,-0.22464 -26.81388,-0.33696 -0.29934,-5.78112 -0.59856,-11.56234 -0.8979,-17.34346 -0.37718,-5.832 -8.98349,-3.67622 -7.61717,1.40256 0.34464,6.64483 0.68939,13.28966 1.03403,19.9345 0.0787,3.17558 3.32476,3.81648 5.81397,3.66182 10.72396,0.13536 21.44796,0.27072 32.17192,0.40608 3.08088,0.12768 4.11435,-3.00096 3.93059,-5.50099 0.17136,-6.57341 0.3429,-13.14691 0.51436,-19.72042 0.096,-2.06457 -1.68526,-3.92995 -3.75043,-3.93475 z m 11.44985,9.20746 c -4.02582,0.22176 -4.26788,4.78493 -2.27832,7.27056 2.4618,4.73107 9.50253,0.01 6.54768,-4.0223 -0.85824,-1.65812 -2.10221,-3.46647 -4.26936,-3.24826 z"/>
    </g>
  </g>
</svg>
