<?xml version='1.0' encoding='ASCII' standalone='yes'?>
<svg xmlns="http://www.w3.org/2000/svg" xmlns:xlink="http://www.w3.org/1999/xlink" version="1.1" width="72.0mm" viewBox="0 0 72.0 72.0" height="72.0mm">
  <g transform="translate(11.077413499999999, 11.467656999999999) scale(1 1) ">
    <defs id="defs1"/>
    <g id="layer1" transform="translate(511.27627,-119.47531)">
      <path id="path170" style="color:#000000;fill:#000000;stroke:none;stroke-width:1;stroke-linecap:round;stroke-linejoin:round;-inkscape-stroke:none" d="m -465.03929,119.4916 c -3.3258,-0.27936 -4.26252,3.0911 -4.20115,5.67533 -0.756,11.88316 -1.51193,23.76624 -2.2679,35.64931 -10.6065,-0.12576 -21.21298,-0.25152 -31.81947,-0.37728 0.78711,-11.45645 1.57428,-22.9129 2.36141,-34.36935 0.58195,-5.15606 -8.18703,-5.51155 -7.70769,0.0288 -0.86208,12.6264 -1.72416,25.2528 -2.58624,37.8792 -0.28139,3.40858 3.22081,4.33786 5.88781,4.11293 12.46877,0.1488 24.93752,0.2976 37.40628,0.4464 3.32861,0.11904 4.04567,-3.2688 4.02684,-5.83478 0.83223,-13.04871 1.66452,-26.09731 2.4968,-39.14602 0.16824,-2.05929 -1.53237,-3.98294 -3.59669,-4.0679 z"/>
    </g>
  </g>
</svg>
