<?xml version='1.0' encoding='ASCII' standalone='yes'?>
<svg xmlns="http://www.w3.org/2000/svg" xmlns:xlink="http://www.w3.org/1999/xlink" version="1.1" width="72.0mm" viewBox="0 0 72.0 72.0" height="72.0mm">
  <g transform="translate(13.153219, 20.0895005) scale(1 1) ">
    <defs id="defs1"/>
    <g id="layer1" transform="translate(416.34652,-131.33785)">
      <path style="color:#000000;fill:#000000;stroke:none;stroke-width:1;stroke-linecap:round;stroke-linejoin:round;-inkscape-stroke:none" d="m -412.07145,131.33982 c -4.69139,-0.11904 -4.42371,5.17325 -4.14416,8.45107 0.64868,8.65143 5.38037,17.35316 13.3338,21.28704 6.56769,3.34032 14.86776,2.57914 20.82717,-1.70822 6.89691,-4.81824 11.01563,-13.10342 11.40168,-21.43008 -0.14324,-4.7568 -8.06687,-4.49971 -7.69544,0.48192 -0.63341,6.7705 -4.5454,13.63978 -11.08325,16.19693 -4.7295,1.94582 -10.39464,0.44544 -13.85628,-3.22723 -4.09062,-4.13588 -5.76275,-10.19933 -5.27775,-15.90759 0.21456,-2.05113 -1.44873,-4.01568 -3.50577,-4.14374 z" id="path23-4-2-9-7"/>
    </g>
  </g>
</svg>
