<?xml version="1.0" encoding="UTF-8" standalone="no"?>
<svg
   version="1.1"
   width="72.0mm"
   viewBox="0 0 72.0 72.0"
   height="72.0mm"
   id="svg1"
   sodipodi:docname="powe.svg"
   inkscape:version="1.3.2 (091e20e, 2023-11-25, custom)"
   xmlns:inkscape="http://www.inkscape.org/namespaces/inkscape"
   xmlns:sodipodi="http://sodipodi.sourceforge.net/DTD/sodipodi-0.dtd"
   xmlns="http://www.w3.org/2000/svg"
   xmlns:svg="http://www.w3.org/2000/svg">
  <defs
     id="defs2">
    <defs
       id="defs1" />
  </defs>
  <sodipodi:namedview
     id="namedview1"
     pagecolor="#ffffff"
     bordercolor="#000000"
     borderopacity="0.25"
     inkscape:showpageshadow="2"
     inkscape:pageopacity="0.0"
     inkscape:pagecheckerboard="0"
     inkscape:deskcolor="#d1d1d1"
     inkscape:document-units="mm"
     inkscape:zoom="2.1125429"
     inkscape:cx="95.61936"
     inkscape:cy="160.23343"
     inkscape:window-width="1920"
     inkscape:window-height="1009"
     inkscape:window-x="-8"
     inkscape:window-y="-8"
     inkscape:window-maximized="1"
     inkscape:current-layer="svg1" />
  <path
     id="path80"
     style="color:#000000;fill:#000000;stroke:none;stroke-width:1;stroke-linecap:round;stroke-linejoin:round;-inkscape-stroke:none"
     d="m 43.625759,17.555552 a 3.8,3.8 0 0 0 -0.74466,0.01602 3.8,3.8 0 0 0 -2.53524,1.42627 l -3.72174,4.73924 -3.09852,-2.6417 a 3.8,3.8 0 0 0 -2.76572,-0.89658 3.8,3.8 0 0 0 -2.59209,1.3224 3.8,3.8 0 0 0 0.42788,5.35729 l 3.33055,2.83962 -4.60592,5.86528 a 3.8,3.8 0 0 0 0.64233,5.33611 3.8,3.8 0 0 0 5.33405,-0.64079 l 4.41781,-5.6255 2.77968,2.36988 a 3.8,3.8 0 0 0 5.35523,-0.42581 3.8,3.8 0 0 0 -0.42582,-5.35729 l -3.01222,-2.56832 3.91088,-4.98058 a 3.8,3.8 0 0 0 -0.64079,-5.33611 3.8,3.8 0 0 0 -2.05569,-0.79943 z m 13.44207,28.66905 c -14.10541,0.15053 -28.21087,0.30112 -42.31628,0.45165 -5.9833301,0.26179 -3.8576,8.89857 1.28623,7.65742 13.70167,-0.13978 27.40335,-0.27975 41.10499,-0.41962 4.85649,0.0125 5.1172,-7.67975 -0.07442,-7.68945 z" />
</svg>
