<?xml version='1.0' encoding='ASCII' standalone='yes'?>
<svg xmlns="http://www.w3.org/2000/svg" xmlns:xlink="http://www.w3.org/1999/xlink" version="1.1" width="72.0mm" viewBox="0 0 72.0 72.0" height="72.0mm">
  <g transform="translate(6.6833305, 4.6537705) scale(1 1) ">
    <defs id="defs1"/>
    <g id="layer1" transform="translate(332.56916,-112.87923)">
      <path id="path77-3-8" style="color:#000000;fill:#000000;stroke:none;stroke-width:1;stroke-linecap:round;stroke-linejoin:round;-inkscape-stroke:none" d="m -304.79604,112.88363 c -7.19872,0.048 -14.39868,0.5856 -21.51062,1.71149 -4.13294,1.32441 -3.49486,6.22272 -4.42591,9.64329 -2.4458,14.91591 -2.17924,30.13968 -0.7682,45.14535 0.86621,4.47705 6.0526,3.5231 9.43221,4.25885 13.3908,1.59302 26.89147,1.95763 40.36568,1.92739 4.81328,-0.59328 4.00848,-6.24163 4.99976,-9.76311 2.6711,-15.75408 3.56076,-31.85798 1.99516,-47.77872 -0.9096,-4.55836 -6.12885,-3.4535 -9.54346,-4.13606 -6.82576,-0.67296 -13.68426,-1.05888 -20.54462,-1.00848 z m 2.63427,8.11613 c 6.55443,0.048 13.10105,0.50112 19.61553,1.21046 1.14404,15.19008 0.0509,30.50266 -2.71858,45.46695 -12.84606,-0.0384 -25.70943,-0.59904 -38.45719,-2.24727 -1.16724,-14.40326 -1.12215,-29.01302 1.65199,-43.23955 6.59602,-0.8784 13.25578,-1.24291 19.90825,-1.19059 z m -3.10059,2.36141 c -6.62801,-0.11424 -3.77072,11.43148 2.05428,8.36505 3.67891,-1.76438 1.81646,-8.36352 -2.05428,-8.36505 z m -13.45408,5.59094 c -5.53476,0.25632 -4.00452,7.98269 0.59664,8.23277 6.57168,-0.16416 4.40956,-8.24218 -0.59664,-8.23277 z m 27.77133,0.68928 c -5.01213,-0.25632 -6.52321,8.59728 -0.3909,8.16998 4.59817,-0.55488 6.04276,-7.61481 0.3909,-8.16998 z m -13.76163,6.89078 c -7.84632,-0.18624 -15.6128,6.1176 -15.9609,14.165 -0.50408,6.78931 4.72446,13.04304 11.21467,14.55609 8.00309,2.2704 17.46777,-2.57453 19.64606,-10.74672 1.96259,-6.59491 -1.94227,-14.02531 -8.25945,-16.57046 -2.08328,-0.92544 -4.36281,-1.40055 -6.64038,-1.40391 z m 0.42172,7.68941 c 4.28078,-0.0989 8.50193,4.14797 6.99655,8.50963 -1.86677,6.04656 -11.25428,7.36186 -14.71123,2.06141 -2.56002,-3.648 0.0499,-8.72323 3.99576,-9.9719 1.18246,-0.4464 2.46005,-0.64512 3.71892,-0.59904 z"/>
    </g>
  </g>
</svg>
