<?xml version='1.0' encoding='ASCII' standalone='yes'?>
<svg xmlns="http://www.w3.org/2000/svg" xmlns:xlink="http://www.w3.org/1999/xlink" version="1.1" width="72.0mm" viewBox="0 0 72.0 72.0" height="72.0mm">
  <g transform="translate(17.31184, 22.390269500000002) scale(1 1) ">
    <defs id="defs1"/>
    <g id="layer1" transform="translate(229.88754,-133.01784)">
      <path id="path175" style="color:#000000;fill:#000000;stroke:none;stroke-width:1;stroke-linecap:round;stroke-linejoin:round;-inkscape-stroke:none" d="m -224.76124,133.04488 c -4.02993,-0.48576 -5.66418,5.71421 -1.91158,7.27094 1.80321,0.61728 3.73338,0.4416 5.60452,0.63456 8.18157,0.50304 16.36314,1.00675 24.54472,1.51018 4.40626,0.51552 5.56534,-6.25747 1.54246,-7.44903 -1.89108,-0.41472 -3.85816,-0.33024 -5.7852,-0.50784 -7.9983,-0.48672 -15.99661,-0.97296 -23.99492,-1.45948 z m -0.99218,17.10038 c -4.00742,-0.59232 -5.81858,5.54323 -2.13134,7.22227 1.84524,0.68256 3.8436,0.56736 5.77142,0.81984 7.39882,0.66912 14.79766,1.3392 22.19648,2.0088 4.35326,0.62592 5.7184,-6.07891 1.75785,-7.39449 -1.846,-0.47232 -3.78457,-0.4416 -5.67461,-0.67296 -7.3066,-0.66144 -14.6132,-1.3225 -21.9198,-1.98375 z"/>
    </g>
  </g>
</svg>
