<?xml version='1.0' encoding='ASCII' standalone='yes'?>
<svg xmlns="http://www.w3.org/2000/svg" xmlns:xlink="http://www.w3.org/1999/xlink" version="1.1" width="72.0mm" viewBox="0 0 72.0 72.0" height="72.0mm">
  <g transform="translate(7.922062, 9.246433499999998) scale(1 1) ">
    <defs id="defs1"/>
    <g id="layer1" transform="translate(147.76778,-116.99537)">
      <path id="path177" style="color:#000000;fill:#000000;stroke:none;stroke-width:1;stroke-linecap:round;stroke-linejoin:round;-inkscape-stroke:none" d="m -123.65733,116.99627 c -3.57735,-0.0672 -4.05378,3.62842 -3.87747,6.3095 -0.0451,8.72823 -0.0902,17.45636 -0.13592,26.18458 0.22424,6.15638 8.84591,3.94243 7.67692,-1.20758 0.0538,-9.14064 0.10752,-18.28128 0.16137,-27.42192 0.0557,-2.06948 -1.75502,-3.89847 -3.8249,-3.86458 z m 27.791174,14.3569 c -2.868456,0.5184 -3.725896,3.48508 -5.262964,5.54601 -3.06604,4.79731 -6.13212,9.59472 -9.19817,14.39203 -3.05914,5.41815 5.49501,7.93892 7.22175,2.96468 3.711848,-5.87636 7.552272,-11.67812 11.182088,-17.60218 1.163552,-2.55341 -1.104688,-5.70221 -3.942704,-5.30054 z m -48.622154,5.19417 c -4.41862,0.49344 -3.8804,5.65018 -1.27953,7.92346 3.41961,4.24128 6.83922,8.48265 10.25884,12.72393 3.53741,4.46727 9.45032,-1.96704 5.59288,-5.30016 -3.74615,-4.64438 -7.49228,-9.28867 -11.23844,-13.93305 -0.77912,-0.9936 -2.0892,-1.53485 -3.33375,-1.41418 z m 21.1584,24.636 c -4.6801,-0.11712 -4.74581,5.54919 -1.80825,7.79271 3.49368,4.48992 9.56744,-2.0352 5.55387,-5.321 -1.01487,-1.12137 -2.04031,-2.48208 -3.74562,-2.47171 z"/>
    </g>
  </g>
</svg>
