<?xml version='1.0' encoding='ASCII' standalone='yes'?>
<svg xmlns="http://www.w3.org/2000/svg" xmlns:xlink="http://www.w3.org/1999/xlink" version="1.1" width="72.0mm" viewBox="0 0 72.0 72.0" height="72.0mm">
  <g transform="translate(7.905239000000002, 16.5442125) scale(1 1) ">
    <defs id="defs1"/>
    <g id="layer1" transform="translate(59.547889,-125.04736)">
      <path id="path181" style="color:#000000;fill:#000000;stroke:none;stroke-width:1;stroke-linecap:round;stroke-linejoin:round;-inkscape-stroke:none" d="m -8.871164,125.05777 c -15.706328,0.81312 -31.412648,1.6272 -47.118976,2.4408 -3.467128,0.1248 -3.966336,3.78202 -3.309808,6.41616 1.141304,7.94189 2.2826,15.88378 3.423904,23.82567 0.565248,5.26617 8.689096,3.52128 7.570832,-1.22179 -1.030368,-7.18628 -2.060728,-14.37255 -3.091096,-21.55882 3.176648,-0.16416 6.353304,-0.32736 9.52996,-0.49152 0.749088,8.07638 1.4982,16.15286 2.247304,24.22925 0.573016,5.82336 9.10312,3.43632 7.574032,-1.51171 -0.713952,-7.70314 -1.427872,-15.40628 -2.141808,-23.10941 2.578032,-0.13248 5.156072,-0.264 7.734104,-0.39648 0.82848,8.80733 1.656952,17.61456 2.485424,26.42189 0.313056,5.27904 8.499888,3.93648 7.62216,-0.85056 -0.809376,-8.65604 -1.618704,-17.31216 -2.428056,-25.9682 2.144776,-0.1104 4.28956,-0.22176 6.434336,-0.33216 0.40512,9.14468 0.810336,18.28935 1.215424,27.43402 0.304896,5.84026 8.9244,3.85306 7.633376,-1.15718 -0.44928,-10.16458 -0.89856,-20.32906 -1.347864,-30.49364 -0.02784,-2.0662 -1.97392,-3.83923 -4.033248,-3.67632 z"/>
    </g>
  </g>
</svg>
