<?xml version='1.0' encoding='ASCII' standalone='yes'?>
<svg xmlns="http://www.w3.org/2000/svg" xmlns:xlink="http://www.w3.org/1999/xlink" version="1.1" width="72.0mm" viewBox="0 0 72.0 72.0" height="72.0mm">
  <g transform="translate(15.769842, 12.4750005) scale(1 1) ">
    <defs id="defs1"/>
    <g id="layer1" transform="translate(-44.214468,-120.69558)">
      <path id="path184" style="color:#000000;fill:#000000;stroke:none;stroke-width:1;stroke-linecap:round;stroke-linejoin:round;-inkscape-stroke:none" d="m 63.95539,120.69707 c -7.007309,-0.0768 -14.467814,2.81165 -18.266131,8.96966 -2.379571,2.63636 -2.103725,8.10471 2.485622,7.87978 3.617991,-0.59904 3.734573,-5.2752 6.921802,-6.79085 4.348656,-2.97129 10.015987,-2.71574 14.958355,-1.71101 2.436768,0.63552 5.297472,1.71024 6.342144,4.19156 -1.470336,1.71331 -4.732608,2.37024 -6.875328,3.65337 -3.827808,1.9441 -8.143392,3.50208 -10.975786,6.87687 -1.220102,1.88217 -0.82656,4.24963 -1.267814,6.35894 -1.072618,5.31696 7.770768,5.94902 7.64664,0.65664 -0.27072,-2.41114 1.098336,-3.95904 3.321696,-4.72387 4.603776,-2.51165 9.656736,-4.1785 14.058624,-7.05322 1.86528,-1.14048 2.58336,-3.37248 2.315328,-5.45894 -0.576,-5.23027 -5.035008,-9.21917 -9.742752,-10.9921 -3.469728,-1.33747 -7.220832,-1.83696 -10.9224,-1.85693 z m -2.252256,38.14474 c -4.226131,0.42816 -6.313584,7.95532 -1.129853,8.85926 2.923997,0.45696 5.128157,-2.69549 5.239517,-5.29517 -0.09792,-2.05382 -2.036736,-3.77155 -4.109664,-3.56409 z"/>
    </g>
  </g>
</svg>
