<?xml version='1.0' encoding='ASCII' standalone='yes'?>
<svg xmlns="http://www.w3.org/2000/svg" xmlns:xlink="http://www.w3.org/1999/xlink" version="1.1" width="72.0mm" viewBox="0 0 72.0 72.0" height="72.0mm">
  <g transform="translate(12.0014745, 12.943815) scale(1 1) ">
    <defs id="defs1"/>
    <g id="layer1" transform="translate(-129.59626,-123.05856)">
      <path id="path186" style="color:#000000;fill:#000000;stroke:none;stroke-width:1;stroke-linecap:round;stroke-linejoin:round;-inkscape-stroke:none" d="m 152.82567,123.06846 c -4.67962,-0.288 -5.07956,5.78631 -1.7018,7.65485 3.93015,3.53962 8.83757,-3.17453 4.84868,-5.97437 -0.91392,-0.77376 -1.85597,-1.66493 -3.14688,-1.68048 z m -17.8296,13.16631 c -3.28695,-0.33696 -4.35927,2.99769 -4.24848,5.61283 -0.37632,7.08518 -0.75264,14.17046 -1.12925,21.25565 -0.50976,5.13379 7.97961,5.26272 7.67894,0.14592 0.33888,-6.34887 0.67872,-12.69783 1.0176,-19.04679 10.4808,0.83136 20.9616,1.66359 31.4424,2.49543 -0.26112,6.20611 -0.52224,12.41222 -0.78336,18.61833 -0.41856,5.22163 8.18457,5.08541 7.68633,-0.0864 0.3072,-7.30493 0.6144,-14.60995 0.92161,-21.91488 0.20832,-2.71171 -2.46423,-4.22649 -4.85587,-4.09872 -12.57648,-0.99513 -25.15296,-1.99037 -37.72944,-2.9855 z"/>
    </g>
  </g>
</svg>
