<?xml version='1.0' encoding='ASCII' standalone='yes'?>
<svg xmlns="http://www.w3.org/2000/svg" xmlns:xlink="http://www.w3.org/1999/xlink" version="1.1" width="72.0mm" viewBox="0 0 72.0 72.0" height="72.0mm">
  <g transform="translate(11.0763225, 9.069343499999999) scale(1 1) ">
    <defs id="defs1"/>
    <g id="layer1" transform="translate(-220.72099,-119.19368)">
      <path id="path188" style="color:#000000;fill:#000000;stroke:none;stroke-width:1;stroke-linecap:round;stroke-linejoin:round;-inkscape-stroke:none" d="m 227.84496,119.22865 c -3.33158,-0.0672 -3.97364,3.32794 -4.00676,5.88596 -1.03909,13.39382 -2.07811,26.78755 -3.11721,40.18137 0.0672,6.56631 8.64356,4.14672 7.79376,-1.03104 0.95904,-12.45552 1.91817,-24.91113 2.87721,-37.36665 3.78029,0 7.56048,0 11.34077,0 -1.19894,14.06755 -2.39778,28.1351 -3.59673,42.20265 0.0864,6.57293 8.61753,4.06781 7.79961,-1.09699 1.1688,-13.70189 2.3376,-27.40378 3.5064,-41.10566 3.91911,0 7.83831,0 11.75742,0 0.19968,12.48009 0.40032,24.96009 0.6,37.44019 0.096,5.77219 8.77113,4.1783 7.6728,-0.864 -0.21408,-13.49357 -0.42912,-26.98723 -0.6432,-40.4808 -0.007,-3.45811 -3.57207,-3.95453 -6.19556,-3.76541 -11.92963,0 -23.85916,0 -35.78871,0 z"/>
    </g>
  </g>
</svg>
