<?xml version='1.0' encoding='ASCII' standalone='yes'?>
<svg xmlns="http://www.w3.org/2000/svg" xmlns:xlink="http://www.w3.org/1999/xlink" version="1.1" width="72.0mm" viewBox="0 0 72.0 72.0" height="72.0mm">
  <g transform="translate(10.504719000000001, 8.752762) scale(1 1) ">
    <defs id="defs1"/>
    <g id="layer1" transform="translate(-313.83971,-116.37099)">
      <path id="path22-0" style="color:#000000;fill:#000000;stroke:none;stroke-width:0.999336;stroke-linecap:round;stroke-linejoin:round;-inkscape-stroke:none" d="m 340.13578,116.37611 c -11.25811,0.12288 -21.59694,8.5416 -24.95155,19.70918 -3.0938,9.54452 -0.81216,21.09792 6.47077,28.04804 6.58436,6.58809 16.69844,8.40537 25.04871,5.16672 10.82054,-3.88416 18.48452,-15.50122 18.11367,-27.57869 -0.0672,-9.19872 -5.12323,-18.31776 -13.0489,-22.51008 -3.57878,-1.96387 -7.62452,-2.91936 -11.6327,-2.83517 z m 0.11423,7.84819 c 7.12417,-0.33024 14.12487,4.81527 16.21891,12.03408 3.29712,10.20711 -2.64048,21.99293 -12.0648,25.55165 -6.72613,2.8175 -15.21552,0.672 -19.60771,-5.63213 -5.21885,-7.09565 -4.31933,-17.63347 0.97863,-24.24605 3.46588,-4.58073 8.83324,-7.60329 14.47497,-7.70755 z m -0.56063,5.17431 c -7.30464,-0.0192 -13.91914,6.55228 -14.05344,14.27308 -0.37248,6.2161 3.92237,12.32612 9.73229,13.73252 7.33554,2.07177 15.52137,-3.05837 17.25081,-10.77274 1.60128,-5.98387 -1.1975,-13.00781 -6.64992,-15.73565 -1.93959,-1.03613 -4.11965,-1.53753 -6.27974,-1.49721 z m 0.37248,7.73404 c 3.67209,-0.1008 6.38333,4.19146 5.18102,7.72877 -1.05417,4.2073 -6.29337,6.91383 -9.8642,4.08327 -3.32304,-2.51261 -2.58489,-7.95053 0.44352,-10.26461 1.1832,-1.00599 2.70173,-1.59178 4.24014,-1.54743 z"/>
    </g>
  </g>
</svg>
