<?xml version='1.0' encoding='ASCII' standalone='yes'?>
<svg xmlns="http://www.w3.org/2000/svg" xmlns:xlink="http://www.w3.org/1999/xlink" version="1.1" width="72.0mm" viewBox="0 0 72.0 72.0" height="72.0mm">
  <g transform="translate(9.150179000000001, 17.9986285) scale(1 1) ">
    <defs id="defs1"/>
    <g id="layer1" transform="translate(-400.98048,-120.72092)">
      <path id="path190" style="color:#000000;fill:#000000;stroke:none;stroke-width:1;stroke-linecap:round;stroke-linejoin:round;-inkscape-stroke:none" d="m 428.02368,120.72683 c -3.22484,-0.16416 -4.16285,3.12394 -3.98448,5.69222 -0.0864,3.58445 -0.168,7.1689 -0.25248,10.75335 0.005,5.95142 8.76279,4.23523 7.6942,-0.97642 0.0768,-4.04409 0.26688,-8.08992 0.26112,-12.13296 -0.2112,-1.83581 -1.87093,-3.32438 -3.71884,-3.33619 z m 22.98903,23.7481 c -3.77867,0.43968 -7.52564,1.16496 -11.29152,1.71984 -5.29968,0.68448 -3.2354,9.08726 1.71196,7.49424 3.53481,-0.58944 7.09181,-1.06647 10.61204,-1.72973 3.92121,-1.18983 3.37477,-7.33402 -1.03248,-7.48435 z m -31.93355,3.83472 c -4.85673,0.2064 -9.71356,0.41376 -14.57029,0.62016 -5.95037,0.40704 -3.64043,9.06288 1.50163,7.63497 4.66733,-0.22848 9.34445,-0.33696 14.00534,-0.6432 4.45671,-0.8304 3.87945,-7.81497 -0.93696,-7.61203 z"/>
    </g>
  </g>
</svg>
