<?xml version='1.0' encoding='ASCII' standalone='yes'?>
<svg xmlns="http://www.w3.org/2000/svg" xmlns:xlink="http://www.w3.org/1999/xlink" version="1.1" width="72.0mm" viewBox="0 0 72.0 72.0" height="72.0mm">
  <g transform="translate(15.383959, 5.7807025) scale(1 1) ">
    <defs id="defs1"/>
    <g id="layer1" transform="translate(-501.5224,-113.69721)">
      <path id="path99-9" style="color:#000000;fill:#000000;stroke:none;stroke-width:1;stroke-linecap:round;stroke-linejoin:round;-inkscape-stroke:none" d="m 509.8296,113.73198 c -3.46281,-0.4224 -4.38758,3.09274 -4.46948,5.74061 -1.12291,10.55328 -2.24592,21.10656 -3.36882,31.65984 -1.89475,7.11917 2.18514,14.56061 8.05862,18.49642 7.79164,5.45616 19.3033,6.41174 27.03495,0.34272 5.01954,-3.78759 7.00713,-10.88804 4.7374,-16.74336 -3.4992,-9.53376 -14.26483,-14.93117 -24.07468,-14.04807 -2.29835,-0.0384 -5.34432,1.3993 -6.9147,1.54147 0.80352,-7.58918 1.60666,-15.17836 2.40999,-22.76755 0.27168,-2.03357 -1.36791,-4.06137 -3.41328,-4.22169 z m 9.57456,33.05962 c 6.21207,-0.16032 12.96615,3.15945 15.25642,9.19603 1.45997,3.73555 -0.936,7.98634 -4.57978,9.31075 -7.02749,2.93367 -16.1642,-0.007 -19.9032,-6.70483 -2.0186,-3.34598 -0.83424,-8.05862 2.6184,-9.94579 1.9726,-1.22746 4.30156,-1.788 6.60816,-1.85616 z"/>
    </g>
  </g>
</svg>
