<?xml version='1.0' encoding='ASCII' standalone='yes'?>
<svg xmlns="http://www.w3.org/2000/svg" xmlns:xlink="http://www.w3.org/1999/xlink" version="1.1" width="72.0mm" viewBox="0 0 72.0 72.0" height="72.0mm">
  <g transform="translate(10.6374395, 8.596435499999998) scale(1 1) ">
    <defs id="defs1"/>
    <g id="layer1" transform="translate(-585.63673,-117.74949)">
      <path id="path110-6" style="color:#000000;fill:#000000;stroke:none;stroke-width:1;stroke-linecap:round;stroke-linejoin:round;-inkscape-stroke:none" d="m 615.20007,172.54801 c 2.467,0.17184 4.28668,-2.25878 4.00752,-4.58611 0.56352,-15.24672 1.17657,-30.49277 1.7085,-45.73987 -0.0672,-2.41286 -2.50406,-3.89242 -4.73654,-3.63638 -8.03817,-0.27168 -16.07587,-0.59616 -24.11443,-0.83616 -3.11558,0.048 -4.79289,4.28832 -2.55945,6.45657 1.71004,1.79367 4.34275,1.10333 6.55045,1.35831 5.68187,0.19968 11.36363,0.39936 17.04548,0.59808 -0.48768,12.86208 -0.97565,25.72416 -1.46342,38.58624 -7.48128,-0.24 -14.96208,-0.53568 -22.44366,-0.74112 -3.10309,0.0576 -4.76629,4.29561 -2.5245,6.44726 1.71753,1.78138 4.34573,1.08893 6.55353,1.34246 7.32557,0.2496 14.65104,0.50016 21.97652,0.75072 z m 17.0061,-24.35443 c 2.46894,0.21024 4.32499,-2.19629 4.08154,-4.53101 0.58656,-2.78995 -2.41795,-5.45203 -5.10259,-4.35907 -2.50589,0.81024 -2.84649,3.76723 -2.5056,5.99472 0.38208,1.60071 1.88016,2.83603 3.52665,2.89536 z"/>
    </g>
  </g>
</svg>
