<?xml version='1.0' encoding='ASCII' standalone='yes'?>
<svg xmlns="http://www.w3.org/2000/svg" xmlns:xlink="http://www.w3.org/1999/xlink" version="1.1" width="72.0mm" viewBox="0 0 72.0 72.0" height="72.0mm">
  <g transform="translate(10.1928615, 8.412199000000001) scale(1 1) ">
    <defs id="defs1"/>
    <g id="layer1" transform="translate(-678.8361,-118.48607)">
      <path id="path77-3-1" style="color:#000000;fill:#000000;stroke:none;stroke-width:1;stroke-linecap:round;stroke-linejoin:round;-inkscape-stroke:none" d="m 703.30617,118.48945 c -6.23577,0.048 -12.4727,0.51072 -18.6333,1.48829 -3.84299,0.90912 -3.40752,5.36755 -4.19195,8.39866 -2.17689,13.03603 -1.95157,26.3496 -0.71904,39.46944 0.67008,4.22995 5.43437,3.54115 8.57991,4.15056 11.57165,1.37693 23.2392,1.69094 34.88294,1.66368 4.54215,-0.40032 3.98554,-5.57779 4.82851,-8.85437 2.31188,-13.6561 3.08439,-27.6145 1.72983,-41.41478 -0.80256,-4.37578 -5.78361,-3.4585 -9.0576,-4.06004 -5.78784,-0.56256 -11.60256,-0.88416 -17.41891,-0.84096 z m 2.2225,8.09626 c 5.47958,0.0384 10.95321,0.40608 16.40084,0.98726 0.912,12.76551 0.0288,25.62893 -2.27213,38.20916 -10.7281,-0.0384 -21.46848,-0.52608 -32.1171,-1.87527 -0.95424,-12.10819 -0.912,-24.38765 1.36926,-36.35376 5.50818,-0.71136 11.06649,-1.00867 16.61913,-0.96739 z m -12.39244,14.33712 c -5.97179,-0.22848 -4.32059,9.21917 0.97237,8.41181 4.41774,-0.61824 3.88176,-6.3601 0.6096,-7.99008 l -1.58092,-0.42144 z m 10.52217,0.93216 c -5.72121,0.20064 -3.82329,9.21398 1.29168,8.4048 4.47052,-0.64128 3.847,-6.51811 0.46176,-8.05066 l -1.75277,-0.35424 z m 11.172,1.16582 c -5.964,-0.2304 -4.32989,9.20784 0.96115,8.40538 4.4135,-0.61056 3.89396,-6.3552 0.6192,-7.98355 l -1.58092,-0.42144 z"/>
    </g>
  </g>
</svg>
