<?xml version='1.0' encoding='ASCII' standalone='yes'?>
<svg xmlns="http://www.w3.org/2000/svg" xmlns:xlink="http://www.w3.org/1999/xlink" version="1.1" width="72.0mm" viewBox="0 0 72.0 72.0" height="72.0mm">
  <g transform="translate(9.8927175, 6.696285) scale(1 1) ">
    <defs id="defs1"/>
    <g id="layer1" transform="translate(-128.68062,-968.18529)">
      <path id="path257" style="color:#000000;fill:#000000;stroke:none;stroke-width:1;stroke-linecap:round;stroke-linejoin:round;-inkscape-stroke:none" d="m 155.26647,968.18893 c -7.74864,-0.13824 -15.46704,3.6724 -19.76007,10.18048 -4.77869,7.03816 -6.64483,15.69256 -6.8256,24.09469 -0.0288,3.3775 3.43431,3.9641 6.01325,3.9053 5.16576,0.2525 10.33162,0.5051 15.49738,0.7575 -0.85152,5.1462 -1.70333,10.2922 -2.55495,15.4384 -0.6528,6.1874 8.18074,5.1002 7.80653,-0.1421 0.82272,-4.9715 1.64506,-9.9431 2.46758,-14.9146 6.24912,0.3062 12.49824,0.6115 18.74736,0.9177 5.35412,-0.4579 4.04631,-6.5997 4.20068,-10.32209 -0.34272,-8.93528 -2.71662,-18.61032 -9.80746,-24.62744 -4.36195,-3.67896 -10.13731,-5.34336 -15.7847,-5.28816 z m 0.0192,7.6696 c 5.04297,-0.17376 10.31433,1.83184 13.22726,6.10136 3.7201,5.35568 4.94621,12.18008 4.24963,18.59351 -11.91283,-0.58847 -23.82576,-1.17735 -35.73859,-1.76607 0.0384,-6.80512 2.28086,-13.89808 7.16083,-18.78696 2.93683,-2.89184 7.03392,-4.21272 11.10087,-4.14184 z"/>
    </g>
  </g>
</svg>
