<?xml version='1.0' encoding='ASCII' standalone='yes'?>
<svg xmlns="http://www.w3.org/2000/svg" xmlns:xlink="http://www.w3.org/1999/xlink" version="1.1" width="72.0mm" viewBox="0 0 72.0 72.0" height="72.0mm">
  <g transform="translate(9.8957595, 4.0072420000000015) scale(1 1) ">
    <defs id="defs1"/>
    <g id="layer1" transform="translate(-768.40248,-109.67556)">
      <path id="path42-8-5" style="color:#000000;fill:#000000;stroke:none;stroke-width:1;stroke-linecap:round;stroke-linejoin:round;-inkscape-stroke:none" d="m 798.06999,109.70363 c -3.63419,-0.3888 -4.36715,3.34464 -4.46621,6.06058 -0.49728,4.86067 -0.99456,9.72124 -1.49185,14.58192 -0.34176,6.22531 8.48727,4.72953 7.78291,-0.528 0.51552,-5.55188 1.21584,-11.09386 1.61195,-16.65207 -0.13632,-1.78358 -1.65419,-3.31305 -3.4368,-3.46281 z m -26.36247,3.83981 c -4.4472,0.52512 -3.76368,5.37177 -1.6895,7.92451 2.28297,3.82262 4.56594,7.64534 6.84893,11.46797 3.1702,5.06784 9.72691,-1.01223 6.07036,-4.79155 -2.5294,-4.24676 -5.05891,-8.4936 -7.58841,-12.74036 l -1.55251,-1.45516 -2.08887,-0.40512 z m 45.46704,0.8928 c -3.44804,-0.16032 -4.40112,3.32544 -6.0263,5.58489 -1.8459,2.9736 -3.69178,5.9473 -5.53767,8.9209 -3.03484,4.88678 5.10633,8.24707 6.95981,3.3455 2.57031,-4.2119 5.27271,-8.3496 7.75815,-12.60912 0.96604,-2.25187 -0.65952,-5.05075 -3.15399,-5.24217 z m -23.35113,23.54457 c -4.50845,0.0192 -9.01728,0.2976 -13.48877,0.8784 -4.25184,1.28823 -3.80122,6.372 -4.63891,9.91959 -0.90144,6.67171 -0.66816,13.44662 0.0998,20.11891 1.32432,4.81354 7.16121,3.34675 10.97193,4.10909 7.12348,0.54336 14.27127,0.66336 21.41299,0.65376 4.68663,-0.55104 4.12148,-6.01891 5.09069,-9.46301 1.24954,-7.24694 1.58055,-14.67427 0.70368,-21.98438 -1.54176,-4.97031 -7.69104,-3.24087 -11.71229,-4.00839 -2.81002,-0.15648 -5.62464,-0.23808 -8.43907,-0.22368 z m 1.48828,8.01687 c 3.59981,0.0192 7.19751,0.19968 10.78503,0.49152 0.41856,6.46992 -0.10464,12.9887 -1.42378,19.33277 -7.04112,-0.0384 -14.08406,-0.33504 -21.09389,-1.01204 -0.50112,-6.11116 -0.43392,-12.31929 0.82368,-18.3406 3.62468,-0.34848 7.26903,-0.49056 10.90896,-0.47136 z"/>
    </g>
  </g>
</svg>
