<?xml version='1.0' encoding='ASCII' standalone='yes'?>
<svg xmlns="http://www.w3.org/2000/svg" xmlns:xlink="http://www.w3.org/1999/xlink" version="1.1" width="72.0mm" viewBox="0 0 72.0 72.0" height="72.0mm">
  <g transform="translate(3.8952905000000015, 6.950388) scale(1 1) ">
    <defs id="defs1"/>
    <g id="layer1" transform="translate(-856.5085,-113.42929)">
      <path id="path115-6" style="color:#000000;fill:#000000;stroke:none;stroke-width:1;stroke-linecap:round;stroke-linejoin:round;-inkscape-stroke:none" d="m 884.07283,113.42929 c -7.61904,0.0288 -15.21475,0.88032 -22.72108,2.1432 -5.90592,1.13453 -2.42295,9.69053 2.62108,7.35322 11.39463,-1.69738 23.19188,-2.89546 34.55393,-0.3552 5.79328,1.33843 12.11736,4.4809 13.82832,10.6632 1.54896,4.31395 0.7152,9.52915 -2.87384,12.6072 -2.81984,3.41414 -7.7088,2.82749 -10.94984,5.17987 -1.3008,2.03539 -1.04864,4.57546 -1.53464,6.87063 -0.44256,3.16473 -0.88515,6.32956 -1.32752,9.4943 -0.42912,6.3384 8.3836,4.78022 7.82688,-0.47904 0.47328,-3.37574 0.94656,-6.75139 1.42032,-10.12714 8.24352,-1.84204 15.26976,-9.07881 15.72632,-17.70201 0.72192,-8.22499 -3.81616,-16.49962 -11.07072,-20.41123 -7.69104,-4.34948 -16.84164,-5.17364 -25.49921,-5.23632 z m -0.19392,16.5001 c -5.64816,0.25248 -3.97219,8.13946 0.70272,8.12419 6.23568,-0.44064 4.26153,-8.14656 -0.70272,-8.12419 z m 13.69721,0.005 c -7.11651,0.096 -2.80659,11.86867 2.89256,8.08147 3.56208,-2.37293 0.60768,-7.85126 -2.89256,-8.08147 z m -36.11072,18.90115 c -3.72805,-0.2448 -4.23676,3.61392 -4.24098,6.36663 -0.23712,3.7896 -0.47329,7.5791 -0.71041,11.3687 -0.25632,5.87702 8.51338,4.61117 7.73443,-0.552 0.24192,-4.62278 0.672,-9.24317 0.79104,-13.86758 -0.2112,-1.77437 -1.78848,-3.23799 -3.57379,-3.31527 z m 12.37259,1.10631 c -3.40445,0.13056 -3.70695,3.65913 -4.00877,6.21888 -0.44449,3.15091 -0.88897,6.30182 -1.33411,9.45273 -0.75168,5.89162 8.17093,5.36458 7.74172,0.0384 0.52608,-4.03459 1.24377,-8.05161 1.64486,-12.09753 -0.0672,-2.05767 -2.0016,-3.77271 -4.0437,-3.61527 z m 12.11461,1.76112 c -3.38524,0.27648 -3.54373,3.80275 -3.74284,6.36691 -0.28416,2.82048 -0.56736,5.64086 -0.85056,8.46134 -0.18432,6.3529 8.54352,4.44576 7.78867,-0.78432 0.31296,-3.53472 0.8208,-7.05965 1.00665,-10.6008 -0.15648,-2.05536 -2.15644,-3.69168 -4.20153,-3.44342 z"/>
    </g>
  </g>
</svg>
