<?xml version='1.0' encoding='ASCII' standalone='yes'?>
<svg xmlns="http://www.w3.org/2000/svg" xmlns:xlink="http://www.w3.org/1999/xlink" version="1.1" width="72.0mm" viewBox="0 0 72.0 72.0" height="72.0mm">
  <g transform="translate(2.6927755000000033, 2.151085000000002) scale(1 1) ">
    <defs id="defs1"/>
    <g id="layer1" transform="translate(793.03433,-393.80221)">
      <path id="path197" style="color:#000000;fill:#000000;stroke:none;stroke-width:1;stroke-linecap:round;stroke-linejoin:round;-inkscape-stroke:none" d="m -759.67428,393.82648 c -3.72224,0.42048 -3.49952,4.37251 -3.90528,7.12886 -0.3372,2.69856 -0.67416,5.39731 -1.0112,8.09597 -7.22776,1.17734 -13.29184,7.17062 -14.62984,14.35699 -3.38008,0 -6.76008,0 -10.14008,0 -6.11368,0.2592 -3.84736,8.95834 1.33352,7.68979 2.95544,0 5.9108,0 8.86624,0 1.42184,6.96546 7.20512,12.75302 14.15856,14.20809 0,4.164 0,8.32781 0,12.49172 0.15912,5.99088 8.8956,4.05445 7.68936,-1.14288 0,-3.75648 0,-7.51296 0,-11.26935 7.0608,-1.31961 12.9048,-7.24147 14.22304,-14.28749 4.31432,0 8.62872,0 12.94304,0 6.08576,-0.20544 4.008,-8.98368 -1.14304,-7.68951 -3.94992,0 -7.89984,0 -11.84976,0 -1.39936,-6.81188 -6.9684,-12.50188 -13.73184,-14.08905 0.44984,-3.98189 1.08496,-7.94967 1.4144,-11.94059 -0.0998,-2.10316 -2.13064,-3.80226 -4.21712,-3.55237 z m -1.99432,22.58717 c 6.5796,-0.4368 12.32464,6.10329 11.20504,12.54249 -0.71712,6.49853 -8.18272,10.95591 -14.24104,8.50935 -6.2476,-2.08215 -9.3028,-10.27709 -5.73864,-15.86708 1.81544,-3.05712 5.21952,-5.07772 8.77464,-5.18476 z"/>
    </g>
  </g>
</svg>
