<?xml version='1.0' encoding='ASCII' standalone='yes'?>
<svg xmlns="http://www.w3.org/2000/svg" xmlns:xlink="http://www.w3.org/1999/xlink" version="1.1" width="72.0mm" viewBox="0 0 72.0 72.0" height="72.0mm">
  <g transform="translate(5.878813000000001, 19.70977) scale(1 1) ">
    <defs id="defs1"/>
    <g id="layer1" transform="translate(699.9519,-414.01401)">
      <path id="path202" style="color:#000000;fill:#000000;stroke:none;stroke-width:1;stroke-linecap:round;stroke-linejoin:round;-inkscape-stroke:none" d="m -696.06021,414.03237 c -5.22683,-0.46752 -5.15723,8.1526 0.0192,7.69008 4.13401,0.20448 8.26806,0.40992 12.40209,0.6144 -0.15216,6.81302 -0.30422,13.62595 -0.45638,20.43897 -0.33438,5.17536 8.15469,5.04183 7.69049,-0.10656 0.1452,-6.65021 0.29029,-13.30051 0.43555,-19.95072 4.70297,0.23328 9.40593,0.46656 14.1089,0.69984 0.55564,6.51533 1.11124,13.03075 1.66687,19.54608 0.53175,5.85946 9.10604,3.4968 7.58444,-1.47686 -0.50411,-5.89402 -1.00817,-11.78813 -1.51224,-17.68224 3.50241,0.17376 7.00482,0.34752 10.50726,0.52128 5.84422,0.23136 4.65759,-8.53248 -0.45197,-7.71063 -17.33169,-0.86112 -34.66341,-1.72243 -51.9951,-2.58364 z"/>
    </g>
  </g>
</svg>
