<?xml version='1.0' encoding='ASCII' standalone='yes'?>
<svg xmlns="http://www.w3.org/2000/svg" xmlns:xlink="http://www.w3.org/1999/xlink" version="1.1" width="72.0mm" viewBox="0 0 72.0 72.0" height="72.0mm">
  <g transform="translate(5.5497625, 11.71941) scale(1 1) ">
    <defs id="defs1"/>
    <g id="layer1" transform="translate(608.29153,-404.82491)">
      <path id="path205" style="color:#000000;fill:#000000;stroke:none;stroke-width:1;stroke-linecap:round;stroke-linejoin:round;-inkscape-stroke:none" d="m -593.98397,404.82491 c -3.38616,0.0672 -4.07352,3.51014 -5.45467,5.84112 -2.80041,5.47286 -5.60081,10.94573 -8.40122,16.41859 -2.51571,5.7 6.24198,7.36032 7.47797,2.24122 1.97548,-3.86583 3.951,-7.73175 5.92648,-11.59757 1.63215,3.83645 3.26429,7.6729 4.89644,11.50934 2.18389,5.25562 9.61861,0.68832 6.82612,-3.56889 -2.61931,-6.1657 -5.23867,-12.33149 -7.85799,-18.49728 l -1.36309,-1.6728 z m 32.25105,0 c -3.37936,0.2928 -3.82399,3.78538 -5.03833,6.20947 -2.15867,5.0689 -4.31735,10.13789 -6.476,15.20688 -2.08863,5.84688 6.74189,6.88666 7.61676,1.70832 1.44801,-3.40713 2.89604,-6.81417 4.34408,-10.22131 2.19436,4.28131 4.38876,8.56253 6.58315,12.84384 2.6502,5.18851 9.72792,-0.14304 6.47261,-4.17994 -3.31344,-6.48796 -6.62687,-12.97584 -9.94031,-19.4638 l -1.47357,-1.57229 z m -18.3753,39.89587 c -5.23087,0.22464 -4.29967,6.99706 -0.16128,8.03703 4.90862,2.95372 8.20197,-5.3786 3.23198,-6.96615 -0.98414,-0.4656 -1.90443,-1.11158 -3.0708,-1.07088 z"/>
    </g>
  </g>
</svg>
