<?xml version='1.0' encoding='ASCII' standalone='yes'?>
<svg xmlns="http://www.w3.org/2000/svg" xmlns:xlink="http://www.w3.org/1999/xlink" version="1.1" width="72.0mm" viewBox="0 0 72.0 72.0" height="72.0mm">
  <g transform="translate(6.063236, 11.738489000000001) scale(1 1) ">
    <defs id="defs1"/>
    <g id="layer1" transform="translate(519.74118,-404.77752)">
      <path id="path208" style="color:#000000;fill:#000000;stroke:none;stroke-width:1;stroke-linecap:round;stroke-linejoin:round;-inkscape-stroke:none" d="m -485.9546,404.78027 c -9.493,-0.1536 -18.37668,6.14026 -22.05604,14.77517 -2.35745,5.29891 -2.93798,11.33549 -1.79117,17.00957 -2.04849,-1.11706 -3.84705,-2.7937 -6.20563,-3.21668 -5.47796,0.21216 -4.32957,6.77895 -0.40329,8.1576 4.57804,2.77162 9.08757,5.67159 13.70812,8.36372 2.50196,1.26979 5.19828,-0.768 5.57484,-3.28618 1.4292,-4.56067 3.00056,-9.08218 4.33808,-13.6681 0.75513,-5.2752 -7.41264,-5.55734 -7.82276,-0.5328 -0.43545,1.34602 -0.87091,2.69213 -1.30639,4.03824 -2.22885,-7.98873 0.70138,-17.58489 8.07496,-21.87504 6.0468,-3.78979 14.34174,-2.53766 19.4286,2.31216 8.00478,6.96596 9.25184,20.43658 2.18024,28.48042 -3.65372,2.15309 -2.97581,8.79418 2.15343,7.87555 3.03472,-1.32777 4.89913,-4.29811 6.61317,-7.00051 6.13659,-10.48723 4.2288,-24.78115 -4.19393,-33.4753 -4.69696,-4.987 -11.451,-7.9582 -18.29223,-7.95782 z"/>
    </g>
  </g>
</svg>
