<?xml version="1.0" encoding="UTF-8" standalone="no"?>
<svg
   version="1.1"
   width="72.0mm"
   viewBox="0 0 72.0 72.0"
   height="72.0mm"
   id="svg1"
   sodipodi:docname="tan_lawa.svg"
   inkscape:version="1.3.2 (091e20e, 2023-11-25, custom)"
   xmlns:inkscape="http://www.inkscape.org/namespaces/inkscape"
   xmlns:sodipodi="http://sodipodi.sourceforge.net/DTD/sodipodi-0.dtd"
   xmlns="http://www.w3.org/2000/svg"
   xmlns:svg="http://www.w3.org/2000/svg">
  <defs
     id="defs2" />
  <sodipodi:namedview
     id="namedview1"
     pagecolor="#ffffff"
     bordercolor="#000000"
     borderopacity="0.25"
     inkscape:showpageshadow="2"
     inkscape:pageopacity="0.0"
     inkscape:pagecheckerboard="0"
     inkscape:deskcolor="#d1d1d1"
     inkscape:document-units="mm"
     inkscape:zoom="0.7468967"
     inkscape:cx="175.39239"
     inkscape:cy="189.45056"
     inkscape:window-width="1920"
     inkscape:window-height="1009"
     inkscape:window-x="-8"
     inkscape:window-y="-8"
     inkscape:window-maximized="1"
     inkscape:current-layer="svg1" />
  <path
     id="path2"
     style="color:#000000;fill:#000000;stroke-linecap:round;stroke-linejoin:round;-inkscape-stroke:none"
     d="M 35.513595,0.48420817 C 24.880882,0.43377328 14.240272,4.8287183 7.3613078,13.558346 1.1529174,21.436992 -1.6197444,32.716972 1.2112956,46.506205 l -4.6622477,-3.496427 c -1.7010497,-1.276496 -4.1148856,-0.93196 -5.3908855,0.769462 -1.2760444,1.70159 -0.9305694,4.115519 0.7715292,5.390885 L 5.9572591,59.68938 c 0.2041212,0.141757 0.4214872,0.26342 0.649056,0.363285 0.060707,0.03614 0.1223978,0.07061 0.1850016,0.103353 0.4091831,0.164323 0.8435518,0.25714 1.2841594,0.274402 0.1116807,0.0023 0.2234075,-3.11e-4 0.3348633,-0.0078 0.3737403,-0.01369 0.7434927,-0.08175 1.0976074,-0.202054 0.060025,-0.0096 0.1198143,-0.02063 0.1793172,-0.03307 0.036626,-0.01734 0.072977,-0.03526 0.1090373,-0.05374 0.048373,-0.0226 0.09627,-0.04621 0.1436605,-0.0708 0.2776692,-0.130359 0.5387642,-0.293434 0.7777302,-0.485758 0.0054,-0.0046 0.01069,-0.0093 0.01602,-0.01395 0.230381,-0.197395 0.436623,-0.421329 0.614433,-0.667142 0.0243,-0.02568 0.04825,-0.05169 0.07183,-0.07803 L 21.941296,43.789058 c 1.218837,-1.742112 0.794764,-4.142421 -0.947229,-5.361429 -0.836288,-0.586003 -1.871126,-0.81576 -2.876827,-0.638721 -1.00546,0.177614 -1.89919,0.747349 -2.484602,1.583883 L 9.4836589,48.156234 C 5.7541737,34.59304 8.2635854,24.855472 13.410034,18.324463 19.407381,10.713637 29.514787,7.2163681 39.101489,8.4180908 c 9.586704,1.2017226 18.382779,6.8280452 22.345923,17.7301842 3.963143,10.90214 3.047373,27.684785 -8.824267,50.999988 -1.304485,2.561745 0.556559,5.597714 3.431315,5.597591 l 25.363257,0 v -7.700822 l -19.312464,0 C 72.067757,53.254302 73.2468,36.064393 68.68573,23.517428 63.736983,9.9040105 52.121517,2.2890859 40.060604,0.77721354 38.552989,0.5882295 37.032553,0.49141315 35.513595,0.48420817 Z"
     sodipodi:nodetypes="ssccccccccccccccccccccccssscccccsss" />
</svg>
