<?xml version='1.0' encoding='ASCII' standalone='yes'?>
<svg xmlns="http://www.w3.org/2000/svg" xmlns:xlink="http://www.w3.org/1999/xlink" version="1.1" width="72.0mm" viewBox="0 0 72.0 72.0" height="72.0mm">
  <g transform="translate(18.477978, 7.2741240000000005) scale(1 1) ">
    <defs id="defs1"/>
    <g id="layer1" transform="translate(414.56368,-400.93238)">
      <path id="path210" style="color:#000000;fill:#000000;stroke:none;stroke-width:1;stroke-linecap:round;stroke-linejoin:round;-inkscape-stroke:none" d="m -382.99034,400.96523 c -3.3627,-0.4032 -4.37158,2.98829 -4.40467,5.59757 -0.53435,5.66486 -1.06868,11.32973 -1.60301,16.99459 -7.20991,-0.46752 -14.4198,-0.936 -21.6297,-1.4039 -5.20972,-0.52608 -5.25822,8.07945 -0.0826,7.69545 6.9975,0.44928 13.995,0.89856 20.99252,1.34832 -0.72596,7.70928 -1.4519,15.41856 -2.17785,23.12784 -0.69293,5.18967 7.90537,5.51367 7.68773,0.3312 1.555,-16.50288 3.11,-33.00585 4.665,-49.50883 0.23942,-2.04048 -1.39917,-4.02797 -3.44786,-4.18214 z"/>
    </g>
  </g>
</svg>
