<?xml version='1.0' encoding='ASCII' standalone='yes'?>
<svg xmlns="http://www.w3.org/2000/svg" xmlns:xlink="http://www.w3.org/1999/xlink" version="1.1" width="72.0mm" viewBox="0 0 72.0 72.0" height="72.0mm">
  <g transform="translate(5.8577215, 11.099454999999999) scale(1 1) ">
    <defs id="defs1"/>
    <g id="layer1" transform="translate(332.91991,-404.96205)">
      <path style="color:#000000;fill:#000000;stroke:none;stroke-width:1;stroke-linecap:round;stroke-linejoin:round;-inkscape-stroke:none" d="m -295.01522,405.10859 c -8.57188,2.48026 -15.32998,8.8079 -21.29462,15.16368 -6.32158,6.93696 -11.66538,14.7361 -16.11162,22.99258 -2.0957,4.35225 2.88538,6.35318 6.24436,5.29747 6.05086,-0.89088 12.1297,-1.63066 18.16262,-2.61754 5.07756,-1.63891 1.74156,-9.12211 -2.95968,-7.28553 -3.2491,0.45984 -6.4982,0.92064 -9.7473,1.38057 5.24518,-8.02454 10.16581,-16.91779 18.70973,-21.89078 1.25696,-0.24 4.43513,-3.576 4.44333,-1.48915 0.41982,11.48083 0.83963,22.96166 1.25943,34.44249 0.0826,3.58752 3.81892,3.95069 6.48541,3.51379 4.80669,-0.40608 9.63093,-0.66528 14.42639,-1.16544 5.10288,-1.23667 2.4342,-8.90524 -2.33579,-7.45766 -3.67951,0.28416 -7.359,0.56928 -11.0385,0.85344 -0.46878,-12.72499 -0.93754,-25.45008 -1.40626,-38.17507 -0.0134,-2.38752 -2.55436,-4.25712 -4.8375,-3.56285 z" id="path212"/>
    </g>
  </g>
</svg>
