<?xml version="1.0" encoding="UTF-8" standalone="no"?>
<svg
   version="1.1"
   width="72.0mm"
   viewBox="0 0 72.0 72.0"
   height="72.0mm"
   id="svg1"
   sodipodi:docname="tawa_lawa.svg"
   inkscape:version="1.3.2 (091e20e, 2023-11-25, custom)"
   xmlns:inkscape="http://www.inkscape.org/namespaces/inkscape"
   xmlns:sodipodi="http://sodipodi.sourceforge.net/DTD/sodipodi-0.dtd"
   xmlns="http://www.w3.org/2000/svg"
   xmlns:svg="http://www.w3.org/2000/svg">
  <defs
     id="defs2" />
  <sodipodi:namedview
     id="namedview1"
     pagecolor="#ffffff"
     bordercolor="#000000"
     borderopacity="0.25"
     inkscape:showpageshadow="2"
     inkscape:pageopacity="0.0"
     inkscape:pagecheckerboard="0"
     inkscape:deskcolor="#d1d1d1"
     inkscape:document-units="mm"
     inkscape:zoom="1.4937934"
     inkscape:cx="99.746056"
     inkscape:cy="294.88683"
     inkscape:window-width="1920"
     inkscape:window-height="1009"
     inkscape:window-x="-8"
     inkscape:window-y="-8"
     inkscape:window-maximized="1"
     inkscape:current-layer="svg1" />
  <path
     style="color:#000000;fill:#000000;stroke-linecap:round;stroke-linejoin:round;-inkscape-stroke:none"
     d="M 56.527344,2.6660156 C 55.496683,2.6213646 54.491211,2.9921718 53.736328,3.6953125 38.530266,17.849305 19.47011,36.449564 4.625,57.388672 c -1.7251703,2.43304 -0.1482725,5.819117 2.8242187,6.064453 l 24.2968753,2.003906 c 2.119774,0.175263 3.980033,-1.401628 4.154297,-3.521484 0.174123,-2.119043 -1.402456,-3.978059 -3.521485,-4.152344 L 15.154297,56.363281 C 26.576342,41.333098 39.844226,27.57928 51.980469,15.996094 50.67816,38.042857 49.539043,58.384987 49.753906,78.935547 c 0.0229,2.109867 1.739618,3.808291 3.84961,3.808594 l 16.676854,0 v -7.699219 l -12.801854,0 C 57.418696,53.103939 58.739344,31.453547 60.203125,6.7402344 60.330144,4.5941314 58.675158,2.7597526 56.527344,2.6660156 Z"
     id="path2"
     sodipodi:nodetypes="cccccccccccccccc" />
</svg>
