<?xml version='1.0' encoding='ASCII' standalone='yes'?>
<svg xmlns="http://www.w3.org/2000/svg" xmlns:xlink="http://www.w3.org/1999/xlink" version="1.1" width="72.0mm" viewBox="0 0 72.0 72.0" height="72.0mm">
  <g transform="translate(8.216301000000001, 13.5250475) scale(1 1) ">
    <defs id="defs1"/>
    <g id="layer1" transform="translate(237.11907,-406.39015)">
      <path id="path57-2" style="color:#000000;fill:#000000;stroke:none;stroke-width:1;stroke-linecap:round;stroke-linejoin:round;-inkscape-stroke:none" d="m -218.12846,406.39249 c -7.58556,0.36768 -14.03647,5.93837 -17.1677,12.6194 -1.50598,2.97456 -3.62032,7.87872 0.9554,9.40185 5.26627,0.65952 4.8235,-5.79773 7.56471,-8.67456 2.23152,-3.19747 5.90029,-5.92368 9.95193,-5.66563 2.67592,1.27334 3.83484,4.28755 5.44921,6.59664 2.37107,4.09104 6.21151,7.81786 11.14043,8.2345 7.19394,0.68448 14.02416,-4.17092 16.88312,-10.61703 0.93784,-2.3856 2.56518,-5.08195 1.38808,-7.64649 -2.11544,-3.87716 -7.4432,-1.2938 -7.58823,2.58576 -1.30014,3.804 -4.22333,7.71552 -8.54626,7.992 -2.56971,0.61344 -4.62349,-1.35168 -5.88415,-3.34973 -2.75548,-4.05341 -5.03557,-9.17079 -10.05458,-10.82775 -1.31123,-0.456 -2.70427,-0.6768 -4.09192,-0.64896 z m 0.32246,22.89975 c -7.35769,0.34272 -13.60329,5.76662 -16.62112,12.24825 -1.50376,2.92407 -3.48072,7.80106 1.02392,9.26237 5.2271,0.7152 4.76788,-5.60745 7.43014,-8.41785 2.10758,-3.03725 5.55626,-5.62455 9.3971,-5.4193 2.63775,1.35034 3.78288,4.36714 5.40247,6.69005 2.32667,4.06013 6.36019,7.53053 11.22749,7.66896 6.906,0.32256 13.2352,-4.48349 15.87619,-10.69363 1.02109,-2.53258 2.81553,-5.93127 0.33205,-8.20234 -3.01433,-2.63136 -6.48724,0.63552 -6.84878,3.89376 -1.28646,3.5999 -4.19115,7.21334 -8.30616,7.31741 -3.09881,0.4992 -4.78918,-2.65229 -6.23999,-4.82035 -2.26996,-3.82455 -4.94588,-8.14474 -9.61915,-9.17818 -0.99652,-0.25152 -2.0266,-0.36864 -3.05415,-0.34944 z"/>
    </g>
  </g>
</svg>
