<?xml version='1.0' encoding='ASCII' standalone='yes'?>
<svg xmlns="http://www.w3.org/2000/svg" xmlns:xlink="http://www.w3.org/1999/xlink" version="1.1" width="72.0mm" viewBox="0 0 72.0 72.0" height="72.0mm">
  <g transform="translate(6.810665, 3.842266000000002) scale(1 1) ">
    <defs id="defs1"/>
    <g id="layer1" transform="translate(149.17869,-396.80719)">
      <path id="path22-0-8" style="color:#000000;fill:#000000;stroke:none;stroke-width:0.998368;stroke-linecap:round;stroke-linejoin:round;-inkscape-stroke:none" d="m -119.05851,396.81304 c -13.19782,0.15264 -25.16574,10.50173 -28.7927,24.02515 -3.25321,11.17498 -0.49067,24.59654 7.88717,32.61965 7.55819,7.58832 18.99546,9.57811 28.39276,5.80915 12.62326,-4.69622 21.459164,-18.78662 20.729148,-33.33398 -0.301152,-10.76544 -6.289928,-21.34628 -15.427788,-26.06237 -3.96952,-2.12717 -8.40376,-3.15091 -12.78859,-3.0576 z m 0.1587,7.95235 c 8.43122,-0.39936 16.79793,5.74483 19.482878,14.49773 4.138456,12.28483 -2.210428,26.58816 -12.909478,31.7112 -7.70516,4.00982 -17.90624,2.48045 -23.8838,-4.61895 -6.93796,-7.84281 -7.20838,-20.56483 -1.99018,-29.26675 4.05864,-7.17014 11.36335,-12.17789 19.30058,-12.32323 z m 1.66688,4.24656 c -3.23695,0.0979 -3.62257,3.65155 -4.07987,6.28234 -0.81292,4.31712 -1.62585,8.63414 -2.4388,12.95116 -0.62937,3.97306 3.30777,4.7113 5.98184,4.85108 3.95787,0.41952 7.90886,1.01548 11.87147,1.31692 5.08213,-0.13152 3.97889,-8.34873 -0.85373,-7.76409 -2.8984,-0.34272 -5.79674,-0.68544 -8.69514,-1.02797 0.76235,-4.02499 1.52468,-8.04998 2.28699,-12.07498 0.54517,-2.55638 -1.83312,-4.80374 -4.07293,-4.53427 z"/>
    </g>
  </g>
</svg>
