<?xml version='1.0' encoding='ASCII' standalone='yes'?>
<svg xmlns="http://www.w3.org/2000/svg" xmlns:xlink="http://www.w3.org/1999/xlink" version="1.1" width="72.0mm" viewBox="0 0 72.0 72.0" height="72.0mm">
  <g transform="translate(8.020502, 2.425170999999999) scale(1 1) ">
    <defs id="defs1"/>
    <g id="layer1" transform="translate(54.109082,-393.97202)">
      <path id="path22-0-0" style="color:#000000;fill:#000000;stroke:none;stroke-width:0.999968;stroke-linecap:round;stroke-linejoin:round;-inkscape-stroke:none" d="m -25.167852,393.98526 c -3.392448,0.17088 -3.649952,3.72586 -3.927056,6.31085 -0.420864,3.24739 -0.841728,6.49488 -1.262544,9.74237 -0.59136,6.00681 8.3044,5.19369 7.746232,-0.0672 0.505248,-3.88915 1.010584,-7.7784 1.51584,-11.66765 0.375552,-2.34922 -1.786424,-4.53926 -4.0728,-4.31587 z m -25.251184,3.83472 c -4.929624,0.13728 -4.237024,5.51155 -1.87456,8.13399 1.975968,2.98473 3.812392,6.07113 5.882528,8.98713 3.933072,3.93821 8.797552,-2.62435 5.128664,-6.0648 -1.990488,-3.10003 -3.981056,-6.20006 -5.971552,-9.30009 -0.6768,-1.07818 -1.922416,-1.73415 -3.16508,-1.75623 z m 48.785888,0.99226 c -3.1604,-0.0576 -4.444496,3.08361 -6.326544,5.06515 -1.747904,2.14109 -3.495056,4.28275 -5.242224,6.42451 -3.695456,4.90791 4.368064,8.72343 6.626784,4.02317 2.515864,-3.08381 5.030976,-6.1681 7.546848,-9.25181 1.999568,-2.23257 0.35232,-6.11645 -2.604496,-6.26073 z m -26.511224,17.84947 c -11.022216,0.048 -20.924872,9.27725 -22.158928,20.30141 -1.321296,8.89449 3.417072,18.47155 11.636888,22.19731 9.52564,4.65485 21.718112,0.65664 27.435928,-8.11757 5.917648,-8.35133 5.440552,-20.99721 -1.97132,-28.32595 -3.890416,-3.98861 -9.42384,-6.19536 -14.942568,-6.0552 z m 0.724224,7.6993 c 6.673584,-0.002 12.52188,5.96313 12.648384,12.68659 0.614208,9.00729 -7.778208,17.57174 -16.791144,16.2719 -6.941056,-0.69216 -12.131544,-7.76937 -11.277024,-14.66957 0.632448,-7.78972 7.566544,-14.57673 15.419784,-14.28892 z"/>
    </g>
  </g>
</svg>
