<?xml version='1.0' encoding='ASCII' standalone='yes'?>
<svg xmlns="http://www.w3.org/2000/svg" xmlns:xlink="http://www.w3.org/1999/xlink" version="1.1" width="72.0mm" viewBox="0 0 72.0 72.0" height="72.0mm">
  <g transform="translate(12.6644325, 11.0608885) scale(1 1) ">
    <defs id="defs1"/>
    <g id="layer1" transform="translate(-39.040734,-403.83361)">
      <path style="color:#000000;fill:#000000;stroke:none;stroke-width:1;stroke-linecap:round;stroke-linejoin:round;-inkscape-stroke:none" d="m 62.866078,403.83361 c -2.70601,0.14208 -3.999283,2.68263 -5.761901,4.34957 -5.691878,6.16263 -11.383766,12.32525 -17.075645,18.48787 -1.649836,2.06256 -0.73296,4.68845 -0.740256,7.0777 0.346752,5.38454 0.693504,10.76909 1.040256,16.15363 0.121824,3.25642 3.469056,3.77693 5.992733,3.61306 10.814938,0.0672 21.629837,0.12864 32.444813,0.19296 3.09888,0.12096 3.936,-2.97965 4.158048,-5.40471 0.91488,-6.13161 1.949952,-12.25056 2.787744,-18.39024 -0.0384,-2.2656 -2.104608,-3.61603 -3.328896,-5.29353 -5.555616,-6.47885 -11.111328,-12.9577 -16.666944,-19.43655 l -1.280064,-0.98102 -1.569888,-0.36864 z m -0.16896,9.61872 c 5.031264,5.87501 10.062432,11.75002 15.093696,17.62503 -0.76224,4.97501 -1.52496,9.95001 -2.287488,14.92502 -9.243744,-0.0576 -18.487498,-0.11232 -27.731242,-0.16896 -0.3312,-5.05622 -0.662496,-10.11254 -0.993744,-15.16877 5.306256,-5.73744 10.612522,-11.47488 15.918778,-17.21232 z" id="path214"/>
    </g>
  </g>
</svg>
