<?xml version='1.0' encoding='ASCII' standalone='yes'?>
<svg xmlns="http://www.w3.org/2000/svg" xmlns:xlink="http://www.w3.org/1999/xlink" version="1.1" width="72.0mm" viewBox="0 0 72.0 72.0" height="72.0mm">
  <g transform="translate(3.8945580000000035, 1.0149230000000031) scale(1 1) ">
    <defs id="defs1"/>
    <g id="layer1" transform="translate(-215.10242,-962.62245)">
      <path id="path259" style="color:#000000;fill:#000000;stroke:none;stroke-width:1;stroke-linecap:round;stroke-linejoin:round;-inkscape-stroke:none" d="m 218.61763,962.62285 c -4.96023,0.34656 -4.01827,5.98568 -1.18071,8.33192 2.71028,3.26672 5.42045,6.53336 8.13063,9.80016 -6.48624,9.2256 -5.48985,22.93837 2.63616,30.86617 2.18688,2.4135 5.44473,3.971 8.07369,5.3489 -0.51552,3.8017 -1.03132,7.6033 -1.54693,11.4049 -0.62784,6.0729 8.3616,5.1863 7.76352,-0.1 0.45984,-3.3929 0.91968,-6.7859 1.37941,-10.179 11.11671,0.067 21.07805,-8.9426 22.92087,-19.76737 0.93984,-4.89008 0.35232,-10.06432 -1.69296,-14.60688 4.41264,-3.67896 8.95344,-7.21632 13.28381,-10.98616 3.41337,-4.20264 -3.4679,-8.56192 -6.43584,-4.56384 -3.7032,3.04016 -7.4063,6.08048 -11.10932,9.12072 -6.58962,-7.31608 -18.2328,-9.1336 -26.77564,-4.24624 -1.91021,1.35256 -3.55449,2.84008 -4.77917,0.17376 -2.5488,-3.07104 -5.09769,-6.142 -7.64659,-9.21296 l -1.35293,-1.036 -1.66809,-0.34848 z m 25.93076,15.354 c 7.67097,-0.2592 14.38416,6.3868 14.94085,13.90968 1.02596,8.51827 -5.21971,17.54047 -14.00188,18.44617 -7.57988,1.0754 -14.96217,-4.8358 -16.20288,-12.27265 -1.80864,-8.38056 3.63244,-17.83744 12.163,-19.70736 1.01607,-0.2352 2.05824,-0.36384 3.10091,-0.37536 z"/>
    </g>
  </g>
</svg>
