<?xml version='1.0' encoding='ASCII' standalone='yes'?>
<svg xmlns="http://www.w3.org/2000/svg" xmlns:xlink="http://www.w3.org/1999/xlink" version="1.1" width="72.0mm" viewBox="0 0 72.0 72.0" height="72.0mm">
  <g transform="translate(25.248604999999998, 13.3304045) scale(1 1) ">
    <defs id="defs1"/>
    <g id="layer1" transform="translate(-142.24396,-404.81367)">
      <path id="path215" style="color:#000000;fill:#000000;stroke:none;stroke-width:1;stroke-linecap:round;stroke-linejoin:round;-inkscape-stroke:none" d="m 160.0488,404.82491 c -2.95574,-0.216 -4.19337,2.72477 -4.05494,5.18122 -0.49248,12.06768 -0.98439,24.13526 -1.47658,36.20294 -0.40032,4.04294 5.83959,5.54755 7.33133,1.77254 0.59712,-1.96521 0.37728,-4.04505 0.54144,-6.07094 0.45024,-11.02915 0.89952,-22.05821 1.34966,-33.08726 0.13248,-2.06324 -1.62307,-3.96576 -3.69091,-3.9985 z m -13.2408,0.432 c -2.95805,-0.14208 -4.12003,2.82595 -3.92573,5.27654 -0.20928,11.9234 -0.41856,23.84679 -0.62784,35.77018 -0.30048,4.04227 5.95546,5.39894 7.35178,1.59091 0.54912,-1.97865 0.28224,-4.05206 0.39936,-6.08093 0.19104,-10.8792 0.38208,-21.7584 0.57312,-32.6376 0.0864,-2.07052 -1.69747,-3.92246 -3.7704,-3.9191 z"/>
    </g>
  </g>
</svg>
