<?xml version="1.0" encoding="UTF-8" standalone="no"?>
<svg
   version="1.1"
   width="72.0mm"
   viewBox="0 0 72.0 72.0"
   height="72.0mm"
   id="svg1"
   sodipodi:docname="u.svg"
   inkscape:version="1.3.2 (091e20e, 2023-11-25, custom)"
   xmlns:inkscape="http://www.inkscape.org/namespaces/inkscape"
   xmlns:sodipodi="http://sodipodi.sourceforge.net/DTD/sodipodi-0.dtd"
   xmlns="http://www.w3.org/2000/svg"
   xmlns:svg="http://www.w3.org/2000/svg">
  <defs
     id="defs2" />
  <sodipodi:namedview
     id="namedview1"
     pagecolor="#ffffff"
     bordercolor="#000000"
     borderopacity="0.25"
     inkscape:showpageshadow="2"
     inkscape:pageopacity="0.0"
     inkscape:pagecheckerboard="0"
     inkscape:deskcolor="#d1d1d1"
     inkscape:document-units="mm"
     inkscape:zoom="1.4937934"
     inkscape:cx="285.18"
     inkscape:cy="109.45289"
     inkscape:window-width="1920"
     inkscape:window-height="1009"
     inkscape:window-x="-8"
     inkscape:window-y="-8"
     inkscape:window-maximized="1"
     inkscape:current-layer="svg1" />
  <g
     transform="translate(20.3365,33.574222)"
     id="g1">
    <defs
       id="defs1" />
    <g
       id="layer1"
       transform="translate(-324.13587,-729.33644)">
      <path
         id="path28"
         style="color:#000000;fill:#000000;stroke:none;stroke-width:1;stroke-linecap:round;stroke-linejoin:round;-inkscape-stroke:none"
         d="m 327.907,729.36942 c -3.70281,0.5376 -3.47472,4.65178 -3.7054,7.46323 -0.27456,5.06074 0.21024,10.58343 3.40204,14.73956 4.18254,5.3903 12.60606,7.02998 18.33803,3.18124 1.00261,-0.32736 2.28163,-2.9423 2.36208,-0.19296 1.968,3.80554 7.92652,1.31079 7.07673,-2.58009 -0.55104,-5.50215 -1.11197,-11.00362 -1.65668,-16.50634 0.048,-3.16214 -4.19548,-4.89955 -6.40348,-2.70144 -1.76025,1.63795 -1.20816,4.21373 -1.71993,6.33811 -0.56064,3.07527 -1.21536,6.36778 -3.32372,8.79639 -1.04179,1.3176 -2.82796,1.56269 -4.38124,1.2215 -1.85991,-0.19968 -3.78221,-1.05216 -4.63143,-2.81808 -1.61184,-3.09542 -1.50221,-6.72998 -1.30493,-10.11888 0.36768,-2.35968 0.70464,-5.53747 -2.08551,-6.56659 -0.61824,-0.25536 -1.31232,-0.34368 -1.96656,-0.25536 z" />
    </g>
  </g>
</svg>
