<?xml version='1.0' encoding='ASCII' standalone='yes'?>
<svg xmlns="http://www.w3.org/2000/svg" xmlns:xlink="http://www.w3.org/1999/xlink" version="1.1" width="72.0mm" viewBox="0 0 72.0 72.0" height="72.0mm">
  <g transform="translate(6.928493499999998, 6.532913000000001) scale(1 1) ">
    <defs id="defs1"/>
    <g id="layer1" transform="translate(-216.70359,-398.86533)">
      <path id="path22-0-6-8" style="color:#000000;fill:#000000;stroke:none;stroke-width:0.997648;stroke-linecap:round;stroke-linejoin:round;-inkscape-stroke:none" d="m 254.84236,398.86677 c -3.76992,-0.0192 -7.50796,1.00742 -10.80988,2.90716 -7.29705,-5.15068 -17.38905,-2.77872 -22.6943,4.18512 -5.71911,6.91959 -6.408,18.62813 -0.58944,26.04864 0.98246,2.55226 5.36409,3.18442 4.91385,5.7264 -1.54704,7.10103 2.77527,14.47498 8.58528,17.62042 7.56336,4.54368 18.22445,2.7504 22.85712,-5.34547 1.52679,-2.64355 2.28836,-5.81021 2.20665,-8.97427 8.85024,-2.67917 16.00388,-11.94279 15.51092,-22.34631 -0.18432,-8.48544 -5.98676,-16.21872 -13.35005,-18.66105 -2.14512,-0.76992 -4.39372,-1.15143 -6.63235,-1.16208 z m -0.1536,7.65974 c 5.80359,-0.16704 11.70059,4.65456 12.4034,11.19715 1.12089,8.55946 -5.73312,16.32979 -13.32921,16.66349 -2.23575,0.12672 -6.09159,-0.34368 -7.10804,-2.02253 5.72775,-6.24441 7.21517,-16.9535 2.71296,-24.73977 1.68404,-0.71712 3.49844,-1.11428 5.32089,-1.09834 z m -19.19884,0.48096 c 4.07097,-0.37728 -0.45312,3.01248 -0.81888,5.14915 -2.55821,5.57626 -2.69213,12.54682 -0.0192,18.25229 -4.76457,0.8304 -9.72116,-3.12307 -10.47831,-8.40864 -1.3943,-7.4759 4.35312,-15.24854 11.316,-14.9927 z m 7.97223,5.28346 c 2.40336,4.68796 1.20402,10.75632 -2.09867,14.37158 -2.03596,-4.78963 -0.91776,-10.5455 2.09867,-14.37158 z m -3.64628,24.97833 c 3.38276,2.92186 7.61529,4.54445 11.85168,4.77235 0.0288,5.61226 -5.62272,9.07133 -10.29331,7.90253 -4.37097,-0.73536 -8.89286,-5.02003 -8.26532,-10.21238 0.49728,-2.59613 4.52592,-0.71712 6.31739,-2.3089 l 0.38976,-0.1536 z"/>
    </g>
  </g>
</svg>
