<?xml version='1.0' encoding='ASCII' standalone='yes'?>
<svg xmlns="http://www.w3.org/2000/svg" xmlns:xlink="http://www.w3.org/1999/xlink" version="1.1" width="72.0mm" viewBox="0 0 72.0 72.0" height="72.0mm">
  <g transform="translate(10.708832000000001, 16.3428995) scale(1 1) ">
    <defs id="defs1"/>
    <g id="layer1" transform="translate(-316.39097,-407.86485)">
      <path style="color:#000000;fill:#000000;stroke:none;stroke-width:1;stroke-linecap:round;stroke-linejoin:round;-inkscape-stroke:none" d="m 320.54727,407.86485 c -4.95227,0.18816 -4.12781,5.67139 -4.07147,9.10166 0.43872,8.38224 2.32628,17.28298 8.18555,23.63069 5.7384,6.24 15.10501,7.85731 23.04288,5.63597 6.94473,-1.81056 12.46032,-7.28564 15.29701,-13.76208 2.61687,-5.78237 3.85863,-12.14516 3.97104,-18.47501 0.0672,-3.1993 -3.17865,-3.96778 -5.68368,-3.91738 -13.58044,-0.73824 -27.16089,-1.4759 -40.74133,-2.21385 z m 3.99378,7.91251 c 11.36247,0.61824 22.72503,1.23753 34.0875,1.85625 -0.0192,6.22311 -2.09252,12.59501 -6.31508,17.23604 -4.18762,4.56153 -11.1286,5.55753 -16.86672,3.84931 -5.39539,-1.74739 -8.44627,-7.17331 -9.83692,-12.34791 -1.02663,-3.43478 -1.29005,-7.02854 -1.06878,-10.59369 z" id="path41-8"/>
    </g>
  </g>
</svg>
