<?xml version='1.0' encoding='ASCII' standalone='yes'?>
<svg xmlns="http://www.w3.org/2000/svg" xmlns:xlink="http://www.w3.org/1999/xlink" version="1.1" width="72.0mm" viewBox="0 0 72.0 72.0" height="72.0mm">
  <g transform="translate(7.282434500000001, 9.989656499999999) scale(1 1) ">
    <defs id="defs1"/>
    <g id="layer1" transform="translate(-401.3312,-404.04107)">
      <path id="path217" style="color:#000000;fill:#000000;stroke:none;stroke-width:1;stroke-linecap:round;stroke-linejoin:round;-inkscape-stroke:none" d="m 410.56617,404.04107 c -4.49645,0.48576 -3.91161,5.74848 -1.18973,7.96435 5.29307,6.16906 10.58603,12.33811 15.87899,18.50717 -3.53387,5.10643 -7.06763,10.21296 -10.60148,15.31939 -2.23075,-2.71862 -4.4616,-5.43715 -6.69235,-8.15577 -4.2072,-4.57162 -9.24576,2.77488 -5.05728,5.9566 3.01036,3.67152 6.02083,7.34304 9.0312,11.01456 2.57395,3.10004 6.05068,0.52032 7.4568,-2.15712 3.6792,-5.31504 7.3584,-10.63008 11.0376,-15.94512 5.01552,5.84564 10.03095,11.69127 15.04647,17.5369 2.81193,3.15034 6.30729,0.18912 7.38258,-2.77075 1.87959,-3.65866 3.89262,-7.25434 5.6859,-10.9537 1.64457,-5.08176 -6.36846,-6.73488 -7.62384,-1.84531 -1.10208,2.09587 -2.20427,4.19184 -3.30644,6.28781 -4.22506,-4.92451 -8.4502,-9.84912 -12.67527,-14.77363 4.60704,-6.65597 9.21419,-13.31184 13.82123,-19.96781 3.21148,-4.48042 -4.71467,-8.70547 -6.85008,-3.61968 -4.04843,5.85168 -8.09693,11.70326 -12.14535,17.55494 -5.32473,-6.20774 -10.64948,-12.41558 -15.97421,-18.62333 l -1.45267,-1.05196 -1.77197,-0.27744 z"/>
    </g>
  </g>
</svg>
