<?xml version="1.0" encoding="UTF-8" standalone="no"?>
<svg
   version="1.1"
   width="72.0mm"
   viewBox="0 0 72.0 72.0"
   height="72.0mm"
   id="svg1"
   sodipodi:docname="w.svg"
   inkscape:version="1.3.2 (091e20e, 2023-11-25, custom)"
   xmlns:inkscape="http://www.inkscape.org/namespaces/inkscape"
   xmlns:sodipodi="http://sodipodi.sourceforge.net/DTD/sodipodi-0.dtd"
   xmlns="http://www.w3.org/2000/svg"
   xmlns:svg="http://www.w3.org/2000/svg">
  <defs
     id="defs2" />
  <sodipodi:namedview
     id="namedview1"
     pagecolor="#ffffff"
     bordercolor="#000000"
     borderopacity="0.25"
     inkscape:showpageshadow="2"
     inkscape:pageopacity="0.0"
     inkscape:pagecheckerboard="0"
     inkscape:deskcolor="#d1d1d1"
     inkscape:document-units="mm"
     inkscape:zoom="0.7468967"
     inkscape:cx="62.927042"
     inkscape:cy="91.712816"
     inkscape:window-width="1920"
     inkscape:window-height="1009"
     inkscape:window-x="-8"
     inkscape:window-y="-8"
     inkscape:window-maximized="1"
     inkscape:current-layer="svg1" />
  <g
     transform="translate(18.8384,30.670854)"
     id="g1">
    <defs
       id="defs1" />
    <g
       id="layer1"
       transform="translate(-412.02595,-725.45575)">
      <path
         style="color:#000000;fill:#000000;stroke:none;stroke-width:1;stroke-linecap:round;stroke-linejoin:round;-inkscape-stroke:none"
         d="m 443.34105,725.58357 c -2.77862,-0.73248 -4.60262,1.81747 -4.89647,4.22294 -0.82369,3.6361 -1.64823,7.27219 -2.4723,10.90829 -0.96873,-2.50003 -1.93756,-4.99997 -2.90629,-7.5 -1.50048,-4.05658 -7.08875,-2.50282 -7.57095,1.21008 -0.91968,2.82153 -1.84022,5.64307 -2.76029,8.46461 -1.06252,-4.03124 -2.12496,-8.06256 -3.18748,-12.0938 -0.80352,-3.98592 -7.21824,-3.58665 -7.52132,0.46848 0.0192,2.04788 0.82944,3.96586 1.26921,5.94471 1.77774,6.73718 3.55556,13.47437 5.33339,20.21155 1.11589,4.43184 7.21651,3.1223 7.70256,-0.79776 1.15123,-3.52781 2.30245,-7.05571 3.45369,-10.58352 1.18128,3.05626 2.36247,6.11251 3.54375,9.16877 1.59877,4.23907 7.44336,2.31811 7.57056,-1.59226 1.78272,-7.81286 3.56544,-15.62573 5.34816,-23.43859 0.49632,-2.01043 -0.87648,-4.18147 -2.90621,-4.59341 z"
         id="path33" />
    </g>
  </g>
</svg>
