<?xml version='1.0' encoding='ASCII' standalone='yes'?>
<svg xmlns="http://www.w3.org/2000/svg" xmlns:xlink="http://www.w3.org/1999/xlink" version="1.1" width="72.0mm" viewBox="0 0 72.0 72.0" height="72.0mm">
  <g transform="translate(5.1717245, 7.948920999999999) scale(1 1) ">
    <defs id="defs1"/>
    <g id="layer1" transform="translate(-491.61935,-401.54536)">
      <path id="path219" style="color:#000000;fill:#000000;stroke:none;stroke-width:1;stroke-linecap:round;stroke-linejoin:round;-inkscape-stroke:none" d="m 522.37084,401.54574 c -4.57045,1.07559 -6.42816,6.25603 -9.30201,9.60029 -1.82467,1.98682 -3.35856,6.36019 -5.12794,7.08998 -3.25814,-3.80064 -6.51629,-7.60128 -9.77442,-11.40192 -4.40688,-4.53408 -9.15803,3.04973 -4.85684,6.12701 3.63476,4.24627 7.26951,8.49264 10.90425,12.73901 -4.19328,7.72051 -7.89925,15.68995 -11.74752,23.58432 -1.8142,3.97008 2.48987,5.89411 5.68379,5.6807 13.19328,0.8928 26.38656,1.7857 39.57984,2.6785 4.63411,0.16608 4.3486,-5.02771 3.53529,-8.17094 -0.99869,-7.09968 -2.15876,-14.1986 -4.10582,-21.10858 4.93949,-4.52765 9.87888,-9.05539 14.81837,-13.58304 4.21813,-3.91152 -2.92733,-9.32717 -6.03687,-4.87123 -3.8135,3.48912 -7.6271,6.97824 -11.4407,10.46736 -2.32963,-6.07901 -5.39568,-11.87808 -9.14803,-17.19955 l -1.30032,-1.16381 -1.68116,-0.46848 z m -0.50592,12.02035 c 6.33822,11.04797 9.72366,23.52711 11.45972,36.07594 -10.33862,-0.69504 -20.67716,-1.38902 -31.01577,-2.08358 5.68981,-11.777 11.84832,-23.39232 19.55605,-33.99236 z"/>
    </g>
  </g>
</svg>
