<?xml version='1.0' encoding='ASCII' standalone='yes'?>
<svg xmlns="http://www.w3.org/2000/svg" xmlns:xlink="http://www.w3.org/1999/xlink" version="1.1" width="72.0mm" viewBox="0 0 72.0 72.0" height="72.0mm">
  <g transform="translate(17.5069295, 8.016700499999999) scale(1 1) ">
    <defs id="defs1"/>
    <g id="layer1" transform="translate(-690.18898,-401.76894)">
      <path id="path223" style="color:#000000;fill:#000000;stroke:none;stroke-width:1;stroke-linecap:round;stroke-linejoin:round;-inkscape-stroke:none" d="m 693.86055,401.76894 c -4.48964,0.57024 -3.88464,6.20266 -0.62496,7.92259 7.39036,5.94164 14.78064,11.88317 22.171,17.82471 -3.61987,1.1112 -7.23964,2.22249 -10.85952,3.33369 -2.70903,0.70848 -2.81952,3.58378 -2.71863,5.8297 0,5.78918 0,11.57846 0,17.36765 -0.18624,5.22269 8.3906,4.7279 7.68951,-0.40416 0,-5.42823 0,-10.85655 0,-16.28477 5.01216,-1.54454 10.02441,-3.08899 15.03657,-4.63354 3.82724,-1.14604 3.10733,-6.02899 0.12192,-7.60089 -9.32745,-7.50903 -18.6549,-15.01795 -27.98236,-22.52688 l -1.33412,-0.69504 -1.49856,-0.12864 z m 0.0192,14.66947 c -6.00615,0.0672 -4.10439,10.70007 1.56412,8.62128 3.55133,-1.1711 3.10589,-6.65059 0.21024,-8.23488 l -1.77388,-0.38784 z m 8.05161,2.95671 c -5.97629,0.01 -4.07712,10.29859 1.48809,8.51328 3.80362,-1.05178 3.2235,-6.71482 0.10944,-8.18947 l -1.59762,-0.32352 z"/>
    </g>
  </g>
</svg>
