<?xml version='1.0' encoding='ASCII' standalone='yes'?>
<svg xmlns="http://www.w3.org/2000/svg" xmlns:xlink="http://www.w3.org/1999/xlink" version="1.1" width="72.0mm" viewBox="0 0 72.0 72.0" height="72.0mm">
  <g transform="translate(5.590183499999998, 7.642038500000002) scale(1 1) ">
    <defs id="defs1"/>
    <g id="layer1" transform="translate(-765.53572,-399.98915)">
      <path id="path1" style="color:#000000;fill:#000000;stroke:none;stroke-width:1;stroke-linecap:round;stroke-linejoin:round;-inkscape-stroke:none" d="m 769.68844,400.01771 c -4.16448,-0.42912 -4.72128,4.07405 -3.72709,7.02077 2.76037,13.68969 5.52085,27.37929 8.28124,41.06899 1.21479,5.72688 9.42029,2.41411 7.37069,-2.34077 -2.8703,-14.22662 -5.74061,-28.45315 -8.61092,-42.67977 -0.28992,-1.59869 -1.70448,-2.89911 -3.31392,-3.06922 z m 52.34784,5.55629 c -3.43996,0.43392 -3.42432,4.07491 -4.00645,6.66365 -2.60852,13.37923 -5.21693,26.75856 -7.82544,40.13779 -0.79872,6.26131 8.08185,5.26589 7.82332,-0.01 2.74839,-14.08397 5.49677,-28.16794 8.24516,-42.25191 0.54816,-2.4696 -1.72253,-4.92518 -4.23659,-4.53926 z m -25.44469,3.50736 c -7.00829,-0.0192 -12.58464,5.83517 -14.65565,12.14265 -2.98762,8.76634 -1.36339,19.72205 5.87817,25.97184 4.38308,3.90797 11.3354,4.45508 16.16112,1.0345 7.36665,-5.02406 9.79382,-14.93232 8.24016,-23.3473 -1.3032,-7.71408 -7.1254,-15.76492 -15.6238,-15.80169 z m 0,7.6895 c 4.26277,0.15744 6.78057,4.54119 7.75957,8.21808 1.44768,5.69194 0.45792,12.61363 -4.19884,16.58093 -2.5416,2.20675 -6.54278,1.33286 -8.45529,-1.26778 -4.58939,-5.74569 -4.6584,-14.6856 -0.3216,-20.58988 1.24963,-1.61232 3.09552,-2.96208 5.21577,-2.94135 z"/>
    </g>
  </g>
</svg>
