<?xml version='1.0' encoding='ASCII' standalone='yes'?>
<svg xmlns="http://www.w3.org/2000/svg" xmlns:xlink="http://www.w3.org/1999/xlink" version="1.1" width="72.0mm" viewBox="0 0 72.0 72.0" height="72.0mm">
  <g transform="translate(10.839679499999999, 11.536697499999999) scale(1 1) ">
    <defs id="defs1"/>
    <g id="layer1" transform="translate(-861.72731,-404.82241)">
      <path id="path229" style="color:#000000;fill:#000000;stroke:none;stroke-width:1;stroke-linecap:round;stroke-linejoin:round;-inkscape-stroke:none" d="m 908.19284,404.82491 c -2.62928,0.20832 -3.98928,2.64192 -5.79848,4.2311 -3.64824,3.67786 -7.2965,7.35581 -10.94469,11.03367 -3.85412,3.59021 2.64585,9.30393 5.75453,5.11747 4.5772,-4.6127 9.15424,-9.2255 13.73144,-13.83821 2.38832,-2.27481 0.67968,-6.66624 -2.7428,-6.54403 z m -42.71368,0.432 c -4.55173,-0.0576 -4.73509,5.54381 -1.77061,7.70525 3.34012,3.56995 6.68025,7.13981 10.02037,10.70976 3.8115,4.16793 9.26603,-2.60055 5.22,-5.66103 -3.59712,-3.8447 -7.19433,-7.68931 -10.79145,-11.53392 l -1.21785,-0.87744 -1.46112,-0.34368 z m 29.32907,27.09168 c -4.48493,0.5136 -3.91479,5.84208 -1.03728,7.91606 3.48717,3.61872 6.97429,7.23735 10.46141,10.85607 4.12792,4.21411 9.27944,-3.05722 4.94528,-5.95229 -3.748,-3.8832 -7.496,-7.7663 -11.24392,-11.6495 l -1.42888,-0.94272 -1.69661,-0.22752 z m -15.68151,0.97728 c -2.60582,0.3936 -3.81524,2.90314 -5.52365,4.60637 -2.84025,3.24691 -5.68051,6.49373 -8.52076,9.74064 -3.8138,5.1192 4.38931,8.51712 6.81571,3.89165 3.57725,-4.15124 7.27286,-8.20791 10.77408,-12.42 1.6176,-2.51636 -0.48576,-6.12212 -3.54538,-5.81866 z"/>
    </g>
  </g>
</svg>
