<?xml version='1.0' encoding='ASCII' standalone='yes'?>
<svg xmlns="http://www.w3.org/2000/svg" xmlns:xlink="http://www.w3.org/1999/xlink" version="1.1" width="72.0mm" viewBox="0 0 72.0 72.0" height="72.0mm">
  <g transform="translate(7.721551999999999, 7.308101499999999) scale(1 1) ">
    <defs id="defs1"/>
    <g id="layer1" transform="translate(-951.29002,-398.02036)">
      <path style="color:#000000;fill:#000000;stroke:none;stroke-width:1;stroke-linecap:round;stroke-linejoin:round;-inkscape-stroke:none" d="m 975.2598,398.0211 c -3.894,-0.0576 -6.76096,3.27418 -9.704,5.47123 -10.86768,9.45773 -16.74824,24.97805 -13.26272,39.16013 1.3124,5.61312 5.19784,11.51808 11.36984,12.24384 5.7636,0.67104 10.32536,-3.82061 13.51184,-8.07321 1.42024,-1.21834 2.4844,-5.76816 3.99632,-2.47719 3.55568,4.61251 7.72808,9.44218 13.6648,10.78925 4.86096,1.25885 9.91792,-2.05814 11.52872,-6.66048 2.634,-7.10275 1.3988,-15.00154 -0.9139,-22.01702 -4.3726,-12.95972 -14.74194,-24.19594 -28.12618,-27.9002 -0.68352,-0.1968 -1.37208,-0.37536 -2.06424,-0.53664 z m 0.0384,8.30621 c 9.2004,2.60851 17.00088,9.40474 20.98488,18.08131 2.8808,6.23194 4.86002,13.37424 3.29064,20.21991 -0.2448,3.67795 -4.14656,3.51609 -6.26816,1.46774 -4.30128,-3.08803 -7.54648,-7.3799 -10.6012,-11.64394 -3.14208,-3.96902 -6.91288,0.0768 -8.1268,3.32986 -2.23104,3.61949 -4.74256,7.55059 -8.77688,9.31872 -2.93224,0.93888 -4.69744,-2.42909 -5.55128,-4.7041 -2.654,-7.97136 -0.53376,-16.83129 3.55424,-23.94153 2.83344,-4.85703 6.83,-9.00096 11.49456,-12.12797 z" id="path146-7-1"/>
    </g>
  </g>
</svg>
