<?xml version="1.0" encoding="UTF-8" standalone="no"?>
<svg
   version="1.1"
   width="72.0mm"
   viewBox="0 0 72.0 72.0"
   height="72.0mm"
   id="svg1"
   sodipodi:docname="kulijo.svg"
   inkscape:version="1.3.2 (091e20e, 2023-11-25, custom)"
   xmlns:inkscape="http://www.inkscape.org/namespaces/inkscape"
   xmlns:sodipodi="http://sodipodi.sourceforge.net/DTD/sodipodi-0.dtd"
   xmlns="http://www.w3.org/2000/svg"
   xmlns:svg="http://www.w3.org/2000/svg">
  <defs
     id="defs2" />
  <sodipodi:namedview
     id="namedview1"
     pagecolor="#ffffff"
     bordercolor="#000000"
     borderopacity="0.25"
     inkscape:showpageshadow="2"
     inkscape:pageopacity="0.0"
     inkscape:pagecheckerboard="0"
     inkscape:deskcolor="#d1d1d1"
     inkscape:document-units="mm"
     inkscape:zoom="2.1125429"
     inkscape:cx="111.24035"
     inkscape:cy="99.169585"
     inkscape:window-width="1920"
     inkscape:window-height="1009"
     inkscape:window-x="-8"
     inkscape:window-y="-8"
     inkscape:window-maximized="1"
     inkscape:current-layer="svg1" />
  <path
     id="path22-0-0"
     style="color:#000000;fill:#000000;stroke:none;stroke-width:0.999968;stroke-linecap:round;stroke-linejoin:round;-inkscape-stroke:none"
     d="m 37.387899,6.0007806 c -0.141338,-0.004 -0.283432,4e-5 -0.426331,0.01395 v -0.00207 c -3.39244,0.17088 -3.649788,3.72574 -3.926892,6.3107304 -0.420862,3.24737 -0.841641,6.49455 -1.262455,9.74204 -0.59136,6.00679 8.304465,5.19371 7.746297,-0.06718 0.505248,-3.88915 1.010414,-7.77826 1.51567,-11.66751 0.352078,-2.2023804 -1.526231,-4.2648204 -3.646289,-4.3299604 z m -25.677503,3.84627 c -4.929614,0.13728 -4.236764,5.5114504 -1.874304,8.1338704 1.975964,2.98473 3.812196,6.07157 5.882328,8.98757 3.933064,3.93819 8.797768,-2.6243 5.128886,-6.06475 -1.990484,-3.10003 -3.981236,-6.20018 -5.971728,-9.30021 -0.6768,-1.07816 -1.92252,-1.7344004 -3.165182,-1.7564804 z m 48.78617,0.9921904 c -3.160394,-0.0576 -4.444702,3.0838 -6.326746,5.06532 -1.7479,2.14109 -3.494893,4.28266 -5.242057,6.42442 -3.695448,4.90789 4.367753,8.72378 6.626469,4.02352 2.515859,-3.08379 5.030959,-6.16845 7.546826,-9.25214 1.999564,-2.23257 0.352318,-6.11632 -2.604492,-6.2606 z m -17.811833,21.54132 c -0.330591,-0.03095 -0.663814,-0.01844 -0.991154,0.03721 -0.994243,0.169598 -1.880275,0.727504 -2.462899,1.55081 l -5.730399,8.08943 -6.91069,-7.86877 c -0.664866,-0.757456 -1.603408,-1.219759 -2.609143,-1.2852 -1.005731,-0.06559 -1.996322,0.271053 -2.753837,0.93586 -1.577072,1.384865 -1.732784,3.786028 -0.347782,5.36298 l 5.674072,6.46111 -9.002034,0.6134 c -2.093635,0.142553 -3.675388,1.955196 -3.533118,4.04885 0.142557,2.093631 1.955198,3.675379 4.048848,3.53311 l 7.433139,-0.50643 -4.335653,6.12159 c -1.212739,1.712457 -0.807882,4.083765 0.904337,5.29684 1.712837,1.214146 4.085717,0.809177 5.298902,-0.90434 l 6.77323,-9.56272 9.13691,10.40453 c 1.384726,1.576057 3.784696,1.731736 5.36143,0.34778 1.577872,-1.384464 1.734291,-3.786052 0.349332,-5.36349 l -6.579443,-7.49154 8.151957,-0.555 c 2.0945,-0.142533 3.676585,-1.956484 3.533118,-4.05092 -0.142551,-2.093635 -1.955195,-3.67539 -4.048849,-3.53312 l -9.088851,0.61961 4.477247,-6.32107 c 1.212732,-1.712456 0.807875,-4.083756 -0.904338,-5.29683 -0.544119,-0.385813 -1.180206,-0.621606 -1.844332,-0.68368 z"
     sodipodi:nodetypes="ccccccccccccccccccccccccccccccccccccccccccccccccc" />
</svg>
