<?xml version='1.0' encoding='ASCII' standalone='yes'?>
<svg xmlns="http://www.w3.org/2000/svg" xmlns:xlink="http://www.w3.org/1999/xlink" version="1.1" width="72.0mm" viewBox="0 0 72.0 72.0" height="72.0mm">
  <g transform="translate(2.3984489999999994, 5.466953499999999) scale(1 1) ">
    <defs id="defs1"/>
    <g id="layer1" transform="translate(611.52329,-1250.8853)">
      <path id="path32-4-7-6" style="color:#000000;fill:#000000;stroke:none;stroke-width:1;stroke-linecap:round;stroke-linejoin:round;-inkscape-stroke:none" d="m -581.06568,1250.8881 c -8.13681,-0.058 -15.81633,6.8158 -15.98361,15.0776 -0.15576,4.1036 1.54509,8.222 4.53873,11.0316 -0.58377,1.4816 -1.16748,2.9633 -1.75124,4.445 -8.28253,-0.6835 -16.56421,5.8867 -17.18701,14.2894 -0.76589,7.0985 4.47067,13.9425 11.30712,15.6146 8.16237,2.4122 17.73148,-2.6237 19.98969,-10.9193 0.43575,-1.1031 2.32371,-0.4597 3.40071,-0.792 2.97313,-0.9828 2.91633,3.5252 5.24449,4.6231 6.30351,6.0192 17.29692,5.417 23.06084,-1.0408 4.97914,-5.0742 5.61675,-13.7939 1.0074,-19.3288 -4.35417,-5.6108 -12.58833,-7.4424 -19.02708,-4.6086 -0.76896,-1.232 -1.53789,-2.464 -2.30685,-3.6958 4.8958,-5.442 4.90072,-14.5298 -0.33956,-19.7612 -3.05332,-3.238 -7.52008,-5.0188 -11.95363,-4.9348 z m 0.13896,7.6595 c 4.66363,-0.3897 9.17236,4.1509 7.97748,8.8411 -1.30161,6.2322 -10.30814,8.5723 -14.53976,3.8254 -3.35977,-3.3264 -1.95837,-9.3005 2.06147,-11.3978 1.35909,-0.7988 2.92797,-1.2249 4.50081,-1.2687 z m 5.92335,21.5753 c 0.78048,1.25 1.56105,2.5002 2.34156,3.7503 -2.35911,2.0433 -2.62047,6.1057 -4.03047,8.0412 -1.16177,0.096 -2.32356,0.1892 -3.48536,0.2832 -0.60421,-3.9074 -4.73104,-6.5857 -6.51796,-9.0051 0.51907,-1.4779 0.83827,-3.2106 2.82321,-1.9825 2.98224,0.4598 6.08587,0.077 8.86902,-1.0871 z m 14.90761,5.4916 c 4.66496,-0.3888 9.14495,4.1642 7.96076,8.846 -1.26405,6.1469 -10.02992,8.4952 -14.33229,4.0217 -3.40463,-3.1487 -2.3742,-9.1223 1.52661,-11.3849 1.43344,-0.936 3.13725,-1.4363 4.84492,-1.4828 z m -35.26236,3.4578 c 4.66415,-0.3898 9.15155,4.157 7.96568,8.8411 -1.26483,6.1487 -10.03185,8.494 -14.33585,4.0216 -3.2842,-3.0399 -2.46612,-8.7808 1.19789,-11.1533 1.4964,-1.0798 3.33297,-1.6591 5.17228,-1.7094 z"/>
    </g>
  </g>
</svg>
