<?xml version="1.0" encoding="UTF-8" standalone="no"?>
<svg
   version="1.1"
   width="72.0mm"
   viewBox="0 0 72.0 72.0"
   height="72.0mm"
   id="svg1"
   sodipodi:docname="nimisin.svg"
   inkscape:version="1.3.2 (091e20e, 2023-11-25, custom)"
   xmlns:inkscape="http://www.inkscape.org/namespaces/inkscape"
   xmlns:sodipodi="http://sodipodi.sourceforge.net/DTD/sodipodi-0.dtd"
   xmlns="http://www.w3.org/2000/svg"
   xmlns:svg="http://www.w3.org/2000/svg">
  <defs
     id="defs2">
    <defs
       id="defs1" />
  </defs>
  <sodipodi:namedview
     id="namedview1"
     pagecolor="#ffffff"
     bordercolor="#000000"
     borderopacity="0.25"
     inkscape:showpageshadow="2"
     inkscape:pageopacity="0.0"
     inkscape:pagecheckerboard="0"
     inkscape:deskcolor="#d1d1d1"
     inkscape:document-units="mm"
     inkscape:zoom="1.0562714"
     inkscape:cx="156.20985"
     inkscape:cy="203.0728"
     inkscape:window-width="1920"
     inkscape:window-height="1009"
     inkscape:window-x="-8"
     inkscape:window-y="-8"
     inkscape:window-maximized="1"
     inkscape:current-layer="svg1" />
  <path
     id="path139"
     style="color:#000000;fill:#000000;stroke:none;stroke-width:1;stroke-linecap:round;stroke-linejoin:round;-inkscape-stroke:none"
     d="M 33.410364,4.8445305 A 3.8,3.8 0 0 0 29.767692,8.7977778 L 30.26947,21.070931 a 3.8,3.8 0 0 0 3.95118,3.640604 3.8,3.8 0 0 0 3.642672,-3.95118 L 37.361544,8.4872018 A 3.8,3.8 0 0 0 33.410364,4.8445305 Z M 49.40577,28.723177 C 40.058509,29.384616 30.701764,29.9592 21.360453,30.676029 14.51169,31.613948 8.8041134,37.671344 8.3808838,44.585258 c -0.5210895,5.713434 2.8657882,11.578173 8.2547932,13.696321 4.209706,1.905788 8.867714,1.230024 13.33407,1.305864 7.240923,-0.0672 14.484056,-0.09594 21.723739,-0.188103 5.040604,-0.273599 9.199013,-4.391058 10.347172,-9.174633 1.674758,-6.500824 0.0324,-14.218308 -5.231206,-18.659843 -2.077838,-1.698049 -4.704835,-2.791641 -7.403682,-2.841171 z m -0.01912,7.705989 c 3.340406,0.29088 4.96279,3.89615 5.430159,6.808887 0.37565,2.728127 0.204924,6.04979 -1.997294,8.000028 -1.658398,0.83424 -3.587963,0.383176 -5.383651,0.521416 -8.284701,0.0384 -16.572238,0.180577 -24.85533,0.163297 -3.084467,-0.0288 -6.252849,-2.204465 -6.516398,-5.441011 -0.52484,-3.558807 1.910618,-7.233002 5.459615,-7.994861 2.672487,-0.52512 5.426887,-0.46368 8.136454,-0.72192 6.575514,-0.44544 13.150911,-0.889463 19.726445,-1.334802 z m 18.746142,3.954281 a 3.8,3.8 0 0 0 -3.800801,3.800801 3.8,3.8 0 0 0 3.800801,3.798735 h 17.283183 a 3.8,3.8 0 0 0 3.800802,-3.798735 3.8,3.8 0 0 0 -3.800802,-3.800801 z m -81.407951,1.824178 a 3.8,3.8 0 0 0 -3.800801,3.799251 3.8,3.8 0 0 0 3.800801,3.800285 H 3.0060181 A 3.8,3.8 0 0 0 6.8068197,46.006876 3.8,3.8 0 0 0 3.0060181,42.207625 Z" />
</svg>
