<?xml version="1.0" encoding="UTF-8" standalone="no"?>
<svg
   version="1.1"
   width="72.0mm"
   viewBox="0 0 72.0 72.0"
   height="72.0mm"
   id="svg1"
   sodipodi:docname="owe.svg"
   inkscape:version="1.3.2 (091e20e, 2023-11-25, custom)"
   xmlns:inkscape="http://www.inkscape.org/namespaces/inkscape"
   xmlns:sodipodi="http://sodipodi.sourceforge.net/DTD/sodipodi-0.dtd"
   xmlns="http://www.w3.org/2000/svg"
   xmlns:svg="http://www.w3.org/2000/svg">
  <defs
     id="defs2">
    <defs
       id="defs1" />
  </defs>
  <sodipodi:namedview
     id="namedview1"
     pagecolor="#ffffff"
     bordercolor="#000000"
     borderopacity="0.25"
     inkscape:showpageshadow="2"
     inkscape:pageopacity="0.0"
     inkscape:pagecheckerboard="0"
     inkscape:deskcolor="#d1d1d1"
     inkscape:document-units="mm"
     inkscape:zoom="0.37344835"
     inkscape:cx="26.777465"
     inkscape:cy="587.76535"
     inkscape:window-width="1920"
     inkscape:window-height="1009"
     inkscape:window-x="-8"
     inkscape:window-y="-8"
     inkscape:window-maximized="1"
     inkscape:current-layer="svg1" />
  <path
     id="path83"
     style="color:#000000;fill:#000000;stroke:none;stroke-width:1;stroke-linecap:round;stroke-linejoin:round;-inkscape-stroke:none"
     d="m 38.398189,2.3638557 c -0.141338,-0.004 -0.283432,4.2e-5 -0.426331,0.013952 v -0.00207 c -3.392436,0.17088 -3.649788,3.7257386 -3.926892,6.310726 -0.420861,3.2473663 -0.841641,6.4945543 -1.262455,9.7420413 -0.591359,6.006784 8.304465,5.193706 7.746297,-0.06718 0.505248,-3.889146 1.010415,-7.778258 1.51567,-11.6675045 C 42.396556,4.4914457 40.518245,2.4289947 38.398189,2.3638557 Z M 12.720687,6.2101321 c -4.9296093,0.1372798 -4.2367631,5.5114519 -1.874305,8.1338699 1.975961,2.984727 3.812199,6.071568 5.882329,8.987566 3.933061,3.938186 8.797764,-2.6243 5.128886,-6.064747 C 19.867115,14.166795 17.876358,11.066641 15.885868,7.966614 15.209069,6.8884551 13.963347,6.2322121 12.720687,6.2101321 Z m 48.786169,0.9921875 c -3.160391,-0.0576 -4.444703,3.0838054 -6.326746,5.0653234 -1.747899,2.141089 -3.494895,4.282657 -5.242057,6.424414 -3.695444,4.907886 4.367755,8.723783 6.626469,4.023528 2.515857,-3.083787 5.030962,-6.168461 7.546826,-9.252149 1.999562,-2.232568 0.352315,-6.1163198 -2.604492,-6.2605997 z M 37.322286,28.682662 c -9.389021,0.1008 -19.292687,3.13544 -25.738481,10.260873 C 7.3890896,43.47764 5.6127058,50.431026 8.2558431,56.18641 11.48332,63.412603 19.127416,67.42803 26.575138,68.897779 36.669388,70.789807 47.73188,69.116648 56.227592,63.141024 61.694596,59.329508 65.920453,52.771698 64.811564,45.895565 63.704095,38.652373 57.446802,33.446698 50.901819,31.019471 46.582813,29.366472 41.936331,28.648203 37.322286,28.682662 Z m 0.05426,7.674467 h 5.17e-4 c 6.350313,0.0374 13.292712,1.583432 17.769458,6.403227 2.612137,2.730147 2.815928,7.206876 0.54777,10.209713 -4.100836,5.612244 -11.215391,8.091779 -17.889864,8.830469 -6.955953,0.629279 -14.587048,-0.550957 -20.012732,-5.249292 -2.786597,-2.317588 -4.048386,-6.479554 -2.313037,-9.7901 2.816327,-5.395835 8.849587,-8.174337 14.509192,-9.551355 2.421047,-0.55747 4.904778,-0.842862 7.388696,-0.852662 z m -1.349272,7.977291 c -4.867215,-0.0643 -6.411543,9.045724 -0.525549,8.891964 3.189697,-0.33321 5.747838,-5.038704 3.31866,-7.643461 -0.704729,-0.771839 -1.726722,-1.241173 -2.793111,-1.248503 z" />
</svg>
