<?xml version='1.0' encoding='ASCII' standalone='yes'?>
<svg xmlns="http://www.w3.org/2000/svg" xmlns:xlink="http://www.w3.org/1999/xlink" version="1.1" width="72.0mm" viewBox="0 0 72.0 72.0" height="72.0mm">
  <g transform="translate(8.5246335, 4.182346500000001) scale(1 1) ">
    <defs id="defs1"/>
    <g id="layer1" transform="translate(239.98202,-1251.6773)">
      <path id="path77-3-8-9-1" style="color:#000000;fill:#000000;stroke:none;stroke-width:1;stroke-linecap:round;stroke-linejoin:round;-inkscape-stroke:none" d="m -213.92654,1251.6817 c -6.71781,0.048 -13.4365,0.6019 -20.05707,1.7512 -4.09183,1.1747 -3.36935,6.0852 -4.24334,9.3956 -2.32907,15.2879 -2.07889,30.8472 -0.76223,46.2166 0.73709,4.3408 5.70182,3.5802 8.94977,4.2902 12.43722,1.6224 24.99842,2.0081 37.52925,1.9754 5.04607,-0.7786 3.96743,-6.8198 5.00651,-10.565 2.39693,-15.8145 3.18757,-31.9132 1.76489,-47.8602 -0.84768,-4.5124 -6.05465,-3.5184 -9.44196,-4.2113 -6.22452,-0.6624 -12.48571,-1.0428 -18.7458,-0.9925 z m 2.42094,8.1508 c 5.9932,0.048 11.97848,0.4916 17.92881,1.1957 0.0374,3.1509 0.79536,8.2371 0.0941,10.1999 -5.87113,-5.6368 -13.8276,-10.1131 -22.22384,-9.0784 -5.9634,0.6672 -11.26333,4.0927 -15.30524,8.3885 0.66528,-3.0625 0.20986,-7.3973 1.91268,-9.6107 5.82619,-0.8084 11.71351,-1.1438 17.59372,-1.095 z m -2.20762,9.8576 c 7.2956,-0.029 13.26937,5.0734 17.92913,10.1664 2.64341,1.8227 2.53891,4.6379 2.1028,7.4852 -0.48635,6.7192 -1.30874,13.413 -2.42557,20.0564 -2.33072,-0.6049 -6.75235,1.2066 -7.58563,-1.2219 -1.79922,-8.9063 -5.42218,-18.1387 -12.88588,-23.7885 -2.35242,-1.6227 -5.05416,-3.134 -7.96046,-3.2456 -1.53593,0.3465 -4.38333,1.271 -2.14365,-0.769 3.34395,-3.951 7.46645,-8.3364 12.96925,-8.6834 z m -13.49375,16.7033 c 6.02837,0.2227 10.16605,5.5548 12.48959,10.5983 1.11946,2.9662 3.6387,7.7586 2.71053,9.9574 -6.42709,-0.3485 -12.84321,-0.9322 -19.21848,-1.8231 -0.44688,-6.0047 -0.68707,-12.0263 -0.65483,-18.0479 1.50676,-0.4752 3.08989,-0.7546 4.67319,-0.6845 z"/>
    </g>
  </g>
</svg>
