<?xml version="1.0" encoding="UTF-8" standalone="no"?>
<svg
   version="1.1"
   width="72.0mm"
   viewBox="0 0 72.0 72.0"
   height="72.0mm"
   id="svg1"
   sodipodi:docname="te.svg"
   inkscape:version="1.3.2 (091e20e, 2023-11-25, custom)"
   xmlns:inkscape="http://www.inkscape.org/namespaces/inkscape"
   xmlns:sodipodi="http://sodipodi.sourceforge.net/DTD/sodipodi-0.dtd"
   xmlns="http://www.w3.org/2000/svg"
   xmlns:svg="http://www.w3.org/2000/svg">
  <defs
     id="defs2" />
  <sodipodi:namedview
     id="namedview1"
     pagecolor="#ffffff"
     bordercolor="#000000"
     borderopacity="0.25"
     inkscape:showpageshadow="2"
     inkscape:pageopacity="0.0"
     inkscape:pagecheckerboard="0"
     inkscape:deskcolor="#d1d1d1"
     inkscape:document-units="mm"
     inkscape:zoom="1.4937934"
     inkscape:cx="31.463521"
     inkscape:cy="146.94134"
     inkscape:window-width="1920"
     inkscape:window-height="1009"
     inkscape:window-x="-8"
     inkscape:window-y="-8"
     inkscape:window-maximized="1"
     inkscape:current-layer="svg1" />
  <g
     transform="translate(24.741304,3.1398544)"
     id="g1">
    <defs
       id="defs1" />
    <g
       id="layer1"
       transform="translate(-505.91192,-670.00237)">
      <path
         style="color:#000000;fill:#000000;stroke:none;stroke-width:1;stroke-linecap:round;stroke-linejoin:round;-inkscape-stroke:none"
         d="m 509.84727,670.00859 c -2.64011,-0.15072 -4.1904,2.4672 -3.90078,4.81181 0.096,4.65849 0.18816,9.31709 0.28128,13.97568 -0.1584,3.94819 5.78064,5.12899 7.28343,1.64573 0.64608,-1.38912 0.312,-2.93396 0.3504,-4.41101 -0.0576,-2.75328 -0.11328,-5.50647 -0.17088,-8.25975 3.62496,0.0768 7.25001,0.14976 10.87497,0.22464 3.93907,0.31296 5.35066,-5.57625 1.92864,-7.21363 -1.34198,-0.69408 -2.87682,-0.43008 -4.33017,-0.52512 -4.10573,-0.0864 -8.21136,-0.16512 -12.31709,-0.24864 z"
         id="path34" />
    </g>
  </g>
</svg>
