<?xml version="1.0" encoding="UTF-8" standalone="no"?>
<svg
   version="1.1"
   width="72.0mm"
   viewBox="0 0 72.0 72.0"
   height="72.0mm"
   id="svg1"
   sodipodi:docname="tokipona.svg"
   inkscape:version="1.3.2 (091e20e, 2023-11-25, custom)"
   xmlns:inkscape="http://www.inkscape.org/namespaces/inkscape"
   xmlns:sodipodi="http://sodipodi.sourceforge.net/DTD/sodipodi-0.dtd"
   xmlns="http://www.w3.org/2000/svg"
   xmlns:svg="http://www.w3.org/2000/svg">
  <defs
     id="defs2" />
  <sodipodi:namedview
     id="namedview1"
     pagecolor="#ffffff"
     bordercolor="#000000"
     borderopacity="0.25"
     inkscape:showpageshadow="2"
     inkscape:pageopacity="0.0"
     inkscape:pagecheckerboard="0"
     inkscape:deskcolor="#d1d1d1"
     inkscape:document-units="mm"
     inkscape:zoom="0.52813572"
     inkscape:cx="-41.655959"
     inkscape:cy="269.81701"
     inkscape:window-width="1920"
     inkscape:window-height="1009"
     inkscape:window-x="-8"
     inkscape:window-y="-8"
     inkscape:window-maximized="1"
     inkscape:current-layer="svg1" />
  <path
     id="path22-0-0"
     style="color:#000000;fill:#000000;stroke:none;stroke-width:0.999968;stroke-linecap:round;stroke-linejoin:round;-inkscape-stroke:none"
     d="M -24.741684 393.97358 C -24.883022 393.96923 -25.025116 393.97357 -25.168015 393.98753 L -25.168015 393.98546 C -28.560459 394.15634 -28.817803 397.7112 -29.094907 400.29619 C -29.51577 403.54357 -29.936547 406.79074 -30.357362 410.03823 C -30.948722 416.04503 -22.052897 415.23193 -22.611065 409.97105 C -22.105817 406.0819 -21.600651 402.19279 -21.095395 398.30354 C -20.743316 396.10115 -22.621624 394.03872 -24.741684 393.97358 z M -50.419187 397.81985 C -55.348806 397.95713 -54.655953 403.33129 -52.293491 405.95372 C -50.317525 408.93845 -48.481297 412.02529 -46.411163 414.94129 C -42.478095 418.87949 -37.613392 412.31699 -41.282277 408.87654 C -43.272763 405.77651 -45.263511 402.67636 -47.254005 399.57633 C -47.930805 398.49816 -49.176524 397.84193 -50.419187 397.81985 z M -1.6330172 398.81204 C -4.7934141 398.75444 -6.0777167 401.89583 -7.9597629 403.87736 C -9.7076651 406.01845 -11.454654 408.16002 -13.20182 410.30178 C -16.897272 415.20968 -8.834069 419.02556 -6.5753512 414.3253 C -4.0594897 411.2415 -1.5443945 408.15686 0.97147494 405.07316 C 2.9710409 402.84059 1.3237958 398.95684 -1.6330172 398.81256 L -1.6330172 398.81204 z M -28.144577 416.6616 C -39.166782 416.7096 -49.069377 425.93905 -50.303431 436.9632 C -51.624726 445.85768 -46.886223 455.43454 -38.666416 459.16029 C -29.140785 463.81514 -16.948175 459.81716 -11.230364 451.04296 C -5.3127222 442.69164 -5.7899556 430.04577 -13.20182 422.71704 C -17.092232 418.72843 -22.625855 416.52144 -28.144577 416.6616 z M -27.420074 424.36087 C -20.746496 424.35887 -14.898254 430.32398 -14.77175 437.04743 C -14.157543 446.05471 -22.550046 454.61915 -31.562973 453.31931 C -38.504022 452.62715 -43.694323 445.55011 -42.839804 438.64992 C -42.207357 430.86021 -35.273306 424.07306 -27.420074 424.36087 z M -36.022133 435.05272 A 3.8 3.8 0 0 0 -40.143328 438.50212 C -40.693809 444.70402 -35.942117 449.51655 -30.695843 450.24973 C -25.449569 450.98291 -19.412273 447.56742 -17.471327 440.76762 A 3.8 3.8 0 0 0 -20.082537 436.07023 A 3.8 3.8 0 0 0 -24.779925 438.68144 C -25.890334 442.57158 -27.846931 442.97357 -29.643194 442.72254 C -31.439456 442.47151 -32.778869 441.49633 -32.572731 439.17392 A 3.8 3.8 0 0 0 -36.022133 435.05272 z "
     transform="translate(62.129583,-391.54685)" />
</svg>
