<?xml version="1.0" encoding="UTF-8" standalone="no"?>
<svg
   version="1.1"
   width="72.0mm"
   viewBox="0 0 72.0 72.0"
   height="72.0mm"
   id="svg1"
   sodipodi:docname="usawi.svg"
   inkscape:version="1.4 (86a8ad7, 2024-10-11)"
   xmlns:inkscape="http://www.inkscape.org/namespaces/inkscape"
   xmlns:sodipodi="http://sodipodi.sourceforge.net/DTD/sodipodi-0.dtd"
   xmlns="http://www.w3.org/2000/svg"
   xmlns:svg="http://www.w3.org/2000/svg">
  <defs
     id="defs2">
    <defs
       id="defs1" />
  </defs>
  <sodipodi:namedview
     id="namedview1"
     pagecolor="#ffffff"
     bordercolor="#000000"
     borderopacity="0.25"
     inkscape:showpageshadow="2"
     inkscape:pageopacity="0.0"
     inkscape:pagecheckerboard="0"
     inkscape:deskcolor="#d1d1d1"
     inkscape:document-units="mm"
     inkscape:zoom="1.4937933"
     inkscape:cx="89.035074"
     inkscape:cy="209.86839"
     inkscape:window-width="1920"
     inkscape:window-height="1009"
     inkscape:window-x="-8"
     inkscape:window-y="-8"
     inkscape:window-maximized="1"
     inkscape:current-layer="svg1" />
  <path
     id="path22-0-0"
     style="color:#000000;fill:#000000;stroke:none;stroke-width:0.999968;stroke-linecap:round;stroke-linejoin:round;-inkscape-stroke:none"
     d="m 38.177515,2.0193194 c -0.141338,-0.004 -0.283432,4.26e-5 -0.426331,0.013953 v -0.00207 c -3.39244,0.17088 -3.649788,3.7257356 -3.926892,6.3107258 -0.420862,3.2473703 -0.841641,6.4945513 -1.262455,9.7420413 -0.59136,6.00679 8.304465,5.193711 7.746297,-0.06718 0.505248,-3.88915 1.010414,-7.778255 1.51567,-11.6675054 C 42.175882,4.1469075 40.297573,2.0844594 38.177515,2.0193194 Z M 12.500012,5.8655962 c -4.9296142,0.13728 -4.2367641,5.5114508 -1.874304,8.1338708 1.975964,2.98473 3.812196,6.071565 5.882328,8.987565 3.933064,3.93819 8.797768,-2.624296 5.128886,-6.064746 -1.990484,-3.10003 -3.981236,-6.200177 -5.971728,-9.3002079 -0.6768,-1.07816 -1.92252,-1.7344019 -3.165182,-1.7564819 z m 48.78617,0.9921875 c -3.160394,-0.0576 -4.444702,3.083804 -6.326746,5.0653243 -1.7479,2.14109 -3.494893,4.282654 -5.242057,6.424414 -3.695448,4.90789 4.367753,8.723787 6.626469,4.023527 2.515859,-3.08379 5.030959,-6.168458 7.546826,-9.252148 1.999564,-2.23257 0.352318,-6.1163205 -2.604492,-6.2606005 z M 33.818091,28.020317 c -1.072162,-0.0063 -2.141817,0.05761 -3.198771,0.193786 -6.813766,0.877822 -11.962061,3.85308 -14.988233,8.047054 -3.026171,4.193974 -3.855116,9.298752 -3.226676,14.064258 1.256879,9.531011 8.134132,18.867945 18.253666,19.590019 5.603973,0.399868 10.238011,-1.012552 13.353707,-3.841626 3.115696,-2.829075 4.462164,-6.776722 4.529439,-10.509953 0.06727,-3.73323 -1.026291,-7.389582 -3.080432,-10.420036 -2.05414,-3.030454 -5.270136,-5.534766 -9.31261,-5.988265 -3.406656,-0.382171 -6.497658,0.310824 -8.784993,1.973006 -2.287334,1.662183 -3.596071,4.167337 -3.911906,6.636288 -0.315836,2.468951 0.257974,4.981038 1.751831,7.060551 1.493857,2.079513 4.065468,3.632559 6.986137,3.820438 a 3.999995,3.999995 0 0 0 4.248319,-3.736206 3.999995,3.999995 0 0 0 -3.734656,-4.248319 c -0.648784,-0.04173 -0.778809,-0.193865 -1.001489,-0.503845 -0.22268,-0.309979 -0.37906,-0.873618 -0.314709,-1.376661 0.06435,-0.503043 0.246163,-0.864838 0.679545,-1.179772 0.433382,-0.314934 1.29314,-0.706996 3.191536,-0.494027 1.26258,0.141641 2.517806,0.95512 3.582211,2.525427 1.064405,1.570306 1.737026,3.797964 1.701188,5.786727 -0.03584,1.988763 -0.662121,3.600697 -1.906344,4.730461 -1.244224,1.129764 -3.358365,2.074256 -7.406266,1.78542 -5.073621,-0.362025 -10.062172,-6.356797 -10.892875,-12.656075 -0.415351,-3.149639 0.158135,-6.084051 1.783353,-8.336442 1.625217,-2.25239 4.378122,-4.129596 9.52345,-4.792472 7.45077,-0.959888 16.020155,3.335236 17.976681,12.142411 a 3.999995,3.999995 0 0 0 4.771285,3.037024 3.999995,3.999995 0 0 0 3.03909,-4.773352 C 54.890584,35.127054 44.900922,28.544493 34.890377,28.050289 c -0.35752,-0.01765 -0.714899,-0.02786 -1.072286,-0.02997 z" />
</svg>
